<svg width="82" height="16" viewBox="0 0 82 16" fill="none" xmlns="http://www.w3.org/2000/svg">
<path d="M16.5352 0.716797H20.1334L23.7643 7.98807L27.3952 0.716797H31.0343L23.7643 15.2512L16.5352 0.716797Z" fill="#0A2A3C"/>
<path d="M33.7725 0.716797H36.8882V12.1676H45.1559V15.2839H33.707L33.7725 0.716797Z" fill="#0A2A3C"/>
<path d="M61.3753 2.84216C62.063 3.50841 62.6065 4.30882 62.9723 5.19378C63.338 6.07874 63.5181 7.02941 63.5015 7.98685C63.518 8.94306 63.3378 9.89245 62.972 10.7761C62.6062 11.6597 62.0627 12.4587 61.3753 13.1234C60.0109 14.4844 58.1625 15.2487 56.2355 15.2487C54.3085 15.2487 52.4602 14.4844 51.0958 13.1234C50.4099 12.4575 49.8674 11.6583 49.5018 10.7749C49.1361 9.89161 48.955 8.94279 48.9696 7.98685C48.9549 7.02968 49.1359 6.07959 49.5015 5.1949C49.8671 4.31021 50.4097 3.50959 51.0958 2.84216C52.4602 1.48112 54.3085 0.716797 56.2355 0.716797C58.1625 0.716797 60.0109 1.48112 61.3753 2.84216ZM56.2396 3.83184C55.699 3.82639 55.1628 3.93089 54.6638 4.13898C54.1648 4.34706 53.7132 4.65441 53.3365 5.04235C52.9417 5.42283 52.6297 5.88075 52.42 6.38742C52.2104 6.89409 52.1075 7.4386 52.118 7.98685C52.1082 8.5338 52.2113 9.0769 52.421 9.58215C52.6307 10.0874 52.9423 10.5439 53.3365 10.9232C54.1165 11.6993 55.172 12.1351 56.2723 12.1351C57.3726 12.1351 58.4282 11.6993 59.2082 10.9232C59.6008 10.5427 59.9114 10.086 60.121 9.58102C60.3305 9.07605 60.4345 8.53353 60.4266 7.98685C60.4352 7.43887 60.3315 6.89494 60.1219 6.38855C59.9124 5.88216 59.6014 5.42402 59.2082 5.04235C58.8236 4.64669 58.3614 4.33488 57.8505 4.12656C57.3396 3.91823 56.7912 3.81789 56.2396 3.83184Z" fill="#0A2A3C"/>
<path d="M79.6839 2.84288C80.3727 3.50873 80.9175 4.30887 81.2846 5.1938C81.6518 6.07873 81.8334 7.02961 81.8183 7.98758C81.8333 8.94431 81.6515 9.89392 81.2844 10.7775C80.9172 11.6611 80.3725 12.4598 79.6839 13.1241C79.0095 13.7987 78.2089 14.3339 77.3277 14.6991C76.4465 15.0642 75.5021 15.2521 74.5483 15.2521C73.5944 15.2521 72.65 15.0642 71.7688 14.6991C70.8876 14.3339 70.087 13.7987 69.4126 13.1241C68.7241 12.4598 68.1793 11.6611 67.8121 10.7775C67.445 9.89392 67.2633 8.94431 67.2782 7.98758C67.2631 7.02961 67.4447 6.07873 67.8119 5.1938C68.179 4.30887 68.7238 3.50873 69.4126 2.84288C70.087 2.16822 70.8876 1.63304 71.7688 1.26791C72.65 0.902778 73.5944 0.714844 74.5483 0.714844C75.5021 0.714844 76.4465 0.902778 77.3277 1.26791C78.2089 1.63304 79.0095 2.16822 79.6839 2.84288ZM74.5483 3.83256C74.0022 3.82313 73.46 3.92567 72.9551 4.13386C72.4501 4.34206 71.9932 4.65149 71.6124 5.04308C71.2192 5.42475 70.9082 5.88288 70.6987 6.38927C70.4891 6.89566 70.3854 7.43959 70.3939 7.98758C70.3861 8.53426 70.4901 9.07677 70.6996 9.58174C70.9092 10.0867 71.2198 10.5435 71.6124 10.9239C72.3924 11.7001 73.448 12.1358 74.5483 12.1358C75.6485 12.1358 76.7041 11.7001 77.4841 10.9239C77.8737 10.5421 78.1813 10.0847 78.388 9.57979C78.5948 9.07488 78.6962 8.53308 78.6862 7.98758C78.6947 7.43959 78.591 6.89566 78.3815 6.38927C78.1719 5.88288 77.861 5.42475 77.4677 5.04308C77.0891 4.65312 76.6349 4.34461 76.1329 4.13645C75.6309 3.9283 75.0916 3.82489 74.5483 3.83256Z" fill="#0A2A3C"/>
<path d="M6.8364 0.716797L0.179688 7.10472V15.2839H12.9207V7.02293L6.8364 0.716797ZM6.55017 13.6971C5.71144 13.6939 4.89247 13.4422 4.19666 12.9738C3.50085 12.5054 2.9594 11.8413 2.64066 11.0653C2.32193 10.2894 2.24021 9.43637 2.40582 8.614C2.57143 7.79164 2.97694 7.03678 3.57116 6.44475C4.16537 5.85271 4.92165 5.45004 5.74451 5.28757C6.56737 5.12509 7.41991 5.21011 8.19449 5.53188C8.96908 5.85364 9.63098 6.39774 10.0966 7.09546C10.5623 7.79319 10.8108 8.61326 10.8108 9.45214C10.8108 10.011 10.7005 10.5643 10.4862 11.0804C10.2718 11.5965 9.95775 12.0652 9.5619 12.4596C9.16605 12.854 8.69623 13.1663 8.17941 13.3787C7.66258 13.5911 7.10891 13.6993 6.55017 13.6971Z" fill="#0A2A3C"/>
<path d="M6.54921 6.44141C5.95077 6.44141 5.36577 6.61889 4.86818 6.95143C4.3706 7.28396 3.98278 7.7566 3.75376 8.30958C3.52475 8.86257 3.46483 9.47105 3.58158 10.0581C3.69833 10.6451 3.98651 11.1844 4.40967 11.6076C4.83283 12.0308 5.37197 12.3191 5.95892 12.4358C6.54586 12.5526 7.15424 12.4927 7.70713 12.2636C8.26002 12.0346 8.73258 11.6467 9.06506 11.149C9.39753 10.6513 9.57499 10.0662 9.57499 9.4677C9.57499 8.66507 9.2562 7.89533 8.68876 7.32779C8.12132 6.76025 7.3517 6.44141 6.54921 6.44141ZM6.54921 11.1608C6.21407 11.1624 5.88598 11.0645 5.60653 10.8794C5.32708 10.6944 5.10883 10.4305 4.97945 10.1213C4.85008 9.81207 4.81538 9.4714 4.87977 9.14243C4.94416 8.81347 5.10474 8.51103 5.34115 8.27342C5.57757 8.03582 5.87918 7.87376 6.20777 7.80777C6.53636 7.74177 6.87715 7.77482 7.18694 7.90272C7.49674 8.03062 7.7616 8.24762 7.94797 8.52622C8.13434 8.80482 8.23383 9.13249 8.23384 9.4677C8.22954 9.91248 8.05042 10.3377 7.73519 10.6515C7.41996 10.9652 6.99394 11.1423 6.54921 11.1444V11.1608Z" fill="#0A2A3C"/>
</svg>
