<svg width="99" height="16" viewBox="0 0 99 16" fill="none" xmlns="http://www.w3.org/2000/svg">
<path d="M16.3555 0.616211H19.9537L23.5846 7.88749L27.2156 0.616211H30.8547L23.5846 15.1506L16.3555 0.616211Z" fill="white"/>
<path d="M33.5928 0.616211H36.7085V12.067H44.9762V15.1833H33.5273L33.5928 0.616211Z" fill="white"/>
<path d="M61.1946 2.74157C61.8823 3.40782 62.4259 4.20823 62.7916 5.09319C63.1573 5.97816 63.3375 6.92882 63.3208 7.88627C63.3373 8.84247 63.1571 9.79187 62.7913 10.6755C62.4256 11.5591 61.8821 12.3581 61.1946 13.0228C59.8302 14.3838 57.9819 15.1481 56.0549 15.1481C54.1279 15.1481 52.2795 14.3838 50.9151 13.0228C50.2292 12.3569 49.6868 11.5577 49.3211 10.6744C48.9555 9.79102 48.7744 8.84221 48.7889 7.88627C48.7742 6.92909 48.9552 5.979 49.3208 5.09431C49.6865 4.20963 50.229 3.409 50.9151 2.74157C52.2795 1.38054 54.1279 0.616211 56.0549 0.616211C57.9819 0.616211 59.8302 1.38054 61.1946 2.74157ZM56.059 3.73125C55.5183 3.72581 54.9822 3.8303 54.4831 4.03839C53.9841 4.24648 53.5325 4.55382 53.1558 4.94177C52.761 5.32225 52.449 5.78016 52.2394 6.28683C52.0297 6.7935 51.9269 7.33801 51.9374 7.88627C51.9275 8.43322 52.0307 8.97631 52.2403 9.48156C52.45 9.98682 52.7617 10.4433 53.1558 10.8226C53.9358 11.5988 54.9914 12.0345 56.0917 12.0345C57.192 12.0345 58.2475 11.5988 59.0275 10.8226C59.4201 10.4422 59.7307 9.98541 59.9403 9.48043C60.1498 8.97546 60.2539 8.43295 60.246 7.88627C60.2545 7.33828 60.1508 6.79435 59.9412 6.28796C59.7317 5.78157 59.4207 5.32344 59.0275 4.94177C58.6429 4.5461 58.1807 4.2343 57.6698 4.02597C57.1589 3.81765 56.6105 3.7173 56.059 3.73125Z" fill="white"/>
<path d="M79.5047 2.7423C80.1935 3.40814 80.7383 4.20829 81.1054 5.09322C81.4726 5.97815 81.6542 6.92902 81.6391 7.88699C81.6541 8.84372 81.4723 9.79333 81.1052 10.6769C80.738 11.5605 80.1933 12.3592 79.5047 13.0235C78.8303 13.6982 78.0297 14.2333 77.1485 14.5985C76.2673 14.9636 75.3229 15.1515 74.3691 15.1515C73.4152 15.1515 72.4708 14.9636 71.5896 14.5985C70.7084 14.2333 69.9078 13.6982 69.2334 13.0235C68.5449 12.3592 68.0001 11.5605 67.6329 10.6769C67.2658 9.79333 67.0841 8.84372 67.099 7.88699C67.0839 6.92902 67.2655 5.97815 67.6327 5.09322C67.9998 4.20829 68.5446 3.40814 69.2334 2.7423C69.9078 2.06764 70.7084 1.53246 71.5896 1.16733C72.4708 0.802192 73.4152 0.614258 74.3691 0.614258C75.3229 0.614258 76.2673 0.802192 77.1485 1.16733C78.0297 1.53246 78.8303 2.06764 79.5047 2.7423ZM74.3691 3.73198C73.823 3.72254 73.2808 3.82509 72.7759 4.03328C72.2709 4.24147 71.814 4.5509 71.4332 4.94249C71.04 5.32416 70.729 5.7823 70.5195 6.28869C70.3099 6.79508 70.2062 7.33901 70.2147 7.88699C70.2069 8.43367 70.3109 8.97618 70.5204 9.48116C70.73 9.98613 71.0406 10.4429 71.4332 10.8233C72.2132 11.5995 73.2688 12.0352 74.3691 12.0352C75.4693 12.0352 76.5249 11.5995 77.3049 10.8233C77.6945 10.4415 78.0021 9.98411 78.2088 9.4792C78.4156 8.97429 78.517 8.43249 78.507 7.88699C78.5155 7.33901 78.4118 6.79508 78.2023 6.28869C77.9927 5.7823 77.6818 5.32416 77.2885 4.94249C76.9099 4.55254 76.4557 4.24402 75.9537 4.03587C75.4517 3.82771 74.9125 3.7243 74.3691 3.73198Z" fill="white"/>
<path d="M6.65671 0.616211L0 7.00414V15.1833H12.741V6.92234L6.65671 0.616211ZM6.37049 13.5965C5.53175 13.5933 4.71278 13.3416 4.01697 12.8732C3.32116 12.4048 2.77971 11.7407 2.46098 10.9647C2.14225 10.1888 2.06052 9.33578 2.22613 8.51342C2.39174 7.69105 2.79725 6.9362 3.39147 6.34416C3.98569 5.75213 4.74197 5.34945 5.56482 5.18698C6.38768 5.02451 7.24022 5.10952 8.01481 5.43129C8.78939 5.75306 9.45129 6.29715 9.91694 6.99488C10.3826 7.6926 10.6311 8.51267 10.6311 9.35155C10.6311 9.91039 10.5208 10.4637 10.3065 10.9798C10.0922 11.4959 9.77806 11.9646 9.38221 12.359C8.98636 12.7534 8.51655 13.0657 7.99972 13.2781C7.48289 13.4905 6.92922 13.5987 6.37049 13.5965Z" fill="white"/>
<path d="M6.37148 6.34082C5.77304 6.34082 5.18804 6.51831 4.69045 6.85084C4.19286 7.18337 3.80504 7.65602 3.57603 8.209C3.34701 8.76198 3.28709 9.37047 3.40384 9.95751C3.52059 10.5446 3.80877 11.0838 4.23193 11.507C4.6551 11.9303 5.19424 12.2185 5.78118 12.3352C6.36812 12.452 6.97651 12.3921 7.52939 12.163C8.08228 11.934 8.55484 11.5461 8.88732 11.0484C9.2198 10.5508 9.39726 9.96565 9.39726 9.36711C9.39726 8.56449 9.07847 7.79474 8.51103 7.2272C7.94358 6.65966 7.17397 6.34082 6.37148 6.34082ZM6.37148 11.0602C6.03633 11.0618 5.70825 10.9639 5.42879 10.7788C5.14934 10.5938 4.9311 10.3299 4.80172 10.0207C4.67234 9.71149 4.63765 9.37081 4.70204 9.04185C4.76643 8.71288 4.92701 8.41044 5.16342 8.17284C5.39983 7.93524 5.70144 7.77317 6.03003 7.70718C6.35863 7.64119 6.69941 7.67423 7.00921 7.80213C7.319 7.93004 7.58386 8.14704 7.77024 8.42564C7.95661 8.70424 8.0561 9.0319 8.0561 9.36711C8.05181 9.81189 7.87269 10.2371 7.55746 10.5509C7.24222 10.8646 6.8162 11.0417 6.37148 11.0438V11.0602Z" fill="white"/>
<path d="M96.6812 15.3861C96.1479 15.3861 95.6889 15.2511 95.3041 14.9811C94.9261 14.7111 94.6594 14.3364 94.5042 13.8571C94.3894 13.4926 94.332 13.1078 94.332 12.7028C94.332 12.2707 94.386 11.886 94.494 11.5484C94.6493 11.0759 94.9193 10.708 95.3041 10.4447C95.6889 10.1814 96.1513 10.0498 96.6914 10.0498C97.2044 10.0498 97.6466 10.1814 98.0178 10.4447C98.3959 10.708 98.6625 11.0725 98.8178 11.5383C98.9393 11.8623 99.0001 12.2471 99.0001 12.6927C99.0001 13.1179 98.9427 13.5027 98.8279 13.847C98.6727 14.3263 98.406 14.7043 98.028 14.9811C97.6499 15.2511 97.201 15.3861 96.6812 15.3861ZM96.6812 14.3735C96.931 14.3735 97.1436 14.3027 97.3192 14.1609C97.5014 14.0191 97.6331 13.82 97.7141 13.5635C97.7816 13.3407 97.8153 13.0572 97.8153 12.7129C97.8153 12.3484 97.7816 12.0649 97.7141 11.8623C97.6398 11.6058 97.5116 11.41 97.3293 11.275C97.147 11.1333 96.9243 11.0624 96.661 11.0624C96.4112 11.0624 96.1952 11.1333 96.0129 11.275C95.8307 11.41 95.699 11.6058 95.618 11.8623C95.5505 12.0986 95.5168 12.3821 95.5168 12.7129C95.5168 13.0437 95.5505 13.3272 95.618 13.5635C95.6923 13.82 95.8205 14.0191 96.0028 14.1609C96.1918 14.3027 96.418 14.3735 96.6812 14.3735Z" fill="white"/>
<path d="M93.1858 10.0713C93.4019 10.0713 93.5909 10.1152 93.7529 10.2029C93.8069 10.2299 93.8271 10.2806 93.8136 10.3548L93.6415 11.2661C93.6347 11.3471 93.5875 11.3708 93.4997 11.337C93.3985 11.3033 93.2803 11.2864 93.1453 11.2864C93.0576 11.2864 92.9901 11.2898 92.9428 11.2965C92.6593 11.31 92.423 11.4113 92.234 11.6003C92.045 11.7826 91.9505 12.0222 91.9505 12.3192V15.1848C91.9505 15.2186 91.937 15.249 91.91 15.276C91.8897 15.2962 91.8627 15.3064 91.829 15.3064H90.8974C90.8636 15.3064 90.8333 15.2962 90.8063 15.276C90.786 15.249 90.7759 15.2186 90.7759 15.1848V10.2536C90.7759 10.2198 90.786 10.1928 90.8063 10.1725C90.8333 10.1455 90.8636 10.132 90.8974 10.132H91.829C91.8627 10.132 91.8897 10.1455 91.91 10.1725C91.937 10.1928 91.9505 10.2198 91.9505 10.2536V10.7092C91.9505 10.7362 91.9539 10.7531 91.9606 10.7598C91.9741 10.7598 91.9876 10.7497 92.0011 10.7295C92.2846 10.2907 92.6795 10.0713 93.1858 10.0713Z" fill="white"/>
<path d="M87.7103 8.20801C88.1356 8.20801 88.5103 8.29577 88.8343 8.47128C89.1583 8.6468 89.4081 8.89657 89.5836 9.22059C89.7659 9.53787 89.857 9.90578 89.857 10.3243C89.857 10.7361 89.7659 11.1006 89.5836 11.4179C89.4013 11.7352 89.1414 11.9816 88.8039 12.1571C88.4731 12.3259 88.0884 12.4102 87.6496 12.4102H86.0294C85.9957 12.4102 85.9788 12.4271 85.9788 12.4609V15.1847C85.9788 15.2185 85.9653 15.2489 85.9383 15.2759C85.918 15.2961 85.891 15.3062 85.8573 15.3062H84.9257C84.892 15.3062 84.8616 15.2961 84.8346 15.2759C84.8143 15.2489 84.8042 15.2185 84.8042 15.1847V8.32952C84.8042 8.29577 84.8143 8.26876 84.8346 8.24851C84.8616 8.22151 84.892 8.20801 84.9257 8.20801H87.7103ZM87.5382 11.4584C87.8825 11.4584 88.1592 11.3572 88.3685 11.1546C88.5778 10.9521 88.6824 10.6855 88.6824 10.3547C88.6824 10.0172 88.5778 9.74376 88.3685 9.5345C88.1592 9.32523 87.8825 9.22059 87.5382 9.22059H86.0294C85.9957 9.22059 85.9788 9.23747 85.9788 9.27122V11.4078C85.9788 11.4415 85.9957 11.4584 86.0294 11.4584H87.5382Z" fill="white"/>
</svg>
