<svg width="82" height="16" viewBox="0 0 82 16" fill="none" xmlns="http://www.w3.org/2000/svg">
<path d="M16.5352 0.717529H20.1334L23.7643 7.9888L27.3952 0.717529H31.0343L23.7643 15.2519L16.5352 0.717529Z" fill="white"/>
<path d="M33.7725 0.717529H36.8882V12.1684H45.1559V15.2846H33.707L33.7725 0.717529Z" fill="white"/>
<path d="M61.3743 2.84289C62.062 3.50914 62.6055 4.30955 62.9713 5.19451C63.337 6.07948 63.5172 7.03014 63.5005 7.98758C63.517 8.94379 63.3368 9.89319 62.971 10.7768C62.6052 11.6604 62.0618 12.4594 61.3743 13.1241C60.0099 14.4851 58.1616 15.2495 56.2346 15.2495C54.3076 15.2495 52.4592 14.4851 51.0948 13.1241C50.4089 12.4582 49.8665 11.659 49.5008 10.7757C49.1352 9.89234 48.954 8.94352 48.9686 7.98758C48.9539 7.03041 49.1349 6.08032 49.5005 5.19563C49.8662 4.31094 50.4087 3.51032 51.0948 2.84289C52.4592 1.48185 54.3076 0.717529 56.2346 0.717529C58.1616 0.717529 60.0099 1.48185 61.3743 2.84289ZM56.2386 3.83257C55.698 3.82713 55.1619 3.93162 54.6628 4.13971C54.1638 4.3478 53.7122 4.65514 53.3355 5.04309C52.9407 5.42357 52.6287 5.88148 52.4191 6.38815C52.2094 6.89482 52.1066 7.43933 52.117 7.98758C52.1072 8.53454 52.2103 9.07763 52.42 9.58288C52.6297 10.0881 52.9414 10.5447 53.3355 10.9239C54.1155 11.7001 55.1711 12.1358 56.2714 12.1358C57.3716 12.1358 58.4272 11.7001 59.2072 10.9239C59.5998 10.5435 59.9104 10.0867 60.12 9.58175C60.3295 9.07678 60.4336 8.53427 60.4257 7.98758C60.4342 7.4396 60.3305 6.89567 60.1209 6.38928C59.9114 5.88289 59.6004 5.42476 59.2072 5.04309C58.8226 4.64742 58.3604 4.33562 57.8495 4.12729C57.3386 3.91896 56.7902 3.81862 56.2386 3.83257Z" fill="white"/>
<path d="M79.6839 2.84362C80.3727 3.50946 80.9175 4.30961 81.2846 5.19453C81.6518 6.07946 81.8334 7.03034 81.8183 7.98831C81.8333 8.94504 81.6515 9.89465 81.2844 10.7782C80.9172 11.6618 80.3725 12.4605 79.6839 13.1248C79.0095 13.7995 78.2089 14.3347 77.3277 14.6998C76.4465 15.0649 75.5021 15.2529 74.5483 15.2529C73.5944 15.2529 72.65 15.0649 71.7688 14.6998C70.8876 14.3347 70.087 13.7995 69.4126 13.1248C68.7241 12.4605 68.1793 11.6618 67.8121 10.7782C67.445 9.89465 67.2633 8.94504 67.2782 7.98831C67.2631 7.03034 67.4447 6.07946 67.8119 5.19453C68.179 4.30961 68.7238 3.50946 69.4126 2.84362C70.087 2.16896 70.8876 1.63378 71.7688 1.26864C72.65 0.90351 73.5944 0.715576 74.5483 0.715576C75.5021 0.715576 76.4465 0.90351 77.3277 1.26864C78.2089 1.63378 79.0095 2.16896 79.6839 2.84362ZM74.5483 3.83329C74.0022 3.82386 73.46 3.9264 72.9551 4.1346C72.4501 4.34279 71.9932 4.65222 71.6124 5.04381C71.2192 5.42548 70.9082 5.88361 70.6987 6.39C70.4891 6.89639 70.3854 7.44032 70.3939 7.98831C70.3861 8.53499 70.4901 9.0775 70.6996 9.58248C70.9092 10.0874 71.2198 10.5442 71.6124 10.9246C72.3924 11.7008 73.448 12.1365 74.5483 12.1365C75.6485 12.1365 76.7041 11.7008 77.4841 10.9246C77.8737 10.5428 78.1813 10.0854 78.388 9.58052C78.5948 9.07561 78.6962 8.53381 78.6862 7.98831C78.6947 7.44032 78.591 6.89639 78.3815 6.39C78.1719 5.88361 77.861 5.42548 77.4677 5.04381C77.0891 4.65385 76.6349 4.34534 76.1329 4.13719C75.6309 3.92903 75.0916 3.82562 74.5483 3.83329Z" fill="white"/>
<path d="M6.8364 0.717529L0.179688 7.10545V15.2846H12.9207V7.02366L6.8364 0.717529ZM6.55017 13.6979C5.71144 13.6946 4.89247 13.4429 4.19666 12.9745C3.50085 12.5061 2.9594 11.842 2.64066 11.0661C2.32193 10.2901 2.24021 9.4371 2.40582 8.61474C2.57143 7.79237 2.97694 7.03752 3.57116 6.44548C4.16537 5.85344 4.92165 5.45077 5.74451 5.2883C6.56737 5.12583 7.41991 5.21084 8.19449 5.53261C8.96908 5.85438 9.63098 6.39847 10.0966 7.09619C10.5623 7.79392 10.8108 8.61399 10.8108 9.45287C10.8108 10.0117 10.7005 10.5651 10.4862 11.0811C10.2718 11.5972 9.95775 12.0659 9.5619 12.4603C9.16605 12.8547 8.69623 13.1671 8.17941 13.3794C7.66258 13.5918 7.10891 13.7 6.55017 13.6979Z" fill="white"/>
<path d="M6.55117 6.44189C5.95273 6.44189 5.36772 6.61938 4.87014 6.95192C4.37255 7.28445 3.98473 7.75709 3.75572 8.31007C3.5267 8.86305 3.46678 9.47154 3.58353 10.0586C3.70028 10.6456 3.98846 11.1849 4.41162 11.6081C4.83478 12.0313 5.37393 12.3196 5.96087 12.4363C6.54781 12.5531 7.15619 12.4932 7.70908 12.2641C8.26197 12.0351 8.73453 11.6472 9.06701 11.1495C9.39949 10.6518 9.57694 10.0667 9.57694 9.46818C9.57694 8.66556 9.25816 7.89581 8.69071 7.32827C8.12327 6.76073 7.35365 6.44189 6.55117 6.44189ZM6.55117 11.1613C6.21602 11.1629 5.88793 11.065 5.60848 10.8799C5.32903 10.6949 5.11079 10.431 4.98141 10.1218C4.85203 9.81256 4.81734 9.47189 4.88173 9.14292C4.94612 8.81396 5.10669 8.51151 5.34311 8.27391C5.57952 8.03631 5.88113 7.87425 6.20972 7.80825C6.53831 7.74226 6.8791 7.77531 7.18889 7.90321C7.49869 8.03111 7.76355 8.24811 7.94992 8.52671C8.13629 8.80531 8.23579 9.13298 8.23579 9.46818C8.2315 9.91296 8.05238 10.3382 7.73714 10.6519C7.42191 10.9657 6.99589 11.1428 6.55117 11.1449V11.1613Z" fill="white"/>
</svg>
