<svg width="113" height="119" viewBox="0 0 113 119" fill="none" xmlns="http://www.w3.org/2000/svg">
<path d="M112.068 11.631V25.6618H0.929688V11.631C0.929688 8.67715 3.32969 6.09253 6.46815 6.09253H21.2374V15.6925C21.2374 18.6464 23.6374 21.231 26.7758 21.231C29.9143 21.231 32.3143 18.6464 32.3143 15.6925V6.09253H80.4989V15.6925C80.4989 18.6464 82.8989 21.231 86.0374 21.231C88.9912 21.231 91.5758 18.6464 91.5758 15.6925V6.09253H106.345C109.484 6.09253 112.068 8.49253 112.068 11.631Z" fill="#00A481"/>
<path d="M0.929688 29.1694V92.1233C0.929688 95.2617 3.32969 97.6618 6.46815 97.6618H29.7297L27.8835 95.4464C23.822 90.4618 24.3758 82.8925 29.5451 78.6464C33.0528 75.5079 38.5912 74.9541 43.2066 77.5387V57.231C43.2066 51.3233 47.822 46.154 54.2835 46.154C60.3758 46.154 65.1758 50.9541 65.1758 57.0464V67.9387C67.022 67.9387 68.8681 68.4925 70.3451 69.4156C75.1451 66.6464 80.8681 67.9387 84.1912 72.0002C90.8374 70.5233 97.4835 75.5079 97.4835 82.7079V98.031H106.714C109.853 98.031 112.253 95.631 112.253 92.4925V29.1694H0.929688ZM18.6528 71.631H14.9605C13.8528 71.631 13.1143 70.8925 13.1143 69.7848C13.1143 68.6771 13.8528 67.9387 14.9605 67.9387H18.6528C19.7605 67.9387 20.4989 68.6771 20.4989 69.7848C20.4989 70.8925 19.7605 71.631 18.6528 71.631ZM18.6528 56.8617H14.9605C13.8528 56.8617 13.1143 56.1233 13.1143 55.0156C13.1143 53.9079 13.8528 53.1694 14.9605 53.1694H18.6528C19.7605 53.1694 20.4989 53.9079 20.4989 55.0156C20.4989 56.1233 19.7605 56.8617 18.6528 56.8617ZM18.6528 42.0925H14.9605C13.8528 42.0925 13.1143 41.354 13.1143 40.2464C13.1143 39.1387 13.8528 38.4002 14.9605 38.4002H18.6528C19.7605 38.4002 20.4989 39.1387 20.4989 40.2464C20.4989 41.354 19.7605 42.0925 18.6528 42.0925ZM38.5912 71.631H34.8989C33.9758 71.631 33.0528 70.8925 33.0528 69.7848C33.0528 68.6771 33.9758 67.9387 34.8989 67.9387H38.5912C39.5143 67.9387 40.4374 68.6771 40.4374 69.7848C40.4374 70.8925 39.5143 71.631 38.5912 71.631ZM38.5912 56.8617H34.8989C33.9758 56.8617 33.0528 56.1233 33.0528 55.0156C33.0528 53.9079 33.9758 53.1694 34.8989 53.1694H38.5912C39.5143 53.1694 40.4374 53.9079 40.4374 55.0156C40.4374 56.1233 39.5143 56.8617 38.5912 56.8617ZM38.5912 42.0925H34.8989C33.9758 42.0925 33.0528 41.354 33.0528 40.2464C33.0528 39.1387 33.9758 38.4002 34.8989 38.4002H38.5912C39.5143 38.4002 40.4374 39.1387 40.4374 40.2464C40.4374 41.354 39.5143 42.0925 38.5912 42.0925ZM58.3451 42.0925H54.6528C53.7297 42.0925 52.8066 41.354 52.8066 40.2464C52.8066 39.1387 53.7297 38.4002 54.6528 38.4002H58.3451C59.4528 38.4002 60.1912 39.1387 60.1912 40.2464C60.1912 41.354 59.4528 42.0925 58.3451 42.0925ZM78.0989 56.8617H74.4066C73.2989 56.8617 72.5605 56.1233 72.5605 55.0156C72.5605 53.9079 73.2989 53.1694 74.4066 53.1694H78.0989C79.022 53.1694 79.9451 53.9079 79.9451 55.0156C79.9451 56.1233 79.2066 56.8617 78.0989 56.8617ZM78.0989 42.0925H74.4066C73.2989 42.0925 72.5605 41.354 72.5605 40.2464C72.5605 39.1387 73.2989 38.4002 74.4066 38.4002H78.0989C79.022 38.4002 79.9451 39.1387 79.9451 40.2464C79.9451 41.354 79.2066 42.0925 78.0989 42.0925ZM98.0374 71.631H94.3451C93.2374 71.631 92.4989 70.8925 92.4989 69.7848C92.4989 68.6771 93.2374 67.9387 94.3451 67.9387H98.0374C98.9605 67.9387 99.8835 68.6771 99.8835 69.7848C99.8835 70.8925 98.9605 71.631 98.0374 71.631ZM98.0374 56.8617H94.3451C93.2374 56.8617 92.4989 56.1233 92.4989 55.0156C92.4989 53.9079 93.2374 53.1694 94.3451 53.1694H98.0374C98.9605 53.1694 99.8835 53.9079 99.8835 55.0156C99.8835 56.1233 98.9605 56.8617 98.0374 56.8617ZM98.0374 42.0925H94.3451C93.2374 42.0925 92.4989 41.354 92.4989 40.2464C92.4989 39.1387 93.2374 38.4002 94.3451 38.4002H98.0374C98.9605 38.4002 99.8835 39.1387 99.8835 40.2464C99.8835 41.354 98.9605 42.0925 98.0374 42.0925Z" fill="#006988"/>
<path d="M82.3436 76.2461C80.4975 70.8923 73.6667 69.7846 70.159 73.8461C67.9436 71.2615 64.2513 70.7077 61.2975 72.3692V56.8615C61.2975 52.8 57.7898 49.2923 53.5436 49.6615C49.6667 49.8461 46.7129 53.1692 46.7129 57.0461V86.4L43.3898 82.3384C40.4359 78.6461 35.0821 78.4615 31.759 81.2307C28.2513 84.1846 27.6975 89.3538 30.6513 92.8615L44.4975 109.662C46.8975 112.431 46.7129 115.015 46.7129 116.308V117.231C46.8975 118.154 47.6359 118.892 48.559 118.892C62.5898 118.708 85.1129 118.523 87.8821 118.892H88.4359C88.9898 118.892 89.359 118.708 89.7283 118.338C89.9129 118.154 90.0975 117.785 90.2821 117.6C90.6513 116.492 91.0206 115.569 91.5744 114.646C92.4975 112.8 93.6052 110.769 93.6052 107.631V82.3384C93.4206 76.4307 87.1436 73.1077 82.3436 76.2461ZM83.4513 111.877C83.2667 112.615 82.5283 113.169 81.6052 113.169C81.4206 113.169 81.2359 113.169 81.0513 113.169C80.1283 112.8 79.5744 111.877 79.9436 110.769C81.4206 106.154 81.0513 100.985 80.8667 96C80.8667 95.0769 81.6052 94.1538 82.5283 93.9692C83.4513 93.9692 84.3744 94.7077 84.559 95.6307C84.9283 101.169 85.2975 106.523 83.4513 111.877Z" fill="#006988"/>
<path d="M26.9555 17.3541C25.8478 17.3541 25.1094 16.6156 25.1094 15.508V2.76949C25.1094 1.6618 25.8478 0.92334 26.9555 0.92334C28.0632 0.92334 28.8017 1.6618 28.8017 2.76949V15.508C28.8017 16.6156 27.8786 17.3541 26.9555 17.3541Z" fill="#00A481"/>
<path d="M86.0297 17.3541C84.9221 17.3541 84.1836 16.6156 84.1836 15.508V2.76949C84.1836 1.6618 84.9221 0.92334 86.0297 0.92334C87.1374 0.92334 87.8759 1.6618 87.8759 2.76949V15.508C87.8759 16.6156 87.1374 17.3541 86.0297 17.3541Z" fill="#00A481"/>
</svg>
