<svg width="120" height="120" viewBox="0 0 120 120" fill="none" xmlns="http://www.w3.org/2000/svg">
<g clip-path="url(#clip0_4721_4520)">
<path d="M101.945 68.1348C101.945 65.1111 99.4848 62.6511 96.4611 62.6511C93.4374 62.6511 90.9774 65.1111 90.9774 68.1348V72.9214H72.9219V84.1473C78.7552 85.2081 83.1922 90.3261 83.1922 96.4607C83.1922 102.595 78.755 107.713 72.9219 108.774V120H120V72.9214H101.945V68.1348Z" fill="#00A481"/>
<path d="M103.639 18.8121V14.1349C103.639 10.5281 100.715 7.604 97.1077 7.604C93.5009 7.604 90.5769 10.5278 90.5769 14.1349V18.8111C87.9404 18.8062 73.1016 18.7792 72.9219 18.8118V34.5984H76.8052C80.412 34.5984 83.3361 37.5222 83.3361 41.1292C83.3361 44.736 80.4123 47.6601 76.8052 47.6601H72.9219V65.8903H84.1477C85.2085 60.0569 90.3266 55.6199 96.4611 55.6199C102.596 55.6199 107.714 60.0569 108.774 65.8903H120.001V18.8121H103.639Z" fill="#00A481"/>
<path d="M76.0636 96.4606C76.0636 93.4369 73.6036 90.9769 70.5799 90.9769H65.8917H65.7935V72.9214H49.4728V76.9276C49.4728 80.5344 46.549 83.4584 42.942 83.4584C39.3352 83.4584 36.4111 80.5346 36.4111 76.9276V72.9214H18.7148V120H65.7933V101.944H65.8915H70.5797C73.6036 101.944 76.0636 99.4845 76.0636 96.4606Z" fill="#00A481"/>
<g filter="url(#filter0_d_4721_4520)">
<path d="M24.7357 60.412C28.3425 60.412 31.2666 57.4882 31.2666 53.8812V49.4712H49.4714V30.784H44.0173C40.4105 30.784 37.4864 27.8601 37.4864 24.2531C37.4864 20.6461 40.4102 17.7223 44.0173 17.7223H49.4714V-0.000244141L0 -9.7656e-06V49.4712H18.2048V53.8812C18.2048 57.4882 21.1289 60.412 24.7357 60.412Z" fill="#006988"/>
</g>
</g>
<defs>
<filter id="filter0_d_4721_4520" x="0" y="-0.000244141" width="52.4727" height="63.4124" filterUnits="userSpaceOnUse" color-interpolation-filters="sRGB">
<feFlood flood-opacity="0" result="BackgroundImageFix"/>
<feColorMatrix in="SourceAlpha" type="matrix" values="0 0 0 0 0 0 0 0 0 0 0 0 0 0 0 0 0 0 127 0" result="hardAlpha"/>
<feOffset dx="2" dy="2"/>
<feGaussianBlur stdDeviation="0.5"/>
<feComposite in2="hardAlpha" operator="out"/>
<feColorMatrix type="matrix" values="0 0 0 0 0 0 0 0 0 0 0 0 0 0 0 0 0 0 0.25 0"/>
<feBlend mode="normal" in2="BackgroundImageFix" result="effect1_dropShadow_4721_4520"/>
<feBlend mode="normal" in="SourceGraphic" in2="effect1_dropShadow_4721_4520" result="shape"/>
</filter>
<clipPath id="clip0_4721_4520">
<rect width="120" height="120" fill="white"/>
</clipPath>
</defs>
</svg>
