<svg width="120" height="120" viewBox="0 0 120 120" fill="none" xmlns="http://www.w3.org/2000/svg">
<path d="M78.9294 102.57C77.4349 103.137 75.8953 103.589 74.2879 103.974L72.2048 111.831C71.9784 112.623 71.2765 113.167 70.4388 113.167H65.1406C65.2765 112.918 65.3671 112.668 65.435 112.397L67.1784 105.831C70.7331 104.857 74.152 103.476 77.3444 101.642L78.9294 102.57Z" fill="#006988"/>
<path d="M78.9739 24.0271L77.3663 24.9553C74.1738 23.1214 70.755 21.7176 67.1776 20.744L65.4342 14.2006C65.3663 13.9289 65.2757 13.6572 65.1172 13.4082H70.438C71.2758 13.4082 71.9776 13.9742 72.204 14.7666L74.2871 22.6233C75.8946 22.9855 77.4568 23.461 78.9739 24.0271Z" fill="#006988"/>
<path d="M114.34 57.3329V69.2649C114.34 70.1026 113.796 70.8045 112.981 71.031L105.147 73.114C104.128 77.4384 102.43 81.4687 100.189 85.1366L104.241 92.1329C104.626 92.8348 104.536 93.7403 103.947 94.329L95.5018 102.774C94.9131 103.363 94.0074 103.454 93.3055 103.069L90.8828 101.665L96.6338 95.8913C97.9018 94.5781 98.1508 92.6309 97.2677 91.0008L93.8715 85.1366C95.6828 81.9442 97.0867 78.5253 98.0603 74.9706L104.604 73.2271C106.392 72.7518 107.638 71.1215 107.638 69.2649V57.3329C107.638 55.4763 106.438 53.8687 104.604 53.348L98.0603 51.6272C97.0867 48.0725 95.6828 44.6536 93.8715 41.4385L97.2904 35.5291C98.1508 33.8989 97.8791 31.9517 96.6112 30.6611L90.8828 24.9328L93.3055 23.5517C94.0074 23.1215 94.9131 23.2121 95.5018 23.8234L103.947 32.2687C104.536 32.8573 104.626 33.7403 104.241 34.4649L100.189 41.4385C102.43 45.1291 104.128 49.1592 105.147 53.4838L112.981 55.5668C113.796 55.7706 114.34 56.495 114.34 57.3329Z" fill="#006988"/>
<path d="M55.509 33.4299C39.0342 33.4299 25.6328 46.8313 25.6328 63.3039C25.6328 69.517 27.5343 75.4803 31.1318 80.5504C36.728 88.4594 45.8421 93.1801 55.509 93.1801C65.1759 93.1801 74.2877 88.4594 79.884 80.5504C83.4814 75.4803 85.383 69.517 85.383 63.3039C85.383 46.8313 71.9816 33.4299 55.509 33.4299ZM75.0041 59.0078C75.6299 59.0078 76.1362 59.5141 76.1362 60.1398C76.1362 60.7656 75.6299 61.2719 75.0041 61.2719H71.5924V65.3381H75.0041C75.6299 65.3381 76.1362 65.8444 76.1362 66.4702C76.1362 67.0959 75.6299 67.6022 75.0041 67.6022H71.5924V71.6706H75.0041C75.6299 71.6706 76.1362 72.177 76.1362 72.8027C76.1362 73.4285 75.6299 73.9348 75.0041 73.9348H71.5924V74.4787C71.5924 77.1785 69.3835 79.3763 66.6705 79.3763H66.1377V82.8012C66.1377 83.427 65.6313 83.9333 65.0056 83.9333C64.3799 83.9333 63.8735 83.427 63.8735 82.8012V79.3763H59.8051V82.8012C59.8051 83.427 59.2988 83.9333 58.6731 83.9333C58.0473 83.9333 57.541 83.427 57.541 82.8012V79.3763H53.4748V82.8012C53.4748 83.427 52.9685 83.9333 52.3427 83.9333C51.717 83.9333 51.2106 83.427 51.2106 82.8012V79.3763H47.1422V82.8012C47.1422 83.427 46.6359 83.9333 46.0102 83.9333C45.3844 83.9333 44.8781 83.427 44.8781 82.8012V79.3763H44.3209C41.6212 79.3763 39.4233 77.1785 39.4233 74.4787V73.9348H36.0116C35.3859 73.9348 34.8796 73.4285 34.8796 72.8027C34.8796 72.177 35.3859 71.6706 36.0116 71.6706H39.4233V67.6022H36.0116C35.3859 67.6022 34.8796 67.0959 34.8796 66.4702C34.8796 65.8444 35.3859 65.3381 36.0116 65.3381H39.4233V61.2719H36.0116C35.3859 61.2719 34.8796 60.7656 34.8796 60.1398C34.8796 59.5141 35.3859 59.0078 36.0116 59.0078H39.4233V54.9394H36.0116C35.3859 54.9394 34.8796 54.433 34.8796 53.8073C34.8796 53.1816 35.3859 52.6752 36.0116 52.6752H39.4233V52.1313C39.4233 49.4316 41.6212 47.2337 44.3209 47.2337H44.8781V43.8088C44.8781 43.183 45.3844 42.6767 46.0102 42.6767C46.6359 42.6767 47.1422 43.183 47.1422 43.8088V47.2337H51.2106V43.8088C51.2106 43.183 51.717 42.6767 52.3427 42.6767C52.9685 42.6767 53.4748 43.183 53.4748 43.8088V47.2337H57.541V43.8088C57.541 43.183 58.0473 42.6767 58.6731 42.6767C59.2988 42.6767 59.8051 43.183 59.8051 43.8088V47.2337H63.8735V43.8088C63.8735 43.183 64.3799 42.6767 65.0056 42.6767C65.6313 42.6767 66.1377 43.183 66.1377 43.8088V47.2337H66.6705C69.3835 47.2337 71.5924 49.4316 71.5924 52.1313V52.6752H75.0041C75.6299 52.6752 76.1362 53.1816 76.1362 53.8073C76.1362 54.433 75.6299 54.9394 75.0041 54.9394H71.5924V59.0078H75.0041Z" fill="#00A481"/>
<path d="M61.5427 56.7834H49.4768C49.2092 56.7834 48.9727 57.0178 48.9727 57.2854V69.3269C48.9727 69.5945 49.2092 69.8311 49.4768 69.8311H61.5427C61.8213 69.8311 62.0468 69.6055 62.0468 69.3269V57.2854C62.0468 57.009 61.8213 56.7834 61.5427 56.7834Z" fill="#006988"/>
<path d="M69.315 72.8026C69.315 72.7793 69.3269 72.7598 69.3283 72.7369V66.5359C69.3269 66.5129 69.315 66.4934 69.315 66.4701C69.315 66.4467 69.3269 66.4272 69.3283 66.4043V60.2055C69.3269 60.1826 69.315 60.1631 69.315 60.1398C69.315 60.1164 69.3269 60.0969 69.3283 60.074V53.873C69.3269 53.85 69.315 53.8306 69.315 53.8072C69.315 53.7839 69.3269 53.7644 69.3283 53.7414V52.1312C69.3283 50.6785 68.1365 49.4978 66.6705 49.4978H44.3209C42.8682 49.4978 41.6875 50.6785 41.6875 52.1312V53.7414C41.6889 53.7644 41.7008 53.7839 41.7008 53.8072C41.7008 53.8306 41.6889 53.85 41.6875 53.873V60.074C41.6889 60.0969 41.7008 60.1164 41.7008 60.1398C41.7008 60.1631 41.6889 60.1826 41.6875 60.2055V66.4043C41.6889 66.4272 41.7008 66.4467 41.7008 66.4701C41.7008 66.4934 41.6889 66.5129 41.6875 66.5359V72.7369C41.6889 72.7598 41.7008 72.7793 41.7008 72.8026C41.7008 72.826 41.6889 72.8455 41.6875 72.8684V74.4786C41.6875 75.9313 42.8682 77.112 44.3209 77.112H66.6705C68.1365 77.112 69.3283 75.9313 69.3283 74.4786V72.8684C69.3269 72.8455 69.315 72.826 69.315 72.8026ZM64.3091 69.3268C64.3091 70.8525 63.0665 72.0951 61.5408 72.0951H49.4749C47.9493 72.0951 46.7067 70.8525 46.7067 69.3268V57.2852C46.7067 55.7596 47.9493 54.5192 49.4749 54.5192H61.5408C63.0665 54.5192 64.3091 55.7596 64.3091 57.2852V69.3268Z" fill="#006988"/>
<path d="M104.037 55.5438L96.1809 53.4835C95.162 49.1362 93.4865 45.1288 91.245 41.4609L95.2978 34.4646C95.6827 33.74 95.5922 32.857 95.0035 32.2684L88.845 26.1099L86.5582 23.823C85.9469 23.2118 85.0639 23.1212 84.3167 23.5287L81.6224 25.091L77.3431 27.5816C73.6752 25.3175 69.6676 23.642 65.3205 22.6004L63.2375 14.7664C63.0337 13.974 62.3318 13.4307 61.4941 13.4307H49.5394C48.7016 13.4307 47.9997 13.974 47.7733 14.7664L45.713 22.6004C41.3657 23.642 37.3583 25.3175 33.645 27.5816L26.6714 23.5287C25.9695 23.1212 25.0865 23.2118 24.4752 23.823L16.0299 32.2684C15.4413 32.857 15.3507 33.74 15.7582 34.4646L19.7884 41.4609C17.5469 45.1288 15.8488 49.1362 14.8299 53.4835L6.99593 55.5438C6.20353 55.7703 5.66016 56.4722 5.66016 57.3326V69.2646C5.66016 70.1023 6.20353 70.8268 6.99593 71.0307L14.8299 73.1136C15.8488 77.4381 17.5469 81.4684 19.7884 85.1363L15.7355 92.1326C15.3507 92.8344 15.4413 93.7174 16.0299 94.3287L24.4752 102.774C25.0865 103.385 25.9695 103.453 26.6714 103.068L33.645 99.0155C37.3583 101.257 41.3657 102.932 45.713 103.951L47.7733 111.808C47.9997 112.646 48.7016 113.189 49.5394 113.189H61.4941C61.6072 113.189 61.6979 113.189 61.8111 113.166C62.4903 113.053 63.0563 112.532 63.2375 111.808L65.3205 103.951C69.6676 102.932 73.6752 101.257 77.3431 99.0155L81.5997 101.484L81.6224 101.506L84.3167 103.068C85.0639 103.453 85.9469 103.385 86.5582 102.774L88.845 100.487L95.0035 94.3287C95.5922 93.7174 95.6827 92.8344 95.2978 92.1326L91.245 85.1363C93.4865 81.4684 95.162 77.4381 96.1809 73.1136L104.037 71.0307C104.83 70.8268 105.373 70.1023 105.373 69.2646V57.3326C105.373 56.4722 104.83 55.7703 104.037 55.5438ZM81.7324 81.8593C75.7116 90.3654 65.9077 95.4442 55.5089 95.4442C45.108 95.4442 35.304 90.3654 29.2833 81.8593C25.4139 76.4046 23.3686 69.988 23.3686 63.3039C23.3686 45.5821 37.7871 31.1658 55.5089 31.1658C73.2308 31.1658 87.647 45.5821 87.647 63.3039C87.647 69.988 85.6018 76.4046 81.7324 81.8593Z" fill="#00A481"/>
<path d="M19.0852 13.3512C18.7955 13.3512 18.5059 13.2406 18.2848 13.0195L14.8068 9.54369L11.3309 13.0195C10.8887 13.4617 10.1723 13.4617 9.7301 13.0195C9.28788 12.5773 9.28788 11.8609 9.7301 11.4187L14.0063 7.14245C14.4486 6.70024 15.1649 6.70024 15.6072 7.14245L19.8856 11.4187C20.3278 11.8609 20.3278 12.5773 19.8856 13.0195C19.6645 13.2406 19.3749 13.3512 19.0852 13.3512Z" fill="#00A481"/>
<path d="M14.8079 23.887C14.1821 23.887 13.6758 23.3807 13.6758 22.755V8.67919C13.6758 8.05346 14.1821 7.54712 14.8079 7.54712C15.4336 7.54712 15.9399 8.05346 15.9399 8.67919V22.755C15.9399 23.3807 15.4336 23.887 14.8079 23.887Z" fill="#00A481"/>
<path d="M19.0852 13.3512C18.7955 13.3512 18.5059 13.2406 18.2848 13.0195L14.8068 9.54369L11.3309 13.0195C10.8887 13.4617 10.1723 13.4617 9.7301 13.0195C9.28788 12.5773 9.28788 11.8609 9.7301 11.4187L14.0063 7.14245C14.4486 6.70024 15.1649 6.70024 15.6072 7.14245L19.8856 11.4187C20.3278 11.8609 20.3278 12.5773 19.8856 13.0195C19.6645 13.2406 19.3749 13.3512 19.0852 13.3512Z" fill="#00A481"/>
<path d="M14.8079 23.887C14.1821 23.887 13.6758 23.3807 13.6758 22.755V8.67919C13.6758 8.05346 14.1821 7.54712 14.8079 7.54712C15.4336 7.54712 15.9399 8.05346 15.9399 8.67919V22.755C15.9399 23.3807 15.4336 23.887 14.8079 23.887Z" fill="#00A481"/>
<path d="M109.462 15.4894C109.172 15.4894 108.883 15.3788 108.661 15.1577L105.186 11.6819L101.71 15.1577C101.268 15.5999 100.551 15.5999 100.109 15.1577C99.6668 14.7155 99.6668 13.9991 100.109 13.5569L104.385 9.28064C104.827 8.83842 105.544 8.83842 105.986 9.28064L110.262 13.5569C110.705 13.9991 110.705 14.7155 110.262 15.1577C110.041 15.3788 109.752 15.4894 109.462 15.4894Z" fill="#00A481"/>
<path d="M105.187 26.0252C104.561 26.0252 104.055 25.5189 104.055 24.8931V10.8196C104.055 10.1938 104.561 9.6875 105.187 9.6875C105.813 9.6875 106.319 10.1938 106.319 10.8196V24.8931C106.319 25.5189 105.812 26.0252 105.187 26.0252Z" fill="#00A481"/>
<path d="M109.462 15.4894C109.172 15.4894 108.883 15.3788 108.661 15.1577L105.186 11.6819L101.71 15.1577C101.268 15.5999 100.551 15.5999 100.109 15.1577C99.6668 14.7155 99.6668 13.9991 100.109 13.5569L104.385 9.28064C104.827 8.83842 105.544 8.83842 105.986 9.28064L110.262 13.5569C110.705 13.9991 110.705 14.7155 110.262 15.1577C110.041 15.3788 109.752 15.4894 109.462 15.4894Z" fill="#00A481"/>
<path d="M105.187 26.0252C104.561 26.0252 104.055 25.5189 104.055 24.8931V10.8196C104.055 10.1938 104.561 9.6875 105.187 9.6875C105.813 9.6875 106.319 10.1938 106.319 10.8196V24.8931C106.319 25.5189 105.812 26.0252 105.187 26.0252Z" fill="#00A481"/>
</svg>
