<svg width="120" height="120" viewBox="0 0 120 120" fill="none" xmlns="http://www.w3.org/2000/svg">
<path d="M72.4062 34.1098C59.9733 21.1894 54.4413 13.9696 52.0035 9.97534C49.5657 13.9696 44.0337 21.1894 31.6007 34.1098C26.3569 39.2819 21.7488 45.061 17.8739 51.3246C14.8691 56.4952 12.9976 62.2453 12.3834 68.1939C11.7691 74.1425 12.4262 80.1537 14.311 85.8292C16.0064 91.0447 18.8025 95.8351 22.5103 99.8761C26.218 103.917 30.7506 107.114 35.8013 109.251C40.9338 111.396 46.441 112.5 52.0035 112.5C57.5661 112.5 63.0732 111.396 68.2057 109.251C73.2564 107.114 77.7891 103.917 81.4967 99.8761C85.2044 95.8351 88.0006 91.0447 89.696 85.8292C91.5808 80.1537 92.2378 74.1425 91.6236 68.1939C91.0093 62.2453 89.1378 56.4952 86.1331 51.3246C82.2582 45.061 77.65 39.2819 72.4062 34.1098ZM39.7768 79.0033C39.7744 78.7564 39.8212 78.5115 39.9146 78.2828C40.008 78.0542 40.146 77.8465 40.3206 77.6719C40.4953 77.4973 40.703 77.3593 40.9316 77.2659C41.1602 77.1725 41.4051 77.1257 41.6521 77.1281H50.1282V67.9205H48.1217C47.0248 67.9222 45.9383 67.7075 44.9244 67.2889C43.9105 66.8703 42.9891 66.2559 42.2129 65.4808C41.4367 64.7058 40.8209 63.7853 40.4008 62.772C39.9806 61.7588 39.7643 60.6726 39.7643 59.5757C39.7643 58.4788 39.9806 57.3926 40.4008 56.3794C40.8209 55.3661 41.4367 54.4456 42.2129 53.6706C42.9891 52.8955 43.9105 52.2811 44.9244 51.8625C45.9383 51.4439 47.0248 51.2292 48.1217 51.2309H50.1282V47.9304C50.1298 47.4341 50.3281 46.9586 50.6796 46.6082C51.0311 46.2578 51.5071 46.0611 52.0035 46.0611C52.4998 46.0611 52.9759 46.2578 53.3274 46.6082C53.6789 46.9586 53.8772 47.4341 53.8787 47.9304V51.2309H62.3549C62.8512 51.2324 63.3267 51.4307 63.6771 51.7822C64.0275 52.1337 64.2242 52.6098 64.2242 53.1061C64.2242 53.6024 64.0275 54.0785 63.6771 54.43C63.3267 54.7815 62.8512 54.9798 62.3549 54.9814H53.8787V64.17H55.8853C58.0988 64.1733 60.2205 65.055 61.7845 66.6213C63.3486 68.1877 64.227 70.3108 64.227 72.5243C64.227 74.7378 63.3486 76.8609 61.7845 78.4272C60.2205 79.9936 58.0988 80.8752 55.8853 80.8786H53.8787V84.179C53.8772 84.6753 53.6789 85.1508 53.3274 85.5012C52.9759 85.8516 52.4998 86.0484 52.0035 86.0484C51.5071 86.0484 51.0311 85.8516 50.6796 85.5012C50.3281 85.1508 50.1298 84.6753 50.1282 84.179V80.8786H41.6521C41.4056 80.8794 41.1613 80.8315 40.9334 80.7376C40.7055 80.6436 40.4984 80.5055 40.3241 80.3312C40.1498 80.1569 40.0117 79.9499 39.9178 79.722C39.8239 79.4941 39.7759 79.2498 39.7768 79.0033ZM83.0576 88.4358C79.4191 95.1627 73.5896 100.443 66.5367 103.4C61.9388 105.344 56.9955 106.339 52.0035 106.326C51.5062 106.326 51.0292 106.128 50.6775 105.776C50.3259 105.425 50.1283 104.948 50.1283 104.45C50.1283 103.953 50.3259 103.476 50.6775 103.124C51.0292 102.773 51.5062 102.575 52.0035 102.575C56.4923 102.585 60.9372 101.692 65.074 99.9498C71.3453 97.3189 76.527 92.6204 79.7572 86.6356C79.8754 86.4189 80.0352 86.2276 80.2273 86.0726C80.4194 85.9176 80.6402 85.802 80.877 85.7324C81.1139 85.6627 81.3621 85.6404 81.6075 85.6666C81.853 85.6929 82.0908 85.7673 82.3075 85.8855C82.5243 86.0037 82.7156 86.1634 82.8705 86.3555C83.0255 86.5477 83.1412 86.7684 83.2108 87.0053C83.2805 87.2421 83.3028 87.4903 83.2765 87.7357C83.2502 87.9812 83.1758 88.2191 83.0576 88.4358Z" fill="#00A481"/>
<path d="M50.1297 54.9815H48.1231C47.519 54.9802 46.9206 55.0982 46.3621 55.3285C45.8036 55.5588 45.2961 55.8971 44.8685 56.3238C44.4409 56.7506 44.1016 57.2574 43.8701 57.8155C43.6387 58.3735 43.5195 58.9717 43.5195 59.5758C43.5195 60.1799 43.6387 60.7781 43.8701 61.3361C44.1016 61.8941 44.4409 62.401 44.8685 62.8277C45.2961 63.2545 45.8036 63.5927 46.3621 63.823C46.9206 64.0534 47.519 64.1713 48.1231 64.1701H50.1297V54.9815Z" fill="#00A481"/>
<path d="M60.4798 72.5148C60.4778 71.2969 59.9931 70.1295 59.132 69.2683C58.2708 68.4071 57.1033 67.9224 55.8854 67.9204H53.8789V77.128H55.8854C57.1063 77.1249 58.2759 76.6373 59.1374 75.7723C59.9989 74.9073 60.4818 73.7356 60.4798 72.5148Z" fill="#00A481"/>
<g filter="url(#filter0_d_4721_4527)">
<path d="M107.379 20.1767L96.6521 8.1375C96.4804 7.93753 96.2675 7.77704 96.028 7.66701C95.7885 7.55698 95.528 7.50001 95.2645 7.5H95.2457C94.984 7.50071 94.7254 7.55612 94.4865 7.66268C94.2475 7.76924 94.0334 7.92458 93.858 8.11875L82.9065 20.1767C82.662 20.4427 82.5013 20.775 82.4446 21.1319C82.3879 21.4887 82.4377 21.8544 82.5878 22.1831C82.7311 22.517 82.9691 22.8015 83.2723 23.0015C83.5756 23.2014 83.9309 23.3081 84.2942 23.3083H88.026V37.504C88.0252 37.7505 88.0731 37.9947 88.167 38.2226C88.261 38.4505 88.3991 38.6576 88.5734 38.8319C88.7477 39.0062 88.9547 39.1443 89.1826 39.2382C89.4105 39.3322 89.6548 39.3801 89.9013 39.3792H100.609C101.106 39.3778 101.582 39.1797 101.933 38.8284C102.285 38.477 102.483 38.0009 102.484 37.504V23.3083H105.972C106.333 23.3081 106.686 23.2035 106.989 23.0072C107.292 22.8109 107.531 22.5312 107.679 22.2019C107.826 21.8708 107.877 21.5043 107.824 21.1456C107.771 20.7869 107.616 20.4507 107.379 20.1767Z" fill="#006988"/>
</g>
<defs>
<filter id="filter0_d_4721_4527" x="82.4219" y="7.5" width="28.4219" height="34.8792" filterUnits="userSpaceOnUse" color-interpolation-filters="sRGB">
<feFlood flood-opacity="0" result="BackgroundImageFix"/>
<feColorMatrix in="SourceAlpha" type="matrix" values="0 0 0 0 0 0 0 0 0 0 0 0 0 0 0 0 0 0 127 0" result="hardAlpha"/>
<feOffset dx="2" dy="2"/>
<feGaussianBlur stdDeviation="0.5"/>
<feComposite in2="hardAlpha" operator="out"/>
<feColorMatrix type="matrix" values="0 0 0 0 0 0 0 0 0 0 0 0 0 0 0 0 0 0 0.25 0"/>
<feBlend mode="normal" in2="BackgroundImageFix" result="effect1_dropShadow_4721_4527"/>
<feBlend mode="normal" in="SourceGraphic" in2="effect1_dropShadow_4721_4527" result="shape"/>
</filter>
</defs>
</svg>
