<svg width="121" height="120" viewBox="0 0 121 120" fill="none" xmlns="http://www.w3.org/2000/svg">
<path d="M112.196 105.128C111.506 105.128 110.827 105.257 110.179 105.484C105.359 99.7299 97.3662 95.8641 88.3432 94.9259V78.8051H109.241C111.596 78.8051 113.346 76.6683 112.926 74.351C112.062 69.5925 109.341 62.7279 100.652 62.7279H88.343V56.1865H101.39C104.931 56.1865 107.875 53.5301 108.238 50.0095L112.386 9.78236C112.802 5.74221 109.636 2.19189 105.539 2.19189H62.5845C58.5176 2.19189 55.3179 5.7108 55.7372 9.78236L59.8873 50.0095C60.2501 53.5301 63.1945 56.1865 66.7345 56.1865H79.7803V62.7279H67.4604C58.7782 62.7279 56.0625 69.5946 55.2023 74.3531C54.7837 76.6697 56.5338 78.8051 58.8879 78.8051H79.7803V94.927C70.7707 95.8669 62.7855 99.7327 57.9684 105.486C57.3195 105.258 56.6381 105.128 55.9472 105.128C52.567 105.128 49.8164 107.87 49.8164 111.239C49.8164 114.609 52.567 117.351 55.9472 117.351C59.3166 117.351 62.0585 114.609 62.0585 111.239C62.0585 109.632 61.4105 108.096 60.3 106.96C64.6399 101.955 71.7319 98.5709 79.7806 97.673V106.323C78.3511 107.556 77.4816 109.32 77.4816 111.239C77.4816 114.861 80.4384 117.809 84.071 117.809C87.6947 117.809 90.6427 114.861 90.6427 111.239C90.6427 109.312 89.7689 107.544 88.3437 106.32V97.672C96.4013 98.5692 103.498 101.948 107.841 106.95C106.722 108.084 106.068 109.623 106.068 111.239C106.068 114.608 108.817 117.35 112.196 117.35C115.566 117.35 118.308 114.609 118.308 111.239C118.307 107.869 115.566 105.128 112.196 105.128ZM55.947 114.619C54.0729 114.619 52.5473 113.102 52.5473 111.239C52.5473 109.375 54.0729 107.859 55.947 107.859C57.8768 107.859 59.3271 109.452 59.3271 111.239C59.3269 113.102 57.8102 114.619 55.947 114.619ZM66.7343 53.4551C64.5989 53.4551 62.8226 51.8531 62.6039 49.7283L58.4538 9.50135C58.2002 7.05307 60.1141 4.92283 62.5842 4.92283H105.539C108.001 4.92283 109.924 7.0451 109.669 9.50135L105.521 49.7285C105.302 51.8534 103.526 53.4553 101.391 53.4553L66.7343 53.4551ZM82.5113 56.6309H85.6123V62.7277H82.5113V56.6309ZM85.6123 78.8049V104.85C84.7929 104.653 83.1809 104.691 82.5113 104.856C82.5113 90.6546 82.5113 84.9406 82.5113 78.8049H85.6123ZM84.0706 115.078C81.9422 115.078 80.212 113.355 80.212 111.239C80.212 109.98 80.8591 108.765 81.9082 108.067C83.0634 107.287 84.5276 107.24 85.725 107.828C87.2611 108.589 87.911 109.936 87.911 111.239C87.9113 113.355 86.1884 115.078 84.0706 115.078ZM112.196 114.619C110.322 114.619 108.798 113.102 108.798 111.239C108.798 109.431 110.279 107.859 112.196 107.859C114.06 107.859 115.576 109.375 115.576 111.239C115.576 113.102 114.06 114.619 112.196 114.619Z" fill="#006988"/>
<path d="M99.5397 11.2759H68.5764C67.8224 11.2759 67.2109 11.8876 67.2109 12.6413C67.2109 13.3953 67.8227 14.0068 68.5764 14.0068H99.5397C100.294 14.0068 100.905 13.3951 100.905 12.6413C100.905 11.8876 100.294 11.2759 99.5397 11.2759Z" fill="#006988"/>
<path d="M99.5397 22.3459H68.5764C67.8224 22.3459 67.2109 22.9577 67.2109 23.7114C67.2109 24.4654 67.8227 25.0769 68.5764 25.0769H99.5397C100.294 25.0769 100.905 24.4652 100.905 23.7114C100.905 22.9577 100.294 22.3459 99.5397 22.3459Z" fill="#006988"/>
<path d="M99.5397 33.4185H68.5764C67.8224 33.4185 67.2109 34.0302 67.2109 34.7839C67.2109 35.5379 67.8227 36.1494 68.5764 36.1494H99.5397C100.294 36.1494 100.905 35.5377 100.905 34.7839C100.905 34.0302 100.294 33.4185 99.5397 33.4185Z" fill="#006988"/>
<path d="M99.5397 44.4902H68.5764C67.8224 44.4902 67.2109 45.102 67.2109 45.8557C67.2109 46.6097 67.8227 47.2212 68.5764 47.2212H99.5397C100.294 47.2212 100.905 46.6095 100.905 45.8557C100.905 45.1017 100.294 44.4902 99.5397 44.4902Z" fill="#006988"/>
<path d="M37.7126 61.9844C47.7497 58.2255 54.4941 48.4923 54.4941 37.7652C54.4941 23.4998 42.8707 11.8926 28.5858 11.8926C14.3098 11.8926 2.69531 23.4998 2.69531 37.7652C2.69531 48.4888 9.43055 58.222 19.4536 61.9825C20.0927 62.2246 20.7415 62.4292 21.3935 62.6191V69.2936C20.4905 69.7124 19.8405 70.5925 19.7756 71.6474L18.3612 94.6152C18.045 100.478 22.714 105.406 28.5856 105.406C34.4571 105.406 39.1259 100.478 38.8099 94.6152L37.3955 71.6474C37.3306 70.5927 36.6811 69.7129 35.7783 69.2938V62.6228C36.4294 62.4325 37.0767 62.2272 37.7126 61.9844ZM20.4173 59.4276C11.4506 56.0617 5.42648 47.358 5.42648 37.7652C5.42648 25.0059 15.8159 14.6238 28.5858 14.6238C41.3665 14.6238 51.7629 25.0059 51.7629 37.7652C51.7629 47.3596 45.7317 56.0652 36.7472 59.4292C31.564 61.4083 25.6786 61.4209 20.4173 59.4276ZM33.0469 69.0273H24.1245V63.2598C27.0073 63.7673 29.9372 63.8069 33.0469 63.262V69.0273Z" fill="#00A481"/>
<path d="M31.7704 20.5412C31.7704 19.7873 31.1587 19.1758 30.4049 19.1758C19.1409 19.1758 9.97656 28.3312 9.97656 39.5863C9.97656 40.3403 10.5883 40.9518 11.342 40.9518C12.0958 40.9518 12.7075 40.3401 12.7075 39.5863C12.7075 29.8373 20.6465 21.907 30.4047 21.907C31.1587 21.9067 31.7704 21.295 31.7704 20.5412Z" fill="#006988"/>
</svg>
