<svg width="783" height="98" viewBox="0 0 783 98" fill="none" xmlns="http://www.w3.org/2000/svg">
<g clip-path="url(#clip0_40000071_5207)">
<rect width="783" height="98" rx="10" fill="#0A2A3C"/>
<g clip-path="url(#clip1_40000071_5207)">
<path d="M66.8566 21C66.5871 21 66.336 20.8961 66.2056 20.7248L55.0908 6.19483C54.9304 5.98567 54.9865 5.72622 55.227 5.56117L70.1994 -4.72954C70.3356 -4.82314 70.5161 -4.87607 70.7055 -4.87748L85.6585 -4.9979C85.9569 -5.01713 86.1674 -4.90227 86.3036 -4.74127L97.8946 9.02284C98.0771 9.24029 98.0181 9.51959 97.7526 9.68818L82.4809 19.4257C82.3698 19.4965 82.2317 19.5419 82.0849 19.5557L66.9551 20.9952C66.9222 20.9987 66.8894 21 66.8566 21ZM56.6632 6.04213L67.2642 19.8998L81.6619 18.5299L96.3068 9.19213L85.25 -3.93761L71.0175 -3.82266L56.6632 6.04213Z" fill="white"/>
<path d="M66.7444 21C66.5447 21 66.345 20.9427 66.1977 20.8299C66.0659 20.7276 66 20.5983 66 20.469C66 20.3266 66.0804 20.1842 66.2385 20.0791L81.3159 10.1228L69.9674 -4.20757C69.7658 -4.46337 69.8918 -4.78689 70.2495 -4.93136C70.6081 -5.07513 71.0627 -4.98596 71.2643 -4.73016L82.6643 9.66719L97.1864 8.71038C97.5905 8.68202 97.9589 8.89846 97.9968 9.19016C98.0346 9.48257 97.7332 9.74111 97.3241 9.76815L82.5732 10.7394L67.2503 20.859C67.1069 20.953 66.9257 21 66.7444 21Z" fill="white"/>
<path d="M776.844 104C776.633 104 776.435 103.915 776.31 103.769L755.127 79.0606C754.938 78.8391 754.962 78.5331 755.184 78.3353L776.911 59.0288C777.006 58.945 777.129 58.8876 777.262 58.8655L800.606 55.0106C800.87 54.9665 801.132 55.0621 801.28 55.2497L821.887 81.4213C822.056 81.6354 822.034 81.9194 821.833 82.1121L800.697 102.424C800.583 102.535 800.422 102.602 800.248 102.613L776.889 103.999C776.874 103.999 776.859 104 776.844 104ZM756.524 78.7759L777.161 102.849L799.887 101.502L820.503 81.689L800.427 56.1912L777.72 59.9409L756.524 78.7759Z" fill="white"/>
<path d="M799.822 102C799.614 102 799.41 101.916 799.283 101.76L778.117 75.7849C777.941 75.5693 777.966 75.2795 778.175 75.0878L799.865 55.1781C800.11 54.9523 800.525 54.9399 800.79 55.1484C801.055 55.3575 801.072 55.7104 800.825 55.9363L779.494 75.5177L800.359 101.124C800.566 101.378 800.492 101.725 800.195 101.901C800.08 101.968 799.951 102 799.822 102Z" fill="white"/>
<path d="M755.675 79C755.347 79 755.058 78.8051 755.008 78.5338C754.951 78.2339 755.206 77.9549 755.574 77.9098L779.223 75.0063C779.594 74.9606 779.937 75.1677 779.992 75.4661C780.049 75.766 779.794 76.0452 779.426 76.0901L755.777 78.9936C755.742 78.9979 755.708 79 755.675 79Z" fill="white"/>
</g>
</g>
<defs>
<clipPath id="clip0_40000071_5207">
<rect width="783" height="98" rx="10" fill="white"/>
</clipPath>
<clipPath id="clip1_40000071_5207">
<rect width="1175" height="263" fill="white" transform="translate(-196 -69)"/>
</clipPath>
</defs>
</svg>
