<svg width="121" height="120" viewBox="0 0 121 120" fill="none" xmlns="http://www.w3.org/2000/svg">
<path d="M109.119 101.603V99.3896C109.115 97.8985 108.52 96.4697 107.466 95.4154C106.412 94.361 104.983 93.7668 103.492 93.7624H90.3618V90.011H101.616C104.103 90.0101 106.488 89.0218 108.247 87.2631C110.005 85.5045 110.994 83.1195 110.995 80.6325V35.6152C110.987 34.8726 110.832 34.1389 110.539 33.4564C110.246 32.7739 109.821 32.1562 109.288 31.6387C108.755 31.1213 108.125 30.7144 107.435 30.4415C106.744 30.1686 106.006 30.0352 105.264 30.0488C104.521 30.0624 103.789 30.2229 103.108 30.5209C102.428 30.8189 101.813 31.2486 101.3 31.7853C100.787 32.3219 100.385 32.9548 100.117 33.6476C99.8492 34.3404 99.7213 35.0792 99.7405 35.8217V76.881C99.739 77.378 99.5409 77.8543 99.1895 78.2057C98.838 78.5571 98.3618 78.7552 97.8647 78.7567H71.6047C70.7884 78.7635 69.9831 78.9465 69.2441 79.2932C68.505 79.6399 67.8495 80.142 67.3223 80.7654C66.7952 81.3887 66.4088 82.1185 66.1897 82.9049C65.9706 83.6912 65.9238 84.5157 66.0526 85.3218C66.3102 86.6546 67.0281 87.8544 68.0807 88.7116C69.1333 89.5687 70.4536 90.0287 71.811 90.011H86.6103V93.7624H73.4804C71.9893 93.7668 70.5605 94.361 69.5062 95.4154C68.4518 96.4697 67.8576 97.8985 67.8532 99.3896V101.603C66.6039 102.045 65.551 102.915 64.8808 104.058C64.2106 105.202 63.9661 106.545 64.1905 107.852C64.415 109.158 65.0939 110.343 66.1073 111.197C67.1208 112.051 68.4035 112.52 69.7289 112.52C71.0543 112.52 72.337 112.051 73.3504 111.197C74.3639 110.343 75.0428 109.158 75.2672 107.852C75.4916 106.545 75.2471 105.202 74.5769 104.058C73.9067 102.915 72.8539 102.045 71.6045 101.603L71.6047 99.3896C71.6061 98.8925 71.8042 98.4163 72.1557 98.0649C72.5071 97.7134 72.9834 97.5153 73.4804 97.5139H86.6104V101.603C85.361 102.045 84.3082 102.915 83.638 104.058C82.9678 105.202 82.7233 106.545 82.9477 107.852C83.1722 109.158 83.8511 110.343 84.8645 111.197C85.8779 112.051 87.1607 112.52 88.486 112.52C89.8114 112.52 91.0942 112.051 92.1076 111.197C93.121 110.343 93.7999 109.158 94.0244 107.852C94.2488 106.545 94.0043 105.202 93.3341 104.058C92.6639 102.915 91.6111 102.045 90.3617 101.603L90.3618 97.5139H103.492C103.989 97.5153 104.465 97.7134 104.817 98.0648C105.168 98.4163 105.366 98.8925 105.368 99.3896V101.603C104.118 102.045 103.065 102.915 102.395 104.058C101.725 105.202 101.481 106.545 101.705 107.852C101.929 109.158 102.608 110.343 103.622 111.197C104.635 112.051 105.918 112.52 107.243 112.52C108.569 112.52 109.851 112.051 110.865 111.197C111.878 110.343 112.557 109.158 112.782 107.852C113.006 106.545 112.762 105.202 112.091 104.058C111.421 102.915 110.368 102.045 109.119 101.603Z" fill="#00A481"/>
<path d="M84.7309 29.9886C87.715 29.9862 90.5762 28.7997 92.6863 26.6897C94.7963 24.5796 95.9828 21.7184 95.9852 18.7343C95.4608 3.83826 73.9987 3.84208 73.4766 18.7345C73.4789 21.7185 74.6654 24.5797 76.7755 26.6898C78.8856 28.7998 81.7468 29.9863 84.7309 29.9886Z" fill="#006988"/>
<path d="M95.9822 65.6275V43.1189C95.9786 41.0638 95.2998 39.0669 94.0501 37.4354C88.0755 29.9531 75.9272 34.9034 72.0106 42.1621C71.4804 43.0633 71.0346 44.0115 70.6788 44.9946H50.965C50.4726 45.0022 50.0029 45.2032 49.6574 45.5541C49.3118 45.9051 49.1181 46.3778 49.1181 46.8703C49.1181 47.3628 49.3118 47.8356 49.6574 48.1865C50.0029 48.5374 50.4726 48.7384 50.965 48.746H78.6506C79.0742 48.7236 79.4821 48.5787 79.825 48.329C80.1679 48.0793 80.431 47.7355 80.5824 47.3392L85.178 41.8996C85.5045 41.5325 85.962 41.3082 86.4521 41.2748C86.9423 41.2413 87.426 41.4015 87.7993 41.7208C88.1727 42.0401 88.4059 42.4931 88.4488 42.9825C88.4918 43.4719 88.3411 43.9586 88.0291 44.3381L83.5837 49.6087C83.0941 50.4867 82.3784 51.2175 81.5109 51.7255C80.6434 52.2335 79.6558 52.5 78.6506 52.4974H69.7222V61.876C69.7207 62.373 69.5226 62.8493 69.1712 63.2007C68.8197 63.5522 68.3435 63.7503 67.8464 63.7517H57.7739C55.6552 63.7297 53.5928 64.4344 51.9306 65.7484C50.2684 67.0625 49.1067 68.9065 48.6392 70.9732L39.8796 105.524C39.5369 106.963 39.7748 108.48 40.5418 109.746C41.3088 111.011 42.5433 111.924 43.9781 112.287C45.4129 112.649 46.9327 112.432 48.2087 111.682C49.4847 110.933 50.4143 109.711 50.7962 108.281L58.8806 76.4128C58.9837 76.0091 59.2188 75.6514 59.5484 75.3965C59.8781 75.1417 60.2834 75.0042 60.7001 75.006H86.6036C89.0907 75.0051 91.4756 74.0167 93.2342 72.2581C94.9929 70.4995 95.9813 68.1146 95.9822 65.6275Z" fill="#006988"/>
<path d="M45.8863 65.5145C46.5717 64.6757 47.0027 63.6583 47.1286 62.5824C47.2544 61.5066 47.0697 60.4172 46.5964 59.4429C46.123 58.4686 45.3807 57.6501 44.4572 57.0841C43.5336 56.5181 42.4674 56.2281 41.3844 56.2485L20.9581 56.2484V39.4232C20.9596 38.9262 21.1577 38.4499 21.5091 38.0985C21.8606 37.747 22.3368 37.5489 22.8339 37.5475H27.0167L30.3931 51.0714C30.5179 51.5481 30.8253 51.9565 31.249 52.2081C31.6726 52.4598 32.1783 52.5346 32.6566 52.4162C33.1349 52.2979 33.5474 51.9959 33.8048 51.5757C34.0621 51.1555 34.1437 50.6509 34.0318 50.171L26.5289 20.1596C26.4037 19.6834 26.0961 19.2755 25.6727 19.0242C25.2492 18.7729 24.7438 18.6983 24.2658 18.8166C23.7878 18.9349 23.3755 19.2365 23.1181 19.6563C22.8607 20.0761 22.7788 20.5803 22.8902 21.06L26.0788 33.796H22.8338C21.3417 33.7972 19.9111 34.3904 18.8561 35.4455C17.8011 36.5005 17.2078 37.9311 17.2066 39.4232V56.2484C14.7196 56.2493 12.3346 57.2377 10.576 58.9963C8.81734 60.755 7.82896 63.1399 7.82806 65.627V106.686C7.80042 107.434 7.92206 108.18 8.18586 108.88C8.44965 109.58 8.85032 110.22 9.36445 110.763C9.87858 111.307 10.4959 111.742 11.1802 112.044C11.8645 112.346 12.6022 112.509 13.3501 112.523C14.0981 112.536 14.8412 112.401 15.5362 112.124C16.2311 111.847 16.8639 111.435 17.3976 110.911C17.9313 110.386 18.3552 109.761 18.6444 109.071C18.9337 108.381 19.0826 107.641 19.0824 106.893V69.3785C19.0838 68.8814 19.2819 68.4052 19.6334 68.0537C19.9848 67.7023 20.4611 67.5042 20.9581 67.5027H41.591C42.4078 67.4995 43.2143 67.3203 43.9555 66.9771C44.6968 66.634 45.3553 66.1351 45.8863 65.5145Z" fill="#006988"/>
</svg>
