<svg width="103" height="73" viewBox="0 0 103 73" fill="none" xmlns="http://www.w3.org/2000/svg">
<rect x="0.804688" width="102" height="73" rx="8.5" fill="#E0F7FA"/>
<g clip-path="url(#clip0_40003178_11895)">
<path d="M58.3125 53.3823L58.6937 54.8858H60.9433L60.9779 54.9579L61.2061 55.4751H61.6594L62.6557 57.5288H65.197V51.4609L60.4957 52.7749L58.3125 53.3823Z" fill="#C48860"/>
<path d="M67.365 57.4485L67.1484 56.6758V57.5297H67.3737C67.3766 57.5057 67.3708 57.4756 67.365 57.4485Z" fill="#C48860"/>
<path d="M51.2354 39.1927C50.5077 41.926 49.7684 44.6472 49.0725 47.3925C48.4371 49.8912 47.8018 52.3869 47.1694 54.8886H44.9169L44.8852 54.9608L44.6541 55.478H44.0275L42.9908 57.5317H38.9219V55.944L39.0316 55.5531L43.6838 42.0192H42.0118L44.5473 38.1133H51.195C51.3134 38.447 51.3365 38.8199 51.2354 39.1927Z" fill="#C48860"/>
<path d="M68.7656 19.9093C69.1208 19.9093 69.4067 19.6116 69.4067 19.2417C69.4067 18.8719 69.1208 18.5742 68.7656 18.5742V19.9093Z" fill="#C48860"/>
<path d="M64.2692 28.1284V28.0773C64.2692 27.5 63.9978 26.9888 63.579 26.6761L63.7898 25.2118C63.7985 25.1547 63.761 25.1005 63.7032 25.0915L63.6426 25.0825C63.3884 25.0434 63.143 25.1456 62.987 25.3321C62.9726 25.3501 62.9582 25.3651 62.9466 25.3862L62.9842 25.3892L62.9437 26.0687L62.9293 26.3033V26.3063L62.7358 26.2612L60.6508 25.7681C60.4718 25.726 60.2927 25.8432 60.2523 26.0297L60.2032 26.2612C60.1628 26.4476 60.2754 26.634 60.4545 26.6761L61.058 26.8205C61.0493 26.8265 61.0436 26.8325 61.0349 26.8385L60.0819 26.8024C59.8971 26.7964 59.7441 26.9437 59.7354 27.1362L59.7267 27.3737C59.721 27.5632 59.8653 27.7255 60.0473 27.7315L60.0848 27.7345C59.952 27.7736 59.8509 27.8999 59.8451 28.0533L59.8365 28.2878C59.8307 28.4803 59.9722 28.6426 60.157 28.6486L60.1888 28.6516C60.0415 28.6817 59.926 28.814 59.9202 28.9794L59.9115 29.2139C59.9058 29.4064 60.0473 29.5657 60.2321 29.5748L60.5584 29.5868C60.8472 30.101 61.3814 30.4467 61.9936 30.4467H63.2643L66.3715 33.0567L67.5555 29.5838L64.2692 28.1284Z" fill="#C48860"/>
<path d="M47.446 26.7645L47.4373 26.53C47.4287 26.3375 47.2756 26.1872 47.0908 26.1962L46.1378 26.2323C46.132 26.2263 46.1234 26.2173 46.1147 26.2113L46.7183 26.0699C46.9002 26.0248 47.0128 25.8384 46.9695 25.652L46.9204 25.4235C46.88 25.237 46.7009 25.1198 46.5219 25.1619L44.2059 25.7091L44.1337 25.7271L44.0124 24.5755C43.8738 24.4853 43.7063 24.4462 43.533 24.4733L43.4695 24.4853C43.4117 24.4913 43.3742 24.5485 43.3829 24.6056L43.5937 26.0669C43.1749 26.3826 42.9035 26.8908 42.9035 27.4681V27.5222L39.6172 28.9746L40.8012 32.4505L43.9084 29.8405H45.1791C45.7913 29.8405 46.3255 29.4918 46.6143 28.9776L46.9406 28.9655C47.1254 28.9595 47.2669 28.7972 47.2612 28.6047L47.2525 28.3702C47.2467 28.2048 47.1312 28.0725 46.9839 28.0424H47.0157C47.2005 28.0334 47.3449 27.8741 47.3362 27.6816L47.3276 27.4471C47.3218 27.2937 47.2207 27.1674 47.0879 27.1253H47.1254C47.3074 27.1193 47.4518 26.957 47.446 26.7645Z" fill="#C48860"/>
<path d="M41.5868 17.5273H37.1742C37.1251 17.6296 37.0789 17.7378 37.0472 17.8641C37.0443 17.8641 37.0443 17.8641 37.0443 17.8641C37.0212 17.8611 36.9981 17.8581 36.975 17.8581H36.9721C36.6891 17.8581 36.4609 18.0956 36.4609 18.3903C36.4609 18.5196 36.5043 18.6369 36.5764 18.7271C36.6717 18.8474 36.8132 18.9225 36.9721 18.9225C37.0385 18.9225 37.102 18.9075 37.1598 18.8834C37.2002 18.9706 37.2378 19.0398 37.2637 19.0939C37.4341 19.4608 37.489 20.0531 37.0818 21.0845C37.3273 21.2168 37.5958 21.319 37.8817 21.3852V23.0179L39.5191 23.4148V21.3611C40.8273 21.0093 41.786 19.8877 41.786 18.5557C41.786 18.1949 41.7138 17.8491 41.5868 17.5273Z" fill="#C48860"/>
<path d="M69.1116 18.8883C68.9413 18.8763 68.7824 18.9515 68.6814 19.0808C68.6121 19.0267 68.5572 18.9786 68.5225 18.9485C68.0432 18.5305 68.0894 18.278 67.6735 18.1126C67.4512 18.0254 67.223 18.0073 66.992 17.7818C66.8418 17.6345 66.8245 17.5262 66.7437 17.427C66.5935 17.2436 66.1343 17.1474 65.2449 17.3759C65.242 17.3759 65.2391 17.3789 65.2362 17.3819C65.2074 17.412 65.1785 17.442 65.1496 17.4751C65.1236 17.5052 65.0947 17.5353 65.0687 17.5683C65.0427 17.5984 65.0196 17.6285 64.9965 17.6615C64.985 17.6736 64.9734 17.6886 64.9648 17.7036C64.9417 17.7367 64.9186 17.7698 64.8955 17.8029C64.8724 17.8359 64.8493 17.872 64.8262 17.9081C64.806 17.9442 64.7857 17.9803 64.7655 18.0164C64.7626 18.0194 64.7597 18.0224 64.7597 18.0254C64.7366 18.0645 64.7164 18.1036 64.6991 18.1426C64.6991 18.1456 64.6962 18.1456 64.6962 18.1456C64.676 18.1877 64.6587 18.2268 64.6413 18.2689C64.624 18.311 64.6067 18.3531 64.5923 18.3952C64.5836 18.4163 64.5749 18.4403 64.5692 18.4614C64.5605 18.4824 64.5547 18.5035 64.546 18.5245C64.5403 18.5456 64.5345 18.5696 64.5287 18.5907C64.5229 18.6117 64.5143 18.6358 64.5085 18.6568C64.5027 18.6809 64.497 18.7049 64.4912 18.729C64.4883 18.75 64.4825 18.7711 64.4796 18.7891C64.4739 18.8132 64.4681 18.8342 64.4652 18.8583C64.4623 18.8823 64.4565 18.9034 64.4536 18.9274C64.4392 19.0146 64.4305 19.1048 64.4248 19.195C64.4248 19.2161 64.4219 19.2371 64.4219 19.2552C64.4219 19.2883 64.4219 19.3153 64.4219 19.3454C64.4219 19.3905 64.4219 19.4356 64.4248 19.4807C64.4248 19.5048 64.4277 19.5288 64.4305 19.5529C64.4305 19.5709 64.4305 19.5889 64.4334 19.607V19.61C64.4363 19.616 64.4363 19.622 64.4363 19.628C64.4392 19.6611 64.4421 19.6912 64.4479 19.7243C64.4594 19.7994 64.471 19.8716 64.4883 19.9468C64.4941 19.9798 64.5027 20.0099 64.5114 20.043C64.5316 20.1182 64.5547 20.1933 64.5807 20.2685C64.5951 20.3016 64.6067 20.3377 64.6211 20.3707C64.6298 20.3978 64.6413 20.4219 64.6529 20.4459C64.6587 20.4639 64.6644 20.479 64.6731 20.494C64.6818 20.5121 64.6904 20.5301 64.6991 20.5481C64.7164 20.5812 64.7309 20.6113 64.7482 20.6414C64.7597 20.6654 64.7713 20.6895 64.7857 20.7105C64.7886 20.7195 64.7944 20.7286 64.8002 20.7376C64.8117 20.7586 64.8262 20.7827 64.8406 20.8037C64.855 20.8278 64.8695 20.8488 64.8868 20.8729C64.9012 20.8999 64.9215 20.927 64.9388 20.9541C64.9619 20.9841 64.9821 21.0112 65.0052 21.0413C65.0514 21.1014 65.0976 21.1585 65.1467 21.2127C65.1727 21.2397 65.1958 21.2668 65.2218 21.2938C65.2738 21.348 65.3286 21.4021 65.3835 21.4502C65.4124 21.4743 65.4413 21.4983 65.4701 21.5224C65.4932 21.5464 65.5221 21.5675 65.5481 21.5885C65.551 21.5915 65.5568 21.5945 65.5597 21.5975C65.5885 21.6186 65.6174 21.6396 65.6463 21.6607C65.6723 21.6787 65.6954 21.6968 65.7185 21.7118C65.7647 21.7419 65.808 21.7689 65.8542 21.796C65.8744 21.811 65.8946 21.8231 65.9149 21.8351C65.9553 21.8561 65.9957 21.8802 66.0361 21.8982C66.0679 21.9163 66.1026 21.9343 66.1372 21.9493C66.1719 21.9674 66.2065 21.9824 66.2441 21.9975C66.3192 22.0305 66.4 22.0606 66.478 22.0877C66.5097 22.0997 66.5415 22.1087 66.5733 22.1177C66.6108 22.1298 66.6484 22.1418 66.6859 22.1508V24.2045L68.3262 23.8076V22.1779C68.6525 22.0997 68.9586 21.9764 69.2358 21.814C69.2358 21.811 69.2358 21.808 69.2387 21.805C69.2474 21.7719 69.256 21.7389 69.2647 21.7058C69.2734 21.6727 69.282 21.6426 69.2878 21.6096C69.2965 21.5705 69.3051 21.5314 69.3138 21.4923C69.3196 21.4592 69.3253 21.4261 69.3311 21.3931C69.3311 21.3901 69.3311 21.3901 69.334 21.3871C69.334 21.375 69.3369 21.363 69.3369 21.351C69.3456 21.3029 69.3542 21.2548 69.3571 21.2066C69.3629 21.1676 69.3658 21.1315 69.3687 21.0954C69.3715 21.0623 69.3744 21.0292 69.3773 20.9992C69.3773 20.9992 69.3773 20.9992 69.3773 20.9962C69.3773 20.9691 69.3773 20.945 69.3802 20.918C69.3802 20.8909 69.3802 20.8639 69.3802 20.8398V20.7977C69.3802 20.7767 69.3802 20.7556 69.3802 20.7346V20.7255C69.3773 20.7045 69.3773 20.6834 69.3773 20.6594C69.3773 20.6534 69.3773 20.6474 69.3773 20.6444C69.3773 20.6383 69.3744 20.6323 69.3744 20.6263C69.3744 20.5872 69.3687 20.5511 69.3658 20.5151C69.3658 20.5091 69.3658 20.503 69.3658 20.5C69.3629 20.488 69.3629 20.473 69.36 20.4609C69.3571 20.4369 69.3542 20.4158 69.3513 20.3918C69.3484 20.3677 69.3456 20.3467 69.3427 20.3226C69.3369 20.2895 69.3311 20.2565 69.3253 20.2234C69.3167 20.1903 69.3109 20.1603 69.3051 20.1272C69.2993 20.1152 69.2965 20.1001 69.2936 20.0851C69.2878 20.058 69.282 20.031 69.2734 20.0039C69.2676 19.9798 69.2589 19.9558 69.2531 19.9317C69.2531 19.9287 69.2531 19.9287 69.2531 19.9257C69.2503 19.9227 69.2503 19.9197 69.2503 19.9197C69.4322 19.8475 69.5679 19.6731 69.5824 19.4566C69.6026 19.165 69.3918 18.9094 69.1116 18.8883Z" fill="#C48860"/>
<mask id="mask0_40003178_11895" style="mask-type:luminance" maskUnits="userSpaceOnUse" x="30" y="15" width="44" height="44">
<path d="M30.0859 15.0273H73.8677V58.8796H30.0859V15.0273Z" fill="white"/>
</mask>
<g mask="url(#mask0_40003178_11895)">
<path d="M69.7359 58.6709L67.4171 43.2486C67.4142 43.2366 67.4084 43.2246 67.3997 43.2185C67.3911 43.2125 67.3824 43.2095 67.3737 43.2095C67.3708 43.2095 67.368 43.2095 67.3651 43.2095C67.3622 43.2095 67.3593 43.2095 67.3564 43.2095C67.3477 43.2095 67.342 43.2125 67.3333 43.2185C67.3246 43.2246 67.3189 43.2366 67.3189 43.2486L67.1023 44.6829L67.0994 56.6773C67.0994 56.6833 67.1023 56.6863 67.1023 56.6923L67.3189 57.4651C67.3246 57.4862 67.3275 57.5102 67.3275 57.5313C67.3275 57.5433 67.3304 57.5553 67.3391 57.5643C67.3477 57.5734 67.3593 57.5794 67.3708 57.5794H67.7636C67.8733 57.5794 67.9657 57.6696 67.9657 57.7838V58.4664C67.9657 58.5777 67.8733 58.6709 67.7636 58.6709H57.3213V58.1236C57.3213 58.0996 57.3011 58.0785 57.278 58.0785H55.8919V56.9419C55.8919 56.4037 56.0334 55.8955 56.2904 55.5136C56.5416 55.1408 56.8766 54.9333 57.2318 54.9333H58.693C58.7046 54.9333 58.719 54.9273 58.7277 54.9153C58.7335 54.9033 58.7364 54.8882 58.7335 54.8762L58.3523 53.3728C58.3494 53.3607 58.3436 53.3517 58.3321 53.3457C58.3263 53.3427 58.3176 53.3397 58.3119 53.3397C58.3061 53.3397 58.3032 53.3397 58.3003 53.3397L57.8238 53.475L54.809 41.0716C54.5548 40.0162 54.8696 38.8947 55.6349 38.146C55.6464 38.1339 55.6522 38.1129 55.6464 38.0948C55.6378 38.0768 55.6233 38.0678 55.6031 38.0678H51.1935C51.179 38.0678 51.1675 38.0738 51.1588 38.0858C51.1501 38.0978 51.1473 38.1129 51.153 38.1279C51.2743 38.4677 51.2859 38.8315 51.1935 39.1803C51.0375 39.7637 50.8816 40.344 50.7256 40.9243C50.1596 43.0351 49.5763 45.2211 49.0276 47.3801L47.1246 54.8762C47.1217 54.8882 47.1246 54.9033 47.1332 54.9153C47.1419 54.9273 47.1534 54.9333 47.1679 54.9333H48.6262C48.9814 54.9333 49.3164 55.1408 49.5705 55.5136C49.8246 55.8955 49.9661 56.4037 49.9661 56.9419V58.0785H48.58C48.5569 58.0785 48.5367 58.0996 48.5367 58.1236V58.6709H37.0144V54.35C37.0144 54.3259 36.9971 54.3049 36.974 54.3049C36.9711 54.3049 36.9711 54.3049 36.9711 54.3049C36.948 54.3049 36.9307 54.3199 36.9278 54.344L36.2723 58.6709H34.6609L36.9884 43.2185C36.9913 43.2185 36.9942 43.2155 36.9942 43.2125C37.0057 43.2065 37.0144 43.1915 37.0144 43.1795C37.0144 43.1554 36.9971 43.1344 36.974 43.1344C34.3952 42.9058 32.5932 42.2143 32.5932 41.4475V40.3289C32.5932 39.9801 32.96 39.6404 33.6559 39.3457C33.6732 39.3397 33.6819 39.3246 33.6819 39.3036V36.7658C33.6819 36.7417 33.6646 36.7207 33.6386 36.7207H30.1328V33.8371H33.6386C33.6646 33.8371 33.6819 33.8161 33.6819 33.792V29.1313C33.6848 29.1283 33.6848 29.1253 33.6848 29.1193C33.7166 26.1245 35.5128 23.5837 37.9587 23.0815C37.9789 23.0755 37.9963 23.0575 37.9963 23.0364C37.9963 23.0154 37.9818 22.9973 37.9616 22.9913L37.9212 22.9823V22.2306C37.9212 22.2035 37.901 22.1855 37.8779 22.1855H34.915C34.6089 21.6442 34.4472 21.1 34.4356 20.5678C34.427 20.2521 34.4703 20.0235 34.528 19.7319C34.5742 19.4823 34.6291 19.2027 34.6609 18.8027C34.6984 18.3517 34.6984 17.8947 34.6609 17.4466C34.6724 17.2211 34.7533 16.4183 35.3973 15.856C35.7727 15.5252 36.1827 15.414 36.4628 15.3749C36.4686 15.3749 36.4744 15.3719 36.4802 15.3689H40.3931C41.0313 15.3689 41.5482 15.9071 41.5482 16.5716V17.4978C41.5482 17.5008 41.5482 17.5008 41.5454 17.5038C41.5367 17.5158 41.5367 17.5338 41.5425 17.5459C41.6724 17.8706 41.7359 18.2074 41.7359 18.5562C41.7359 18.8899 41.6753 19.2207 41.5511 19.5364C41.5511 19.5424 41.5482 19.5484 41.5482 19.5515V20.6881C41.5338 20.8414 41.5396 21.0008 41.5656 21.1571C41.5858 21.2744 41.6147 21.3556 41.6378 21.4247C41.6609 21.4939 41.6811 21.551 41.6897 21.6262C41.7128 21.8006 41.6695 21.987 41.5685 22.1855H39.5152C39.4921 22.1855 39.4719 22.2035 39.4719 22.2306V22.9973C39.4719 23.0214 39.4892 23.0394 39.5095 23.0424C41.1411 23.301 42.5821 24.4978 43.3675 26.2478C43.3733 26.2628 43.3849 26.2718 43.3993 26.2748C43.4022 26.2748 43.4051 26.2748 43.408 26.2748C43.4195 26.2748 43.4311 26.2688 43.4369 26.2628C43.4975 26.2027 43.5581 26.1485 43.6188 26.1034C43.6303 26.0944 43.6361 26.0764 43.6361 26.0613L43.4253 24.6C43.4224 24.582 43.4253 24.5669 43.434 24.5549C43.4455 24.5399 43.4571 24.5338 43.4744 24.5308L43.5379 24.5188C43.5726 24.5158 43.6072 24.5128 43.639 24.5128C43.7632 24.5128 43.8845 24.5459 43.9913 24.615C43.9971 24.618 44.0057 24.621 44.0115 24.621C44.0202 24.621 44.0289 24.618 44.0375 24.612C44.052 24.603 44.0577 24.588 44.0577 24.5699L43.8816 22.8771L43.8354 22.429C43.8354 22.417 43.8325 22.408 43.8238 22.399C43.8152 22.3899 43.8036 22.3869 43.7921 22.3869L43.2751 22.396L43.7545 21.6112L47.1274 21.5691L47.5953 22.3388L47.1043 22.3448C47.0784 22.3448 47.061 22.3659 47.061 22.3899V22.411C47.061 22.426 47.0639 22.435 47.0726 22.4441L46.8069 25.2194C46.804 25.2224 46.804 25.2224 46.8011 25.2254C46.7838 25.2435 46.7809 25.2705 46.7982 25.2886C46.8387 25.3277 46.8647 25.3788 46.8762 25.4329L46.9282 25.6614C46.9571 25.8057 46.8849 25.9531 46.7549 26.0072C46.7405 26.0132 46.7318 26.0283 46.7289 26.0463L46.7145 26.2027C46.7145 26.2177 46.7174 26.2297 46.726 26.2387C46.7347 26.2478 46.7463 26.2538 46.7578 26.2538L47.1015 26.2417C47.2603 26.2417 47.3874 26.368 47.3931 26.5304L47.3989 26.7679C47.4047 26.8461 47.3758 26.9243 47.3238 26.9844C47.2718 27.0416 47.1996 27.0777 47.1217 27.0807H47.0841C47.0639 27.0837 47.0466 27.0987 47.0437 27.1228C47.0408 27.1438 47.0553 27.1649 47.0755 27.1709C47.1939 27.207 47.2776 27.3182 47.2834 27.4475L47.2921 27.682C47.2978 27.8504 47.1737 27.9887 47.0119 27.9978H46.9802C46.9571 27.9978 46.9397 28.0158 46.9369 28.0399C46.9369 28.0639 46.9513 28.085 46.9744 28.088C47.1072 28.115 47.2025 28.2323 47.2083 28.3736L47.217 28.6082C47.2199 28.6893 47.191 28.7645 47.139 28.8246C47.087 28.8818 47.0148 28.9179 46.9369 28.9209L46.6105 28.9329C46.5961 28.9329 46.5817 28.9419 46.5759 28.957C46.2842 29.4711 45.75 29.7929 45.1782 29.7929H44.0317C44.0057 29.7929 43.9855 29.8139 43.9855 29.838V33.792C43.9855 33.8161 44.0057 33.8371 44.0317 33.8371C44.0317 33.8371 50.8758 33.8371 50.8787 33.8371C50.896 33.8371 50.9133 33.8281 50.9191 33.81C50.9278 33.789 50.922 33.7619 50.8989 33.7529C50.4195 33.5274 50.1076 33.0373 50.0903 32.496H51.5775C51.5833 32.499 51.5891 32.5021 51.5977 32.5021C51.5977 32.5021 51.6006 32.5021 51.6035 32.5021C51.6266 32.496 51.6439 32.478 51.6382 32.4539C51.6353 32.4359 51.6324 32.4179 51.6324 32.3968V31.3745C51.6324 31.3234 51.6468 31.2722 51.6699 31.2271C51.693 31.176 51.7277 31.1369 51.771 31.1069C51.8201 31.0708 51.8807 31.0527 51.9414 31.0527H52.7991C52.8193 31.0527 52.8366 31.0377 52.8424 31.0197C52.8482 31.0016 52.8395 30.9806 52.8251 30.9685C52.8193 30.9655 52.8135 30.9595 52.8077 30.9565C52.8077 30.9565 52.802 30.9505 52.7991 30.9475C52.7962 30.9445 52.7904 30.9415 52.7846 30.9355L52.7644 30.9174C52.7586 30.9084 52.75 30.8964 52.7384 30.8813C52.7384 30.8813 52.7326 30.8723 52.7326 30.8693C52.724 30.8573 52.7153 30.8423 52.7095 30.8302C52.7009 30.8062 52.6951 30.7881 52.6922 30.7701L52.6893 30.7551C52.6864 30.74 52.6836 30.719 52.6836 30.6979V29.6726C52.6836 29.4952 52.8222 29.3539 52.9897 29.3539H54.2863C54.2921 29.3539 54.2978 29.3539 54.3007 29.3539C54.3065 29.3539 54.3123 29.3569 54.3209 29.3569C54.3296 29.3569 54.3383 29.3569 54.3469 29.3599C54.3498 29.3599 54.3498 29.3599 54.3527 29.3599C54.4942 29.3899 54.5953 29.5222 54.5953 29.6726V30.6979C54.5953 30.719 54.5924 30.737 54.5895 30.7581C54.5895 30.7611 54.5895 30.7641 54.5895 30.7671C54.5837 30.7851 54.5779 30.8062 54.5722 30.8242C54.5635 30.8423 54.5548 30.8573 54.5462 30.8723L54.5404 30.8813C54.5317 30.8934 54.5202 30.9084 54.5086 30.9204C54.5057 30.9234 54.5 30.9295 54.4971 30.9325C54.4884 30.9415 54.4798 30.9475 54.4711 30.9535C54.4711 30.9535 54.4595 30.9655 54.4538 30.9685C54.4393 30.9776 54.4307 30.9986 54.4364 31.0197C54.4422 31.0377 54.4595 31.0527 54.4798 31.0527H55.3374C55.5049 31.0527 55.6435 31.1971 55.6435 31.3745V31.5729C55.6435 31.5759 55.6435 31.5789 55.6435 31.5819V32.1893C55.6435 32.1923 55.6435 32.1954 55.6435 32.1984V32.3968C55.6435 32.4179 55.6435 32.4359 55.6406 32.4539C55.6349 32.478 55.6493 32.5021 55.6724 32.5081C55.6753 32.5081 55.6811 32.5081 55.684 32.5081C55.6926 32.5081 55.7042 32.5051 55.7128 32.496H57.1885C57.177 32.8599 57.0355 33.1996 56.7871 33.4582C56.6658 33.5845 56.5272 33.6838 56.3684 33.7559C56.3453 33.7649 56.3366 33.792 56.3453 33.8161C56.351 33.8341 56.3684 33.8431 56.3857 33.8431C56.3886 33.8431 56.3944 33.8431 56.4001 33.8431C56.403 33.8401 56.4059 33.8401 56.4117 33.8371H62.5713C62.5916 33.8371 62.6118 33.8221 62.6147 33.801L63.172 30.4574C63.172 30.4423 63.1691 30.4303 63.1604 30.4183C63.1518 30.4093 63.1402 30.4033 63.1287 30.4033H61.9909C61.4191 30.4033 60.8849 30.0815 60.5932 29.5643C60.5874 29.5523 60.573 29.5433 60.5586 29.5433L60.2322 29.5283C60.0705 29.5222 59.9463 29.3839 59.9521 29.2155L59.9608 28.981C59.9666 28.8397 60.0619 28.7254 60.1976 28.6984C60.2178 28.6923 60.2322 28.6713 60.2322 28.6472C60.2293 28.6262 60.212 28.6082 60.1889 28.6051H60.1543C60.0792 28.6021 60.007 28.5691 59.955 28.5089C59.903 28.4488 59.8741 28.3736 59.877 28.2924L59.8857 28.0579C59.8915 27.9286 59.9752 27.8173 60.0936 27.7783C60.1167 27.7722 60.1283 27.7512 60.1254 27.7301C60.1225 27.7061 60.1052 27.6911 60.0821 27.6911L60.0474 27.6881C59.9694 27.685 59.8973 27.652 59.8453 27.5918C59.7933 27.5347 59.7673 27.4565 59.7702 27.3753L59.776 27.1408C59.7817 26.9784 59.9117 26.8491 60.0676 26.8491L61.0322 26.8882C61.0408 26.8882 61.0495 26.8852 61.0581 26.8762C61.0668 26.8702 61.0755 26.8642 61.0841 26.8551C61.0957 26.8431 61.1015 26.8251 61.0986 26.81C61.0928 26.792 61.0812 26.78 61.0639 26.777L60.4604 26.6326C60.3853 26.6146 60.3218 26.5665 60.2784 26.5003C60.238 26.4312 60.2265 26.35 60.2409 26.2718L60.2929 26.0433C60.3218 25.905 60.4402 25.8057 60.5759 25.8057C60.5961 25.8057 60.6192 25.8088 60.6394 25.8148L60.7001 25.8298C60.7029 25.8298 60.7058 25.8298 60.7087 25.8298C60.7174 25.8298 60.7289 25.8268 60.7347 25.8208C60.7463 25.8118 60.752 25.7997 60.752 25.7877L60.7838 25.2495C60.7838 25.2465 60.7838 25.2435 60.7838 25.2405L60.7982 25.0149C60.8098 24.8225 60.9628 24.6722 61.1477 24.6722C61.1563 24.6722 61.1621 24.6722 61.1708 24.6722L62.6204 24.7654C62.8139 24.7774 62.9612 24.9518 62.9496 25.1533L62.941 25.3307C62.9381 25.3517 62.9496 25.3698 62.967 25.3758C62.9727 25.3788 62.9785 25.3788 62.9843 25.3788C62.9958 25.3788 63.0074 25.3728 63.0161 25.3637C63.146 25.2104 63.3337 25.1202 63.5301 25.1202C63.5647 25.1202 63.5994 25.1232 63.6312 25.1292L63.6947 25.1382C63.7265 25.1442 63.7496 25.1743 63.7438 25.2074L63.533 26.6687C63.533 26.6868 63.5388 26.7048 63.5532 26.7138C63.6283 26.771 63.7034 26.8371 63.7698 26.9123C63.7784 26.9213 63.79 26.9243 63.8015 26.9243C63.8044 26.9243 63.8073 26.9243 63.8102 26.9243C63.8246 26.9213 63.8362 26.9093 63.842 26.8942C64.33 25.499 65.3696 24.3805 66.6951 23.8272C66.7124 23.8212 66.724 23.8032 66.724 23.7851V23.292C66.724 23.2649 66.7038 23.2469 66.6807 23.2469H64.3531V19.6236C64.3531 19.6176 64.3502 19.6086 64.3473 19.6026C63.9777 18.929 64.1481 18.1893 64.2174 17.8736C64.5293 16.5145 65.7681 15.0742 67.4546 15.0742C68.0235 15.0742 68.5837 15.2035 69.0718 15.4501C69.0775 15.4531 69.0833 15.4531 69.092 15.4531C69.0949 15.4531 69.0949 15.4531 69.0977 15.4531C69.245 15.429 69.3836 15.417 69.5223 15.417C70.9488 15.417 72.1097 16.6258 72.1097 18.1112V23.2469H68.3209C68.2949 23.2469 68.2747 23.2649 68.2747 23.292V23.4153C68.2747 23.4273 68.2805 23.4393 68.2892 23.4454C68.2978 23.4544 68.3094 23.4604 68.3209 23.4604H68.3411C69.8659 23.4604 70.4579 24.9698 70.9777 26.3019C71.0095 26.3831 71.0383 26.4612 71.0701 26.5364C71.5697 27.7993 71.9336 29.1223 72.153 30.4694C72.3321 31.5639 72.4158 32.6825 72.4014 33.792C72.4014 33.804 72.4072 33.8161 72.4158 33.8251C72.4216 33.8341 72.4331 33.8371 72.4447 33.8371H74.0041V36.7207H72.849C72.8259 36.7207 72.8057 36.7387 72.8057 36.7628C72.7623 37.6408 72.5256 38.4707 72.101 39.2314C72.0953 39.2435 72.0953 39.2555 72.0982 39.2705C72.1039 39.2826 72.1126 39.2916 72.1241 39.2976C72.9558 39.6404 73.4121 40.0553 73.4121 40.4643V41.5918C73.4121 42.3676 71.7083 42.984 69.0718 43.1614C69.0573 43.1614 69.0458 43.1674 69.04 43.1765C69.0313 43.1885 69.0284 43.2005 69.0313 43.2125L71.3473 58.6709H69.7359ZM38.9175 44.9655C38.8944 44.9685 38.877 44.9866 38.877 45.0106V55.9436C38.877 55.9647 38.8915 55.9857 38.9146 55.9887C38.9146 55.9887 38.9175 55.9887 38.9204 55.9887C38.9406 55.9887 38.9579 55.9737 38.9637 55.9557L39.0705 55.5648L40.0957 52.5819C40.0986 52.5759 40.1015 52.5669 40.0986 52.5609L38.9637 45.0046C38.9608 44.9806 38.9406 44.9655 38.9204 44.9655C38.9175 44.9655 38.9175 44.9655 38.9175 44.9655ZM43.46 42.6232C43.4542 42.6232 43.4484 42.6262 43.4455 42.6262C42.6774 42.8938 41.606 43.0772 40.3527 43.1614C40.3411 43.1614 40.3296 43.1674 40.3209 43.1765C40.3152 43.1885 40.3123 43.2005 40.3123 43.2125L41.1988 49.124C41.2017 49.1451 41.219 49.1601 41.2392 49.1631H41.2421C41.2595 49.1631 41.2768 49.1511 41.2826 49.1331L43.5004 42.6863C43.5062 42.6683 43.5033 42.6502 43.4888 42.6382C43.4831 42.6292 43.4715 42.6232 43.46 42.6232ZM64.46 42.981C64.4484 42.981 64.434 42.987 64.4253 42.999C64.4166 43.0111 64.4138 43.0261 64.4195 43.0411L65.153 45.3384C65.1588 45.3564 65.1761 45.3685 65.1963 45.3685C65.1963 45.3685 65.1992 45.3685 65.2021 45.3685C65.2223 45.3655 65.2397 45.3474 65.2397 45.3234V43.1283C65.2397 43.1073 65.2223 43.0862 65.1992 43.0832C64.948 43.0532 64.6996 43.0201 64.4657 42.981C64.4657 42.981 64.4628 42.981 64.46 42.981ZM53.3997 31.0978C53.4026 31.1009 53.4055 31.1039 53.4084 31.1069C53.4113 31.1069 53.4142 31.1099 53.4171 31.1129C53.4286 31.1219 53.4373 31.1279 53.443 31.1369C53.4517 31.1429 53.4575 31.149 53.4604 31.152C53.469 31.164 53.4806 31.176 53.4892 31.188C53.495 31.1971 53.4979 31.2031 53.5008 31.2061C53.5037 31.2151 53.5124 31.2271 53.5181 31.2422L53.5239 31.2512C53.5297 31.2662 53.5326 31.2843 53.5383 31.3023C53.5383 31.3083 53.5412 31.3113 53.5412 31.3143C53.5441 31.3354 53.547 31.3534 53.547 31.3715V32.3968C53.547 32.4179 53.5441 32.4359 53.5412 32.4539C53.5355 32.478 53.5528 32.5021 53.5759 32.5081C53.5788 32.5081 53.5817 32.5081 53.5845 32.5081C53.5961 32.5081 53.6048 32.5021 53.6134 32.496H53.6654C53.6741 32.5021 53.6827 32.5081 53.6943 32.5081C53.6972 32.5081 53.7001 32.5081 53.7029 32.5051C53.726 32.5021 53.7434 32.478 53.7376 32.4539C53.7347 32.4359 53.7318 32.4179 53.7318 32.3968V32.1893C53.7318 32.1863 53.7318 32.1833 53.7318 32.1803V31.591C53.7318 31.588 53.7318 31.585 53.7318 31.5819V31.3685C53.7318 31.3534 53.7347 31.3354 53.7376 31.3173C53.7376 31.3113 53.7405 31.3083 53.7405 31.3023C53.7434 31.2843 53.7491 31.2692 53.7549 31.2542C53.7549 31.2512 53.7636 31.2332 53.7636 31.2332C53.7665 31.2271 53.7723 31.2151 53.778 31.2061C53.778 31.2061 53.7896 31.188 53.7896 31.185C53.7982 31.176 53.8069 31.164 53.8156 31.155C53.8242 31.146 53.8271 31.1429 53.8329 31.1369C53.8416 31.1309 53.8473 31.1249 53.856 31.1159C53.8618 31.1159 53.8647 31.1099 53.8675 31.1069C53.8849 31.0948 53.8935 31.0738 53.8878 31.0527C53.882 31.0347 53.8675 31.0197 53.8473 31.0197H53.4286C53.4055 31.0197 53.3853 31.0407 53.3853 31.0648C53.3853 31.0798 53.3911 31.0888 53.3997 31.0978Z" fill="#C48860"/>
</g>
<path d="M67.3786 43.2544C67.3729 43.2573 67.37 43.2573 67.3672 43.2544L67.3729 43.2188L67.3786 43.2544Z" fill="#99673C"/>
<path d="M38.6598 43.2544C38.657 43.2573 38.6541 43.2573 38.6484 43.2544L38.6541 43.2188L38.6598 43.2544Z" fill="#99673C"/>
<path d="M36.9681 42.0601V43.1786C34.4095 42.9531 32.5469 42.2646 32.5469 41.4467V40.3281C32.5469 40.8303 33.2486 41.2843 34.3835 41.6121C34.6954 41.8676 35.0824 42.018 35.5011 42.018H36.558C36.6937 42.033 36.8295 42.0481 36.9681 42.0601Z" fill="#99673C"/>
<path d="M43.6838 42.0195L43.4615 42.672C42.6933 42.9366 41.6248 43.1231 40.3571 43.2072C40.1867 43.2193 40.0135 43.2283 39.8373 43.2343C39.7824 43.2373 39.7276 43.2403 39.6727 43.2403C39.5456 43.2463 39.4157 43.2493 39.2857 43.2523C39.2395 43.2523 39.1904 43.2554 39.1413 43.2554C39.0692 43.2554 38.9941 43.2554 38.9219 43.2554V42.1368C39.7189 42.1338 40.464 42.0947 41.1368 42.0195H43.6838Z" fill="#99673C"/>
<path d="M64.4641 43.0298C64.7009 43.0659 64.9463 43.102 65.2004 43.1291V42.0195H64.1406L64.4641 43.0298Z" fill="#99673C"/>
<path d="M67.4979 42.1397C67.3795 42.1397 67.2639 42.1367 67.1484 42.1367V43.2522C67.1571 43.2552 67.1658 43.2552 67.1773 43.2552C67.238 43.2552 67.3015 43.2552 67.365 43.2552C67.3679 43.2582 67.3708 43.2582 67.3737 43.2552H67.3766C67.417 43.2582 67.4574 43.2582 67.4979 43.2582C67.6105 43.2582 67.7202 43.2552 67.83 43.2552C67.879 43.2552 67.9281 43.2522 67.9743 43.2522C68.0205 43.2522 68.0639 43.2522 68.1101 43.2492C68.1678 43.2492 68.2256 43.2462 68.2862 43.2462C68.3382 43.2432 68.3873 43.2402 68.4393 43.2402C68.4913 43.2372 68.5404 43.2372 68.5894 43.2342C68.6414 43.2312 68.6905 43.2282 68.7425 43.2252C68.8551 43.2191 68.9677 43.2131 69.0775 43.2071C71.6823 43.0327 73.4611 42.4253 73.4611 41.5924V40.4648C73.4611 41.4661 70.9372 42.1397 67.4979 42.1397Z" fill="#99673C"/>
<mask id="mask1_40003178_11895" style="mask-type:luminance" maskUnits="userSpaceOnUse" x="30" y="33" width="44" height="5">
<path d="M30.0859 33.2461H73.8677V37.0949H30.0859V33.2461Z" fill="white"/>
</mask>
<g mask="url(#mask1_40003178_11895)">
<path d="M74.0467 33.7891V36.7629H30.0859V33.7891H34.1722C34.2068 33.8642 34.2472 33.9394 34.2934 34.0086C35.0125 35.1151 36.7596 35.1903 38.1977 34.1769C38.3681 34.0567 38.5269 33.9274 38.6742 33.7891H50.8751C51.0542 33.8733 51.2505 33.9214 51.4585 33.9214H55.819C56.0269 33.9214 56.2233 33.8733 56.4024 33.7891H67.4337C68.9469 34.9317 70.7345 35.061 71.5142 34.0477C71.5777 33.9665 71.6297 33.8793 71.6788 33.7891H74.0467Z" fill="#99673C"/>
</g>
<mask id="mask2_40003178_11895" style="mask-type:luminance" maskUnits="userSpaceOnUse" x="72" y="33" width="2" height="5">
<path d="M72.0547 33.2461H73.8711V37.0949H72.0547V33.2461Z" fill="white"/>
</mask>
<g mask="url(#mask2_40003178_11895)">
<path d="M74.0545 33.7891V36.7629H72.2266V36.5043C72.3392 35.7796 72.4403 34.8595 72.4518 33.7891H74.0545Z" fill="#99673C"/>
</g>
<path d="M60.7031 25.9296L60.7436 25.25L62.9816 25.3913L62.944 26.0739L60.7031 25.9296Z" fill="#99673C"/>
<path d="M52.6406 29.8828H54.639V30.4902H52.6406V29.8828Z" fill="#99673C"/>
<path d="M51.5859 31.582H53.5872V32.1894H51.5859V31.582Z" fill="#99673C"/>
<path d="M53.6875 31.582H55.6858V32.1894H53.6875V31.582Z" fill="#99673C"/>
<path d="M33.6406 39.974C33.6406 41.1045 34.4752 42.0186 35.5061 42.0186H36.9731V36.7656H33.6406V39.974Z" fill="#8ECAE6"/>
<path d="M38.9219 38.1133V42.0192H42.0089L44.5473 38.1133H38.9219Z" fill="#8ECAE6"/>
<path d="M44.0338 29.8367V33.7908H38.6769C38.5297 33.9291 38.3708 34.0584 38.2004 34.1787C36.7623 35.192 35.0152 35.1168 34.2962 34.0103C34.2499 33.9411 34.2095 33.8659 34.1749 33.7908H33.6406V29.1181H33.6435C33.6753 26.0631 35.5264 23.5343 37.955 23.0352L39.5173 23.414V22.9961C41.2037 23.2637 42.6361 24.5025 43.41 26.2285C43.0981 26.5412 42.9047 26.9802 42.9047 27.4673V27.5214L39.6183 28.9738L40.7995 32.4497L43.9096 29.8367H44.0338Z" fill="#8ECAE6"/>
<path d="M54.7714 41.0841L57.7949 53.5295L60.4978 52.7778L65.1992 51.4638V45.3238L64.1393 42.0192H65.1992V38.1133H55.6059C54.8667 38.8379 54.4941 39.9505 54.7714 41.0841Z" fill="#8ECAE6"/>
<path d="M67.1687 36.7656V38.1127H67.1484V42.0186H67.5325C70.3799 42.0186 72.7074 39.6943 72.8518 36.7656H67.1687Z" fill="#8ECAE6"/>
<path d="M43.7891 22.4102L43.792 22.4342L43.8382 22.8792L44.1327 25.7267L44.459 25.6486V23.0687H44.6352V25.6065L44.6525 25.6035L44.9124 25.5403V23.0687H45.0886V25.5012L45.103 25.4952L45.3658 25.4351V23.0687H45.542V25.393L45.5564 25.39L45.8192 25.3268V23.0687H45.9953V25.2847L46.0098 25.2817L46.2754 25.2186V23.0687H46.4487V25.1765L46.5209 25.1614C46.6451 25.1314 46.7693 25.1795 46.8472 25.2727L47.0754 22.8792L47.1187 22.4102H43.7891ZM46.4747 26.1267L46.4487 26.1327V26.2199H46.4747L46.7577 26.2078L46.7721 26.0485C46.7548 26.0575 46.7375 26.0635 46.7173 26.0695L46.4747 26.1267ZM46.1368 26.2319L46.2754 26.2259V26.1748L46.1137 26.2108C46.1224 26.2169 46.1311 26.2259 46.1368 26.2319Z" fill="#8ECAE6"/>
<mask id="mask3_40003178_11895" style="mask-type:luminance" maskUnits="userSpaceOnUse" x="66" y="42" width="7" height="17">
<path d="M66.8828 42.4844H72.0577V58.8778H66.8828V42.4844Z" fill="white"/>
</mask>
<g mask="url(#mask3_40003178_11895)">
<path d="M67.5041 43.2581C67.4637 43.2581 67.4232 43.2581 67.3828 43.2551L69.7046 58.7165H71.4055L69.0837 43.207C68.5841 43.2401 68.0557 43.2581 67.5041 43.2581Z" fill="#E3DCBC"/>
</g>
<path d="M67.1484 43.2539V44.6882L67.365 43.2539C67.3015 43.2539 67.238 43.2539 67.1773 43.2539H67.1484Z" fill="#E3DCBC"/>
<path d="M72.1414 39.2539C71.2231 40.9077 69.502 42.0172 67.5325 42.0172H67.1484V42.1345C67.2639 42.1345 67.3795 42.1375 67.4979 42.1375C70.9372 42.1375 73.4611 41.464 73.4611 40.4627C73.4611 40.0237 72.976 39.5967 72.1414 39.2539Z" fill="#E3DCBC"/>
<path d="M61.1754 24.6259L62.625 24.7191C62.8445 24.7311 63.0091 24.9266 62.9976 25.1551L62.9831 25.3896L60.7422 25.2453L60.7566 25.0108C60.7682 24.7853 60.9559 24.6109 61.1754 24.6259Z" fill="#E3DCBC"/>
<path d="M62.9396 26.0707L62.9252 26.3052V26.3082L61.5391 25.9805L62.9396 26.0707Z" fill="#E3DCBC"/>
<path d="M52.6406 30.6958C52.6406 30.9002 52.7966 31.0626 52.9929 31.0626H54.2867C54.483 31.0626 54.639 30.9002 54.639 30.6958V30.4883H52.6406V30.6958Z" fill="#E3DCBC"/>
<mask id="mask4_40003178_11895" style="mask-type:luminance" maskUnits="userSpaceOnUse" x="55" y="54" width="14" height="5">
<path d="M55.7891 54.8008H68.3567V58.8781H55.7891V54.8008Z" fill="white"/>
</mask>
<g mask="url(#mask4_40003178_11895)">
<path d="M67.7666 57.5337H62.6581L61.6618 55.48H61.2084L60.9774 54.9628L60.9456 54.8906H57.2348C56.8507 54.8906 56.5071 55.1191 56.2559 55.492C56.0075 55.8618 55.8516 56.376 55.8516 56.9443V58.126H57.281V58.7184H67.7666C67.9023 58.7184 68.012 58.6071 68.012 58.4688V57.7862C68.012 57.6479 67.9023 57.5337 67.7666 57.5337Z" fill="#E3DCBC"/>
</g>
<mask id="mask5_40003178_11895" style="mask-type:luminance" maskUnits="userSpaceOnUse" x="38" y="54" width="13" height="5">
<path d="M38.7812 54.8008H50.6096V58.8781H38.7812V54.8008Z" fill="white"/>
</mask>
<g mask="url(#mask5_40003178_11895)">
<path d="M50.0032 56.9443V58.126H48.5737V58.7184H38.9141V57.5337H42.983L44.0197 55.48H44.6463L44.8773 54.9628L44.9091 54.8906H48.6199C49.004 54.8906 49.3476 55.1191 49.5989 55.492C49.8501 55.8618 50.0032 56.376 50.0032 56.9443Z" fill="#E3DCBC"/>
</g>
<path d="M40.3571 43.207C40.1867 43.2191 40.0135 43.2281 39.8373 43.2341C39.7824 43.2371 39.7276 43.2401 39.6727 43.2401C39.5456 43.2461 39.4157 43.2491 39.2857 43.2521C39.2395 43.2521 39.1904 43.2551 39.1413 43.2551C39.0692 43.2551 38.9941 43.2551 38.9219 43.2551V45.0112L40.0568 52.5674L41.2437 49.1155L40.3571 43.207Z" fill="#E3DCBC"/>
<mask id="mask6_40003178_11895" style="mask-type:luminance" maskUnits="userSpaceOnUse" x="34" y="42" width="4" height="17">
<path d="M34.3516 42.4844H37.3087V58.8778H34.3516V42.4844Z" fill="white"/>
</mask>
<g mask="url(#mask6_40003178_11895)">
<path d="M34.6172 58.7153H36.3152L36.9765 54.3493V43.1788C36.9678 43.1788 36.9621 43.1788 36.9534 43.1758L34.6172 58.7153Z" fill="#E3DCBC"/>
</g>
<path d="M34.19 41.4266C34.1843 41.4206 34.1785 41.4146 34.1727 41.4086C34.1554 41.3876 34.138 41.3695 34.1236 41.3485C34.0399 41.2492 33.9648 41.141 33.9012 41.0237C33.8926 41.0057 33.8839 40.9906 33.8753 40.9726C33.8666 40.9576 33.8579 40.9395 33.8493 40.9215C33.8435 40.9095 33.8377 40.8944 33.8291 40.8824C33.8204 40.8613 33.8117 40.8433 33.806 40.8223C33.7973 40.8072 33.7915 40.7922 33.7857 40.7741C33.7828 40.7681 33.78 40.7591 33.7771 40.7531C33.7655 40.726 33.7569 40.702 33.7482 40.6749C33.728 40.6088 33.7078 40.5426 33.6933 40.4765C33.6876 40.4584 33.6847 40.4404 33.6818 40.4223C33.676 40.4013 33.6731 40.3772 33.6702 40.3562C33.6673 40.3442 33.6644 40.3321 33.6644 40.3201C33.6587 40.2961 33.6558 40.272 33.6529 40.2449C33.65 40.2299 33.6471 40.2119 33.6471 40.1938C33.6442 40.1758 33.6442 40.1547 33.6442 40.1367C33.6385 40.0826 33.6356 40.0254 33.6356 39.9713V39.3008C32.9483 39.5924 32.5469 39.9443 32.5469 40.3261C32.5469 40.8253 33.2486 41.2823 34.3835 41.6101C34.3373 41.571 34.2911 41.5289 34.2478 41.4868C34.2276 41.4657 34.2074 41.4447 34.19 41.4266Z" fill="#E3DCBC"/>
<path d="M36.9726 42.0616V42.0195H36.5625C36.6982 42.0346 36.834 42.0496 36.9726 42.0616Z" fill="#E3DCBC"/>
<path d="M38.9219 42.0195V42.1368C39.7189 42.1338 40.464 42.0947 41.1368 42.0195H38.9219Z" fill="#E3DCBC"/>
<path d="M54.2867 29.3047H52.9929C52.7966 29.3047 52.6406 29.4701 52.6406 29.6715V29.882H54.639V29.6715C54.639 29.4701 54.483 29.3047 54.2867 29.3047Z" fill="#E3DCBC"/>
<path d="M53.2349 31.0078H51.9382C51.7448 31.0078 51.5859 31.1702 51.5859 31.3747V31.5821H53.5872V31.3747C53.5872 31.1702 53.4283 31.0078 53.2349 31.0078Z" fill="#E3DCBC"/>
<path d="M51.5859 32.3989C51.5859 32.6033 51.7448 32.7657 51.9382 32.7657H53.2349C53.4283 32.7657 53.5872 32.6033 53.5872 32.3989V32.1914H51.5859V32.3989Z" fill="#E3DCBC"/>
<path d="M55.3364 31.0078H54.0398C53.8463 31.0078 53.6875 31.1702 53.6875 31.3747V31.5821H55.6887V31.3747C55.6887 31.1702 55.5299 31.0078 55.3364 31.0078Z" fill="#E3DCBC"/>
<path d="M53.6875 32.3989C53.6875 32.6033 53.8463 32.7657 54.0398 32.7657H55.3364C55.5299 32.7657 55.6887 32.6033 55.6887 32.3989V32.1914H53.6875V32.3989Z" fill="#E3DCBC"/>
<mask id="mask7_40003178_11895" style="mask-type:luminance" maskUnits="userSpaceOnUse" x="63" y="15" width="10" height="10">
<path d="M63.9219 15.0273H72.7932V24.0119H63.9219V15.0273Z" fill="white"/>
</mask>
<g mask="url(#mask7_40003178_11895)">
<path d="M72.157 18.1133V23.2941H68.325V22.1786C68.6513 22.1004 68.9574 21.9771 69.2346 21.8148C69.2346 21.8117 69.2346 21.8087 69.2375 21.8057C69.2548 21.7396 69.2721 21.6734 69.2866 21.6103C69.2895 21.6013 69.2924 21.5922 69.2924 21.5802C69.3068 21.5231 69.3184 21.463 69.327 21.4058C69.3299 21.3998 69.3299 21.3938 69.3328 21.3878C69.3415 21.3276 69.3501 21.2675 69.3559 21.2074C69.3588 21.1953 69.3588 21.1863 69.3588 21.1743C69.3674 21.1202 69.3703 21.0691 69.3732 21.0179C69.3732 21.0119 69.3732 21.0059 69.3761 20.9999C69.3761 20.9458 69.379 20.8916 69.379 20.8405V20.7984C69.379 20.7533 69.3761 20.7052 69.3761 20.6601C69.3761 20.6541 69.3761 20.6481 69.3761 20.6451C69.3732 20.594 69.3674 20.5459 69.3646 20.5008C69.3617 20.4887 69.3617 20.4737 69.3588 20.4617C69.353 20.4166 69.3472 20.3684 69.3415 20.3233C69.3299 20.2572 69.3155 20.191 69.3039 20.1279C69.2981 20.1159 69.2952 20.1008 69.2924 20.0858C69.2808 20.0317 69.2664 19.9806 69.2519 19.9264C69.249 19.9234 69.249 19.9234 69.249 19.9204C69.431 19.8513 69.5667 19.6739 69.5811 19.4574C69.6014 19.1657 69.3905 18.9101 69.1104 18.8891C68.9401 18.877 68.7812 18.9522 68.6801 19.0815C68.608 19.0274 68.556 18.9823 68.5213 18.9492C68.0419 18.5312 68.0882 18.2817 67.6723 18.1133C67.45 18.0261 67.2218 18.0081 66.9908 17.7825C66.8406 17.6352 66.8233 17.527 66.7424 17.4277C66.5923 17.2443 66.1331 17.1481 65.2437 17.3766C64.7325 17.8938 64.4207 18.5884 64.4207 19.3461C64.4207 19.4363 64.4235 19.5235 64.4322 19.6107C64.5506 20.8255 65.466 21.8238 66.6847 22.1515V23.2941H64.3138V19.6258C63.9355 18.9402 64.1088 18.1764 64.181 17.8637C64.4813 16.5377 65.7173 15.0312 67.4586 15.0312C68.0535 15.0312 68.6137 15.1666 69.096 15.4101C69.2346 15.3861 69.379 15.371 69.5263 15.371C70.9788 15.371 72.157 16.6008 72.157 18.1133Z" fill="#E3DCBC"/>
</g>
<path d="M69.287 21.5794C69.2928 21.5523 69.3015 21.5223 69.3072 21.4922C69.2986 21.5313 69.2899 21.5704 69.2812 21.6095C69.2841 21.6004 69.287 21.5914 69.287 21.5794Z" fill="#E3DCBC"/>
<path d="M69.3254 20.2234C69.311 20.1482 69.2937 20.0761 69.2734 20.0039C69.2821 20.031 69.2879 20.058 69.2937 20.0851C69.2965 20.1001 69.2994 20.1152 69.3052 20.1272C69.311 20.1603 69.3168 20.1903 69.3254 20.2234Z" fill="#E3DCBC"/>
<path d="M69.3269 21.4027C69.3269 21.3996 69.3298 21.3966 69.3298 21.3906C69.3241 21.4237 69.3183 21.4568 69.3125 21.4899C69.3154 21.4598 69.3212 21.4327 69.3269 21.4027Z" fill="#E3DCBC"/>
<path d="M69.3545 21.1719C69.3573 21.1449 69.3631 21.1178 69.3631 21.0938C69.3602 21.1298 69.3573 21.1659 69.3516 21.205C69.3545 21.193 69.3545 21.184 69.3545 21.1719Z" fill="#E3DCBC"/>
<path d="M69.373 21.0141C69.373 21.0081 69.373 21.0021 69.3759 20.9961C69.373 21.0262 69.3701 21.0592 69.3672 21.0923C69.3701 21.0653 69.3701 21.0412 69.373 21.0141Z" fill="#E3DCBC"/>
<path d="M57.2346 32.4531C57.2346 32.8591 57.0758 33.2259 56.8216 33.4935C56.5646 33.7611 56.2123 33.9265 55.8225 33.9265H51.4619C50.6822 33.9265 50.0469 33.265 50.0469 32.4531H51.5947C51.6207 32.6305 51.768 32.7688 51.9442 32.7688H53.2408C53.4198 32.7688 53.5642 32.6305 53.5902 32.4531H53.6942C53.7201 32.6305 53.8645 32.7688 54.0436 32.7688H55.3373C55.5163 32.7688 55.6636 32.6305 55.6867 32.4531H57.2346Z" fill="#3D3D3D"/>
<mask id="mask8_40003178_11895" style="mask-type:luminance" maskUnits="userSpaceOnUse" x="36" y="36" width="32" height="23">
<path d="M36.5625 36.3242H67.612V58.8758H36.5625V36.3242Z" fill="white"/>
</mask>
<g mask="url(#mask8_40003178_11895)">
<path d="M67.1635 36.7656V38.1127H67.1433V58.7158H65.194V38.1127H38.918V58.7158H36.9688V36.7656H67.1635Z" fill="#3D3D3D"/>
</g>
<path d="M67.0156 43.25L67.1456 43.253V43.25C67.1023 43.25 67.0589 43.25 67.0156 43.25Z" fill="#3D3D3D"/>
<path d="M72.4437 33.7909H71.6755C71.6293 33.8811 71.5773 33.9683 71.5138 34.0495C70.7341 35.0628 68.9494 34.9335 67.4333 33.7909H62.5703L63.1277 30.4473H63.2605L66.3678 33.0572L67.5517 29.5843L64.2654 28.129V28.0779C64.2654 27.6118 64.0893 27.1878 63.8005 26.8781C64.2943 25.4589 65.3513 24.3373 66.6796 23.784V24.202L68.3199 23.8051V23.4142C69.9862 23.3962 70.5724 25.1612 71.1095 26.5203C71.6091 27.7862 71.9758 29.1092 72.1953 30.4593C72.3946 31.6741 72.4581 32.7987 72.4437 33.7909Z" fill="#3D3D3D"/>
<path d="M61.4682 27.7642H60.2149C60.1773 27.7642 60.1484 27.7341 60.1484 27.6981C60.1484 27.659 60.1773 27.6289 60.2149 27.6289H61.4682C61.5028 27.6289 61.5317 27.659 61.5317 27.6981C61.5317 27.7341 61.5028 27.7642 61.4682 27.7642Z" fill="#3D3D3D"/>
<path d="M62.0085 27.0603C62.0028 27.0603 61.9999 27.0603 61.997 27.0603L61.1104 26.8979C61.0729 26.8919 61.0498 26.8558 61.0556 26.8198C61.0613 26.7807 61.096 26.7566 61.1307 26.7626L62.0201 26.925C62.0547 26.931 62.0778 26.9671 62.0721 27.0032C62.0663 27.0363 62.0403 27.0603 62.0085 27.0603Z" fill="#3D3D3D"/>
<path d="M61.3186 28.7203H60.3945C60.357 28.7203 60.3281 28.6903 60.3281 28.6512C60.3281 28.6121 60.357 28.582 60.3945 28.582H61.3186C61.3533 28.582 61.3851 28.6121 61.3851 28.6512C61.3851 28.6903 61.3533 28.7203 61.3186 28.7203Z" fill="#3D3D3D"/>
<path d="M46.9575 27.1539H45.7042C45.6695 27.1539 45.6406 27.1239 45.6406 27.0848C45.6406 27.0457 45.6695 27.0156 45.7042 27.0156H46.9575C46.995 27.0156 47.0239 27.0457 47.0239 27.0848C47.0239 27.1239 46.995 27.1539 46.9575 27.1539Z" fill="#3D3D3D"/>
<path d="M45.1582 26.4509C45.1264 26.4509 45.1004 26.4269 45.0946 26.3938C45.0889 26.3547 45.112 26.3216 45.1466 26.3126L46.0361 26.1533C46.0707 26.1473 46.1054 26.1713 46.1111 26.2074C46.1169 26.2465 46.0938 26.2826 46.0563 26.2886L45.1697 26.4479C45.1668 26.4509 45.1639 26.4509 45.1582 26.4509Z" fill="#3D3D3D"/>
<path d="M46.7689 28.108H45.8448C45.8101 28.108 45.7812 28.0779 45.7812 28.0418C45.7812 28.0027 45.8101 27.9727 45.8448 27.9727H46.7689C46.8064 27.9727 46.8353 28.0027 46.8353 28.0418C46.8353 28.0779 46.8064 28.108 46.7689 28.108Z" fill="#3D3D3D"/>
<path d="M61.6642 55.5486C61.6382 55.5486 61.6151 55.5335 61.6036 55.5065L60.6852 53.2874C60.6708 53.2513 60.6852 53.2122 60.7199 53.1972C60.7517 53.1822 60.7921 53.1972 60.8065 53.2333L61.7248 55.4523C61.7393 55.4884 61.7249 55.5275 61.6902 55.5426C61.6815 55.5486 61.6729 55.5486 61.6642 55.5486Z" fill="#3D3D3D"/>
<path d="M60.438 52.5673C60.4322 52.5673 60.4235 52.5703 60.4177 52.5703C60.3917 52.5703 60.3629 52.5523 60.3542 52.5222C59.7391 50.4956 58.2115 45.3508 57.3191 41.3607C57.1459 40.5909 56.7907 39.0033 57.5675 38.1133H57.7523C57.735 38.1283 57.7177 38.1434 57.7032 38.1614C56.9235 38.9853 57.2758 40.5699 57.4462 41.3306C58.3385 45.3147 59.8662 50.4535 60.4813 52.4801C60.4928 52.5162 60.4726 52.5553 60.438 52.5673Z" fill="#3D3D3D"/>
<path d="M47.1375 55.4102H44.0274C43.9898 55.4102 43.9609 55.4402 43.9609 55.4763C43.9609 55.5154 43.9898 55.5455 44.0274 55.5455H47.1375C47.175 55.5455 47.2039 55.5154 47.2039 55.4763C47.2039 55.4402 47.175 55.4102 47.1375 55.4102Z" fill="#3D3D3D"/>
<path d="M48.0134 39.1086C47.7333 38.6575 47.3954 38.3358 47.0864 38.1133H46.8467C47.1846 38.3268 47.5831 38.6665 47.9008 39.1837C48.1578 39.5987 48.4726 40.2211 48.2531 40.8285C47.2597 43.5587 46.2865 46.2739 45.296 49.0463L43.0233 55.3878H42.8125V55.5712H43.3236V55.3878H43.1648L45.4173 49.0944C46.4107 46.322 47.3839 43.6068 48.3773 40.8766C48.6198 40.2121 48.2849 39.5476 48.0134 39.1086Z" fill="#3D3D3D"/>
<path d="M47.6772 22.3834L43.1953 22.4405L43.7324 21.5655L47.1516 21.5234L47.6772 22.3834Z" fill="#3D3D3D"/>
<path d="M44.6582 25.6039L44.6408 25.6069L44.482 25.646L44.4647 24.1275L44.4531 23.0811H44.4647L44.6293 23.0781L44.6408 24.1245L44.6582 25.6039Z" fill="#3D3D3D"/>
<path d="M45.1006 25.4948L45.0861 25.5008L44.9273 25.5368L44.91 24.1206L44.8984 23.0742H45.0746L45.0861 24.1176L45.1006 25.4948Z" fill="#3D3D3D"/>
<path d="M45.5537 25.3916L45.5393 25.3946L45.3804 25.4307L45.3631 24.0957L45.3516 23.0703H45.5277L45.5393 24.1137L45.5537 25.3916Z" fill="#3D3D3D"/>
<path d="M46.0146 25.2816L46.0002 25.2846L45.8414 25.3237L45.8241 24.0878L45.8125 23.0655L45.9887 23.0625V23.0685L46.0002 24.0848L46.0146 25.2816Z" fill="#3D3D3D"/>
<path d="M46.4504 25.1745L46.2887 25.2136L46.2772 24.0259L46.2656 23.0547H46.4389V23.0667L46.4504 24.077L46.4649 25.1715L46.4504 25.1745Z" fill="#3D3D3D"/>
<path d="M46.473 26.2221H46.447L46.2969 26.2281V26.171L46.447 26.1349L46.473 26.1289V26.2221Z" fill="#3D3D3D"/>
<mask id="mask9_40003178_11895" style="mask-type:luminance" maskUnits="userSpaceOnUse" x="34" y="15" width="8" height="8">
<path d="M34.3516 15.0273H41.7443V22.4724H34.3516V15.0273Z" fill="white"/>
</mask>
<g mask="url(#mask9_40003178_11895)">
<path d="M37.0907 21.0673C37.1109 21.0192 37.1283 20.9711 37.1456 20.923C37.1543 20.902 37.16 20.8809 37.1687 20.8569C37.1803 20.8268 37.1918 20.7937 37.2005 20.7637C37.2091 20.7426 37.2149 20.7216 37.2207 20.7035C37.2351 20.6614 37.2467 20.6163 37.2582 20.5772C37.264 20.5562 37.2698 20.5351 37.2756 20.5141C37.2842 20.487 37.29 20.46 37.2987 20.4329C37.3044 20.4118 37.3073 20.3908 37.3131 20.3698C37.3218 20.3337 37.3304 20.3006 37.3362 20.2645C37.3391 20.2465 37.3449 20.2284 37.3477 20.2074C37.3506 20.1833 37.3564 20.1593 37.3593 20.1382C37.3622 20.1172 37.3651 20.0931 37.368 20.0751C37.3737 20.045 37.3766 20.0149 37.3795 19.9879C37.3824 19.9728 37.3824 19.9548 37.3853 19.9368C37.3882 19.9157 37.3882 19.8947 37.3911 19.8736C37.3911 19.8556 37.3911 19.8375 37.394 19.8165C37.394 19.7924 37.394 19.7684 37.394 19.7443C37.394 19.7293 37.394 19.7143 37.394 19.6992C37.394 19.6812 37.394 19.6601 37.3911 19.6391C37.3911 19.624 37.3911 19.612 37.3911 19.597C37.3882 19.5729 37.3853 19.5489 37.3824 19.5278C37.3824 19.5158 37.3795 19.5038 37.3795 19.4917C37.3766 19.4737 37.3737 19.4527 37.3708 19.4316C37.368 19.4226 37.368 19.4136 37.3651 19.4045C37.3593 19.3835 37.3564 19.3594 37.3506 19.3384C37.3477 19.3294 37.3449 19.3204 37.3449 19.3143C37.3391 19.2933 37.3333 19.2722 37.3275 19.2512C37.3246 19.2482 37.3246 19.2422 37.3218 19.2392C37.316 19.2181 37.3073 19.1971 37.2987 19.176C37.2958 19.17 37.2958 19.164 37.2929 19.158C37.2842 19.1369 37.2756 19.1159 37.2669 19.0948C37.2409 19.0407 37.2034 18.9716 37.1629 18.8844C37.1052 18.9084 37.0416 18.9234 36.9752 18.9234C36.6922 18.9234 36.4641 18.6829 36.4641 18.3912C36.4641 18.0966 36.6922 17.859 36.9752 17.859C37.0012 17.859 37.0243 17.862 37.0503 17.865C37.0821 17.7387 37.1283 17.6335 37.1774 17.5283H41.5986V16.5721C41.5986 15.8835 41.0643 15.3242 40.4001 15.3242H36.4641V15.3302C36.2302 15.3633 35.7855 15.4625 35.3754 15.8204C34.6794 16.4307 34.6303 17.2997 34.6246 17.4501C34.6506 17.7568 34.6737 18.2259 34.6246 18.7972C34.5524 19.6631 34.3849 19.9759 34.3993 20.5712C34.408 20.9651 34.4975 21.5364 34.8989 22.231H37.8849V21.3861C37.6019 21.3199 37.3304 21.2207 37.085 21.0854C37.0878 21.0794 37.0878 21.0734 37.0907 21.0673Z" fill="#3D3D3D"/>
</g>
<path d="M41.7334 21.6195C41.7132 21.4571 41.6497 21.376 41.6093 21.1474C41.5746 20.958 41.5833 20.7956 41.5948 20.6874V19.5508C41.2541 20.4228 40.4801 21.1023 39.5156 21.3609V22.2299H41.5948C41.7392 21.9623 41.7508 21.7608 41.7334 21.6195Z" fill="#3D3D3D"/>
<path d="M39.0801 18.3189C39.0801 18.4362 39.0252 18.4963 38.9126 18.4963C38.7999 18.4963 38.7422 18.4362 38.7422 18.3189C38.7422 18.2017 38.7999 18.1445 38.9126 18.1445C39.0252 18.1445 39.0801 18.2017 39.0801 18.3189Z" fill="#3D3D3D"/>
<path d="M41.1504 18.3189C41.1504 18.4362 41.0926 18.4963 40.9829 18.4963C40.8703 18.4963 40.8125 18.4362 40.8125 18.3189C40.8125 18.2017 40.8703 18.1445 40.9829 18.1445C41.0926 18.1445 41.1504 18.2017 41.1504 18.3189Z" fill="#3D3D3D"/>
<path d="M40.1816 18.937H39.7774C39.7398 18.937 39.7109 18.9069 39.7109 18.8678C39.7109 18.8317 39.7398 18.7987 39.7774 18.7987H40.0748L39.8842 18.4258C39.8669 18.3897 39.8784 18.3506 39.9102 18.3326C39.942 18.3146 39.9824 18.3266 39.9997 18.3597L40.2423 18.8378C40.251 18.8588 40.251 18.8829 40.2394 18.9039C40.2279 18.925 40.2047 18.937 40.1816 18.937Z" fill="#3D3D3D"/>
<path d="M39.93 19.7281C39.6152 19.7281 39.312 19.5477 39.1416 19.256C39.1243 19.226 39.1329 19.1809 39.1647 19.1628C39.1965 19.1418 39.2369 19.1538 39.2542 19.1869C39.413 19.4575 39.7018 19.6138 39.9935 19.5868C40.3747 19.5537 40.571 19.223 40.5913 19.1869C40.6115 19.1538 40.6519 19.1418 40.6837 19.1628C40.7154 19.1809 40.7241 19.223 40.7068 19.256C40.6808 19.3011 40.4498 19.683 40.005 19.7251C39.979 19.7281 39.9531 19.7281 39.93 19.7281Z" fill="#3D3D3D"/>
<path d="M36.9949 18.6974C36.992 18.6974 36.9862 18.6974 36.9833 18.6943C36.9516 18.6883 36.7985 18.6492 36.7292 18.4989C36.657 18.3455 36.7032 18.1561 36.8389 18.0358C36.8678 18.0118 36.9082 18.0148 36.9313 18.0419C36.9573 18.0719 36.9516 18.117 36.9256 18.1411C36.836 18.2193 36.8043 18.3455 36.8476 18.4388C36.8909 18.532 36.9891 18.556 37.0093 18.562C37.044 18.5681 37.0671 18.6041 37.0613 18.6432C37.0555 18.6763 37.0266 18.6974 36.9949 18.6974Z" fill="#3D3D3D"/>
<path d="M67.4629 19.111C67.4629 19.2283 67.408 19.2854 67.2954 19.2854C67.1828 19.2854 67.125 19.2283 67.125 19.111C67.125 18.9937 67.1828 18.9336 67.2954 18.9336C67.408 18.9336 67.4629 18.9937 67.4629 19.111Z" fill="#3D3D3D"/>
<path d="M65.3847 19.111C65.3847 19.2283 65.3299 19.2854 65.2173 19.2854C65.1046 19.2854 65.0469 19.2283 65.0469 19.111C65.0469 18.9937 65.1046 18.9336 65.2173 18.9336C65.3299 18.9336 65.3847 18.9937 65.3847 19.111Z" fill="#3D3D3D"/>
<path d="M66.4238 19.7245H66.0195C65.9964 19.7245 65.9762 19.7094 65.9618 19.6914C65.9502 19.6704 65.9502 19.6433 65.9618 19.6222L66.2015 19.1472C66.2188 19.1141 66.2592 19.0991 66.291 19.1171C66.3228 19.1351 66.3372 19.1772 66.3199 19.2103L66.1293 19.5862H66.4238C66.4614 19.5862 66.4903 19.6162 66.4903 19.6553C66.4903 19.6914 66.4614 19.7245 66.4238 19.7245Z" fill="#3D3D3D"/>
<path d="M66.2712 20.5182C66.2453 20.5182 66.2222 20.5152 66.1962 20.5152C65.7486 20.4731 65.5175 20.0882 65.4944 20.0461C65.4742 20.013 65.4858 19.9709 65.5175 19.9499C65.5464 19.9318 65.5897 19.9439 65.6071 19.9739C65.6273 20.013 65.8265 20.3408 66.2077 20.3769C66.4994 20.4039 66.7882 20.2446 66.9441 19.9739C66.9643 19.9409 67.0047 19.9318 67.0365 19.9529C67.0654 19.9709 67.0769 20.013 67.0567 20.0461C66.8892 20.3378 66.586 20.5182 66.2712 20.5182Z" fill="#3D3D3D"/>
<path d="M69.1367 19.794C69.1136 19.794 69.0963 19.785 69.0818 19.767C69.0616 19.7339 69.0674 19.6918 69.0963 19.6707C69.1916 19.5986 69.232 19.4753 69.1944 19.3791C69.1569 19.2829 69.0587 19.2498 69.0414 19.2438C69.0067 19.2317 68.9836 19.1957 68.9952 19.1596C69.0039 19.1235 69.0414 19.1024 69.0761 19.1115C69.1194 19.1235 69.258 19.1746 69.3157 19.328C69.3764 19.4843 69.3186 19.6707 69.1742 19.782C69.1627 19.791 69.1482 19.794 69.1367 19.794Z" fill="#3D3D3D"/>
<path d="M61.5542 55.4102H58.8859C58.8541 55.4102 58.8281 55.4402 58.8281 55.4763C58.8281 55.5154 58.8541 55.5455 58.8859 55.5455H61.5542C61.5831 55.5455 61.6091 55.5154 61.6091 55.4763C61.6091 55.4402 61.5831 55.4102 61.5542 55.4102Z" fill="#3D3D3D"/>
</g>
<defs>
<clipPath id="clip0_40003178_11895">
<rect width="56" height="56" fill="white" transform="translate(24 9)"/>
</clipPath>
</defs>
</svg>
