<svg width="20" height="20" viewBox="0 0 20 20" fill="none" xmlns="http://www.w3.org/2000/svg">
<g clip-path="url(#clip0_6571_10514)">
<mask id="mask0_6571_10514" style="mask-type:luminance" maskUnits="userSpaceOnUse" x="0" y="0" width="20" height="20">
<path d="M0 0.398438H20V19.5953H0V0.398438Z" fill="white"/>
</mask>
<g mask="url(#mask0_6571_10514)">
<path d="M9.66511 0.398438C4.37447 0.398438 0.0703125 4.7026 0.0703125 9.99324C0.0703125 15.2835 4.37447 19.588 9.66511 19.588C14.9558 19.588 19.2599 15.2835 19.2599 9.99324C19.2599 8.91285 19.0721 7.87658 18.741 6.90669L17.1874 8.46029C17.2882 8.95535 17.3412 9.46822 17.3412 9.99324C17.3412 14.2253 13.8976 17.6689 9.66511 17.6689C5.43301 17.6689 1.98943 14.2253 1.98943 9.99324C1.98943 5.76073 5.43301 2.31715 9.66511 2.31715C11.2321 2.31715 12.6893 2.79117 13.9061 3.60075L15.2796 2.22729C13.6985 1.08173 11.7615 0.398438 9.66511 0.398438ZM18.5815 1.63872L8.70576 11.5149L5.54635 8.35504L4.18948 9.71191L8.70576 14.2282L19.9383 2.99559L18.5815 1.63872Z" fill="#0A2A3C"/>
</g>
</g>
<defs>
<clipPath id="clip0_6571_10514">
<rect width="20" height="20" fill="white"/>
</clipPath>
</defs>
</svg>
