<svg width="36" height="30" viewBox="0 0 36 30" fill="none" xmlns="http://www.w3.org/2000/svg">
<rect x="0.5" y="0.5" width="35" height="29" rx="4.5" stroke="#CF563F"/>
<path d="M22.7942 13.2074L22.5593 20.3083C22.5394 20.9165 22.2832 21.493 21.8452 21.9154C21.4072 22.3378 20.8218 22.5728 20.2133 22.5706H15.7524C15.1443 22.5728 14.5593 22.3382 14.1214 21.9164C13.6834 21.4945 13.4269 20.9187 13.4064 20.311L13.1715 13.2101C13.1732 13.0589 13.2331 12.9142 13.3389 12.8061C13.4446 12.698 13.5879 12.6349 13.739 12.6298C13.8902 12.6248 14.0374 12.6782 14.1501 12.779C14.2628 12.8798 14.3323 13.0202 14.344 13.1709L14.5789 20.2719C14.5905 20.5751 14.7191 20.862 14.9377 21.0723C15.1564 21.2827 15.4481 21.4001 15.7515 21.3998H20.2123C20.516 21.4001 20.808 21.2824 21.0267 21.0717C21.2454 20.8609 21.3738 20.5736 21.3849 20.2701L21.6198 13.1691C21.6316 13.0184 21.701 12.878 21.8137 12.7772C21.9264 12.6764 22.0737 12.623 22.2248 12.628C22.3759 12.633 22.5192 12.6962 22.625 12.8043C22.7307 12.9124 22.7907 13.0571 22.7923 13.2083L22.7942 13.2074ZM23.5698 10.8404C23.5698 10.9959 23.508 11.145 23.3981 11.2549C23.2881 11.3649 23.139 11.4267 22.9835 11.4267H12.9867C12.8312 11.4267 12.6821 11.3649 12.5721 11.2549C12.4622 11.145 12.4004 10.9959 12.4004 10.8404C12.4004 10.6849 12.4622 10.5358 12.5721 10.4258C12.6821 10.3159 12.8312 10.2541 12.9867 10.2541H14.8074C14.9933 10.2546 15.1727 10.1859 15.3107 10.0613C15.4487 9.9368 15.5354 9.76537 15.5539 9.58042C15.5971 9.1467 15.8003 8.74459 16.1237 8.45243C16.4472 8.16027 16.8678 7.99899 17.3037 8H18.6692C19.1051 7.99899 19.5258 8.16027 19.8492 8.45243C20.1727 8.74459 20.3758 9.1467 20.419 9.58042C20.4375 9.76537 20.5242 9.9368 20.6622 10.0613C20.8002 10.1859 20.9796 10.2546 21.1655 10.2541H22.9863C23.1418 10.2541 23.2909 10.3159 23.4008 10.4258C23.5108 10.5358 23.5725 10.6849 23.5725 10.8404H23.5698ZM16.5699 10.2605H19.4012C19.3227 10.0837 19.2712 9.89624 19.2482 9.70423C19.2338 9.55967 19.1662 9.42562 19.0586 9.32807C18.9509 9.23051 18.8109 9.1764 18.6656 9.17621H17.3C17.1548 9.1764 17.0147 9.23051 16.9071 9.32807C16.7994 9.42562 16.7318 9.55967 16.7174 9.70423C16.6951 9.89517 16.6445 10.0817 16.5672 10.2577L16.5699 10.2605ZM17.1608 19.1467V14.1496C17.1608 13.9941 17.099 13.845 16.989 13.735C16.8791 13.6251 16.73 13.5633 16.5745 13.5633C16.419 13.5633 16.2699 13.6251 16.1599 13.735C16.05 13.845 15.9882 13.9941 15.9882 14.1496V19.1458C15.9882 19.3012 16.05 19.4504 16.1599 19.5603C16.2699 19.6703 16.419 19.732 16.5745 19.732C16.73 19.732 16.8791 19.6703 16.989 19.5603C17.099 19.4504 17.1608 19.3022 17.1608 19.1467ZM19.9829 19.1467V14.1496C19.9829 13.9941 19.9212 13.845 19.8112 13.735C19.7013 13.6251 19.5521 13.5633 19.3966 13.5633C19.2411 13.5633 19.092 13.6251 18.9821 13.735C18.8721 13.845 18.8104 13.9941 18.8104 14.1496V19.1458C18.8104 19.3012 18.8721 19.4504 18.9821 19.5603C19.092 19.6703 19.2411 19.732 19.3966 19.732C19.5521 19.732 19.7013 19.6703 19.8112 19.5603C19.9212 19.4504 19.9829 19.3022 19.9829 19.1467Z" fill="#CF563F"/>
</svg>
