<svg width="12" height="12" viewBox="0 0 12 12" fill="none" xmlns="http://www.w3.org/2000/svg">
<g clip-path="url(#clip0_5699_4821)">
<path d="M0.399609 6.3744H0.964809V11.6C0.964809 11.6796 0.996416 11.7559 1.05268 11.8121C1.10894 11.8684 1.18524 11.9 1.26481 11.9C1.34437 11.9 1.42068 11.8684 1.47694 11.8121C1.5332 11.7559 1.56481 11.6796 1.56481 11.6V6.3744H5.22681C5.48441 6.3784 5.74281 6.3884 5.99881 6.3848C6.12308 6.3864 6.24761 6.3872 6.37241 6.3872C6.55201 6.3872 6.73241 6.378 6.91201 6.3744H10.434V11.6C10.434 11.6796 10.4656 11.7559 10.5219 11.8121C10.5781 11.8684 10.6544 11.9 10.734 11.9C10.8136 11.9 10.8899 11.8684 10.9461 11.8121C11.0024 11.7559 11.034 11.6796 11.034 11.6V6.3744H11.5996C11.6792 6.3744 11.7555 6.34279 11.8117 6.28653C11.868 6.23027 11.8996 6.15396 11.8996 6.0744C11.8996 5.99483 11.868 5.91852 11.8117 5.86226C11.7555 5.806 11.6792 5.7744 11.5996 5.7744H9.54761C9.57957 5.70007 9.59994 5.62129 9.60801 5.5408C9.61401 5.482 9.62081 5.334 9.62721 5.188C9.63161 5.086 9.63601 4.9852 9.64041 4.9224C9.64041 4.9148 9.64041 4.8824 9.64041 4.8756C9.63891 4.76337 9.60673 4.65369 9.54737 4.55843C9.488 4.46318 9.4037 4.38598 9.30361 4.3352C9.32681 3.9324 9.33921 3.4752 9.33921 2.9672C9.34651 2.33498 9.32114 1.7028 9.26321 1.0732C9.24679 0.871764 9.16279 0.681791 9.02483 0.534103C8.88687 0.386415 8.70306 0.28968 8.50321 0.259596C7.67597 0.140314 6.84047 0.0878779 6.00481 0.102796C5.16278 0.0872109 4.32089 0.140724 3.48761 0.262796C3.28921 0.293506 3.10691 0.390043 2.97001 0.536883C2.83311 0.683724 2.74956 0.872337 2.73281 1.0724C2.67494 1.70173 2.64971 2.33365 2.65721 2.9656C2.65721 3.4888 2.66868 3.94493 2.69161 4.334C2.58549 4.38906 2.49763 4.47374 2.4387 4.57776C2.37977 4.68178 2.35229 4.80067 2.35961 4.92C2.36401 4.9832 2.36841 5.084 2.37281 5.186C2.37921 5.332 2.38601 5.48 2.39161 5.5328C2.39979 5.61547 2.42057 5.6964 2.45321 5.7728H0.399609C0.320044 5.7728 0.243738 5.8044 0.187477 5.86066C0.131216 5.91692 0.0996094 5.99323 0.0996094 6.0728C0.0996094 6.15236 0.131216 6.22867 0.187477 6.28493C0.243738 6.34119 0.320044 6.3728 0.399609 6.3728V6.3744ZM3.33041 1.124C3.3355 1.05783 3.36262 0.995288 3.40743 0.946346C3.45224 0.897404 3.51215 0.864889 3.57761 0.853996C4.38117 0.737203 5.19297 0.686632 6.00481 0.702796C6.81114 0.687072 7.61741 0.737104 8.41561 0.852396C8.48211 0.862961 8.54307 0.895704 8.5886 0.945303C8.63414 0.994902 8.66156 1.05844 8.66641 1.1256C8.72262 1.73725 8.74719 2.3514 8.74001 2.9656C8.74001 3.44986 8.72908 3.88373 8.70721 4.2672H7.15161C7.03862 4.26726 6.92833 4.30174 6.83544 4.36606C6.74254 4.43037 6.67144 4.52146 6.63161 4.6272H5.36761C5.32783 4.52143 5.25674 4.43031 5.16383 4.36599C5.07092 4.30166 4.96061 4.2672 4.84761 4.2672H3.28841C3.26788 3.89733 3.25748 3.4628 3.25721 2.9636C3.25004 2.34955 3.27448 1.73553 3.33041 1.124ZM3.17921 5.668C3.12959 5.66433 3.08297 5.64282 3.04797 5.60746C3.01297 5.57209 2.99196 5.52525 2.98881 5.4756C2.98281 5.4232 2.97721 5.2916 2.97201 5.1612C2.96427 5.06264 2.96507 4.96361 2.97441 4.8652H4.81441C4.85414 4.97099 4.92522 5.06215 5.01814 5.12648C5.11106 5.19081 5.2214 5.22525 5.33441 5.2252H6.65801C6.77101 5.22519 6.88132 5.19073 6.97423 5.12641C7.06714 5.06208 7.13823 4.97096 7.17801 4.8652L9.03801 4.8812C9.03361 4.9476 9.02881 5.0536 9.02401 5.1612C9.01881 5.2916 9.01321 5.4236 9.00681 5.4812C9.00204 5.53139 8.97906 5.57809 8.94222 5.61251C8.90537 5.64692 8.85721 5.66666 8.80681 5.668C8.13641 5.7336 7.45921 5.7624 6.78241 5.7736H5.23961C4.55361 5.7636 3.86481 5.7344 3.17921 5.668Z" fill="#868686"/>
<path d="M7.4561 9.8C7.64169 9.79979 7.81961 9.72597 7.95084 9.59474C8.08207 9.46351 8.15589 9.28559 8.1561 9.1V8.712C8.15568 8.42039 8.03965 8.14085 7.83345 7.93465C7.62725 7.72845 7.34771 7.61242 7.0561 7.612H4.9457C4.65409 7.61242 4.37455 7.72845 4.16835 7.93465C3.96215 8.14085 3.84613 8.42039 3.8457 8.712V9.1C3.84591 9.28559 3.91973 9.46351 4.05096 9.59474C4.18219 9.72597 4.36012 9.79979 4.5457 9.8H5.7009V11.3H5.0209C4.94134 11.3 4.86503 11.3316 4.80877 11.3879C4.75251 11.4441 4.7209 11.5204 4.7209 11.6C4.7209 11.6796 4.75251 11.7559 4.80877 11.8121C4.86503 11.8684 4.94134 11.9 5.0209 11.9H6.9781C7.05767 11.9 7.13397 11.8684 7.19023 11.8121C7.2465 11.7559 7.2781 11.6796 7.2781 11.6C7.2781 11.5204 7.2465 11.4441 7.19023 11.3879C7.13397 11.3316 7.05767 11.3 6.9781 11.3H6.2981V9.8H7.4561ZM4.4457 9.1V8.712C4.44591 8.57946 4.49866 8.4524 4.59238 8.35868C4.68611 8.26496 4.81316 8.21221 4.9457 8.212H7.0561C7.18865 8.21221 7.3157 8.26496 7.40942 8.35868C7.50315 8.4524 7.55589 8.57946 7.5561 8.712V9.1C7.556 9.12649 7.54543 9.15186 7.5267 9.17059C7.50797 9.18932 7.48259 9.19989 7.4561 9.2H4.5457C4.51928 9.19989 4.49397 9.18938 4.47525 9.17074C4.45653 9.15209 4.44591 9.12642 4.4457 9.1Z" fill="#868686"/>
</g>
<defs>
<clipPath id="clip0_5699_4821">
<rect width="12" height="12" fill="white"/>
</clipPath>
</defs>
</svg>
