<svg width="60" height="60" viewBox="0 0 60 60" fill="none" xmlns="http://www.w3.org/2000/svg">
<path d="M45.0103 28.0099C44.6255 32.9492 40.8964 39.0414 30 46.6831C19.1036 39.0414 15.376 32.9492 14.9897 28.0099V26.293C15.4039 21.1334 18.8054 18.4412 21.7458 18.1533C22.229 18.1063 22.6814 18.0828 23.1058 18.0828C26.5045 18.0828 28.1333 19.5516 30 21.7767C31.8667 19.5516 33.497 18.0828 36.8942 18.0828C37.3186 18.0828 37.771 18.1063 38.2542 18.1533C41.1946 18.4412 44.5961 21.1334 45.0103 26.293V28.0099ZM30 0C13.4314 0 0 13.4314 0 30C0 46.5686 13.4314 60 30 60C46.5686 60 60 46.5686 60 30C60 13.4314 46.5686 0 30 0Z" fill="#00A481"/>
</svg>
