<svg width="36" height="36" viewBox="0 0 36 36" fill="none" xmlns="http://www.w3.org/2000/svg">
<path fill-rule="evenodd" clip-rule="evenodd" d="M19.7992 3.11573C21.5139 2.27644 23.0097 2 25.3301 2.00003C31.2684 2.02462 35.6636 7.03283 35.6636 13.4124C35.6636 18.2818 32.9486 22.9855 27.8915 27.5339C25.237 29.9213 21.8478 32.284 19.4205 33.5409L18.0318 34.26L16.6431 33.5409C14.2158 32.284 10.8266 29.9213 8.17216 27.5339C3.11502 22.9855 0.399994 18.2818 0.399994 13.4124C0.399994 6.96458 4.75415 2 10.7459 2C12.9831 2 14.5556 2.30259 16.3036 3.16712C16.9122 3.46812 17.4839 3.82515 18.0157 4.23725C18.5688 3.80068 19.1644 3.42646 19.7992 3.11573Z" fill="#FF6F61"/>
</svg>
