<svg width="50" height="50" viewBox="0 0 50 50" fill="none" xmlns="http://www.w3.org/2000/svg">
<path d="M37.4682 23.3165C37.1479 27.4281 34.0437 32.4995 24.9731 38.8608C15.9025 32.4995 12.7995 27.4281 12.478 23.3165V21.8872C12.8228 17.5922 15.6543 15.3511 18.102 15.1115C18.5043 15.0724 18.8808 15.0528 19.2342 15.0528C22.0633 15.0528 23.4192 16.2754 24.9731 18.1277C26.527 16.2754 27.8841 15.0528 30.7121 15.0528C31.0654 15.0528 31.442 15.0724 31.8442 15.1115C34.2919 15.3511 37.1234 17.5922 37.4682 21.8872V23.3165ZM24.9731 0C11.1808 0 0 11.1808 0 24.9731C0 38.7654 11.1808 49.9462 24.9731 49.9462C38.7654 49.9462 49.9462 38.7654 49.9462 24.9731C49.9462 11.1808 38.7654 0 24.9731 0Z" fill="#00A481"/>
</svg>
