<svg width="102" height="73" viewBox="0 0 102 73" fill="none" xmlns="http://www.w3.org/2000/svg">
<rect width="102" height="73" rx="8.5" fill="#E0F7FA"/>
<g clip-path="url(#clip0_40003178_12148)">
<mask id="mask0_40003178_12148" style="mask-type:luminance" maskUnits="userSpaceOnUse" x="31" y="15" width="41" height="47">
<path d="M31.9453 15.1953H71.1271V61.3734H31.9453V15.1953Z" fill="white"/>
</mask>
<g mask="url(#mask0_40003178_12148)">
<path d="M70.6905 28.3682C70.716 33.0276 70.1436 37.6359 69.3816 42.226C68.6743 46.5026 67.7118 50.7172 66.4139 54.8552C66.1879 55.5844 65.8889 56.288 65.5899 56.9916C65.4623 57.2942 65.291 57.6114 65.054 57.8192C64.7696 58.0672 64.6894 58.3442 64.653 58.687C64.5837 59.2703 64.4925 59.85 64.4014 60.4297C64.3795 60.5646 64.3467 60.7031 64.2847 60.8234C64.1608 61.0786 63.9785 61.1114 63.7707 60.9219C63.6102 60.7797 63.4754 60.612 63.2858 60.4041C63.0415 60.6083 62.8118 60.8161 62.5712 61.0021C62.1665 61.3083 61.9806 61.2646 61.7472 60.8125C61.6524 60.6229 61.5649 60.426 61.4446 60.1635C61.1821 60.3823 60.9524 60.5864 60.7118 60.7687C60.3436 61.0422 60.154 61.0203 59.8587 60.6739C59.7602 60.5573 59.6727 60.426 59.5852 60.2948C59.5014 60.1672 59.4212 60.0359 59.3191 59.8719C59.1149 60.1088 58.9472 60.3203 58.7613 60.5135C58.4587 60.8307 58.28 60.8307 57.9847 60.4989C57.766 60.2474 57.5764 59.9739 57.3358 59.664C57.0441 59.8791 56.7561 60.0979 56.4571 60.3057C55.9686 60.6448 55.7754 60.6047 55.4764 60.0906C55.3707 59.9083 55.2832 59.7151 55.1701 59.4854C54.9186 59.6968 54.7035 59.8901 54.4738 60.0724C53.9707 60.4734 53.6498 60.4151 53.3399 59.8609C53.2342 59.675 53.1576 59.4781 53.0446 59.2411C52.7639 59.4708 52.5123 59.6823 52.2462 59.8791C51.8488 60.1708 51.6519 60.1416 51.3712 59.7406C51.2254 59.5328 51.1196 59.3031 50.9665 59.0333C50.7806 59.1791 50.6056 59.3177 50.4269 59.4562C49.942 59.8354 49.7852 59.7989 49.4863 59.2411C49.3988 59.0698 49.3149 58.8948 49.2092 58.687C48.892 58.913 48.6076 59.1427 48.2977 59.3323C47.904 59.5765 47.7035 59.5146 47.4847 59.1172C47.3535 58.8802 47.2514 58.6286 47.1129 58.337C46.8321 58.5703 46.5915 58.7927 46.3326 58.9823C45.9535 59.2666 45.753 59.2156 45.5561 58.789C45.4358 58.5265 45.341 58.2495 45.217 57.9323C44.9837 58.1109 44.7905 58.2677 44.5863 58.4062C43.992 58.8255 43.8097 58.7672 43.5764 58.089C43.5071 57.8885 43.4342 57.688 43.3358 57.4036C43.055 57.6041 42.829 57.7719 42.5957 57.9359C41.9102 58.4135 41.6915 58.3588 41.3306 57.626C41.2795 57.5203 41.2321 57.4109 41.1811 57.3088C41.1774 57.2942 41.1519 57.287 41.1009 57.2505C40.904 57.4109 40.7035 57.5932 40.492 57.7536C39.978 58.1401 39.7191 58.089 39.4201 57.5312C39.3108 57.3271 39.216 57.1156 39.0957 56.8713C38.8441 57.0682 38.6326 57.2651 38.392 57.4182C38.0602 57.6406 37.8743 57.5969 37.6556 57.2724C37.5061 57.0463 37.3748 56.8094 37.2108 56.5432C36.9483 56.7765 36.7405 56.9771 36.5181 57.163C36.1754 57.4437 36.0332 57.4146 35.8436 57.0281C35.7233 56.7838 35.6175 56.5323 35.4826 56.2406C35.242 56.3573 35.0269 56.4739 34.8045 56.576C34.5821 56.6781 34.3634 56.8969 34.1009 56.7401C33.8129 56.5724 33.9514 56.2807 33.9623 56.0401C33.9878 55.3765 34.028 54.7094 34.079 54.0458C34.0972 53.776 34.0608 53.5609 33.842 53.3677C33.1274 52.726 32.7373 51.9021 32.617 50.9578C32.4639 49.7328 32.2889 48.5078 32.1977 47.2791C32.041 45.0698 32.0191 42.8567 32.1394 40.6401C32.4274 35.2989 33.6451 30.1838 35.6358 25.2364C36.354 23.45 37.1634 21.7109 38.1879 20.0812C38.4686 19.6328 38.7602 19.1844 39.1102 18.7906C39.3618 18.5099 39.6972 18.2583 40.0436 18.1161C40.2988 18.014 40.4191 17.8864 40.5139 17.6604C40.7472 17.0989 40.9769 16.5375 41.2394 15.9906C41.3488 15.7719 41.5129 15.5567 41.6988 15.3927C41.9248 15.1958 42.1035 15.2396 42.2894 15.4911C42.4134 15.6625 42.5155 15.8484 42.6431 16.0489C42.9858 15.8557 43.2847 15.6807 43.6347 15.4802C43.8425 15.7208 44.0394 15.9505 44.2727 16.2203C44.455 16.0489 44.6155 15.8849 44.7905 15.7354C45.166 15.4109 45.2826 15.4255 45.6144 15.7864C45.742 15.9286 45.8733 16.0708 46.0191 16.2312C46.2743 16.0672 46.5004 15.9177 46.7337 15.7791C47.1019 15.5604 47.2004 15.5786 47.4847 15.8922C47.5868 16.0088 47.678 16.1364 47.8056 16.2969C48.1446 16.0562 48.4764 15.8265 48.8665 15.5531C49.0707 15.8557 49.2602 16.1364 49.479 16.4573C49.8181 16.2203 50.1425 15.987 50.5326 15.7172C50.7259 15.9979 50.8936 16.2495 51.0868 16.5338C51.4441 16.3041 51.8087 16.0672 52.228 15.7937C52.4358 16.1729 52.6071 16.4901 52.804 16.8474C53.1285 16.6432 53.4092 16.4682 53.6863 16.2969C54.1384 16.0198 54.2514 16.0526 54.4957 16.5375C54.5576 16.6541 54.6196 16.7745 54.6925 16.913C55.1629 16.6286 55.6113 16.3552 56.0451 16.0927C56.5337 16.3005 56.479 16.862 56.8764 17.1536C57.1389 16.9276 57.4087 16.687 57.6602 16.4646C58.116 16.6031 58.0431 17.0807 58.3384 17.3213C58.8415 17.0588 59.3556 16.7963 59.9316 16.4974C60.103 16.8437 60.2415 17.1317 60.4201 17.4927C60.6826 17.3359 60.9415 17.1755 61.2076 17.0333C61.5795 16.8255 61.6524 16.851 61.8493 17.212C61.9441 17.3833 62.0352 17.5547 62.13 17.7224C62.1373 17.737 62.1629 17.7442 62.2321 17.7771C62.4582 17.664 62.717 17.5328 62.9795 17.4088C63.5446 17.1427 63.7306 17.1646 63.9201 17.726C63.9493 17.8172 64.0186 17.8901 64.0842 18.0031C64.4451 17.85 64.7806 17.6969 65.1233 17.5656C65.5134 17.4125 65.5826 17.4562 65.7066 17.85C65.7576 18.0104 65.8196 18.1708 65.8853 18.3495C66.3337 18.1198 66.742 17.9083 67.2087 17.6713C67.4129 18.0359 67.5915 18.3495 67.7774 18.6885C68.0618 18.5427 68.3134 18.3969 68.5795 18.2838C69.079 18.0687 69.2795 18.1781 69.3123 18.725C69.3524 19.3922 69.3561 20.0594 69.3342 20.7229C69.3233 21.0838 69.3925 21.3646 69.6733 21.6088C70.242 22.101 70.479 22.7609 70.5118 23.4901C70.592 25.1161 70.6795 26.7422 70.6905 28.3682Z" fill="#0A2A3C"/>
</g>
<path d="M64.0751 56.7351C63.8928 56.4362 63.6486 56.4617 63.4189 56.4435C61.523 56.3231 59.6199 56.2429 57.7277 56.0716C55.3288 55.8528 52.9334 55.583 50.5418 55.295C46.6881 54.8284 42.8819 54.0883 39.0902 53.2752C38.9626 53.2497 38.835 53.2023 38.6017 53.133C38.9954 52.7612 39.309 52.4221 39.6663 52.1304C41.1173 50.9492 42.809 50.2273 44.5626 49.6476C45.8532 49.2174 47.1803 48.9695 48.5512 49.0242C48.8428 49.0351 49.1345 49.0862 49.4189 49.1481C49.9074 49.2575 50.272 49.5346 50.4762 50.0013C50.5928 50.2674 50.7277 50.5336 50.8079 50.8143C51.1543 51.9773 51.9928 52.4695 53.1303 52.5534C54.5923 52.6664 56.0288 52.495 57.4178 52.0211C58.8433 51.5325 60.2652 51.0294 61.6834 50.519C63.1709 49.9794 64.7241 49.7752 66.2845 49.6221C66.5944 49.5929 66.9043 49.5747 67.2616 49.5455C67.2543 49.6659 67.2616 49.7825 67.2324 49.8846C66.6491 51.8752 66.0803 53.8695 65.4605 55.8492C65.2782 56.4179 64.9355 56.9393 64.6584 57.4789C64.5199 57.7523 64.2866 57.8435 63.9767 57.8179C62.1392 57.6794 60.2944 57.6028 58.4642 57.4169C56.047 57.1726 53.6298 56.9101 51.2308 56.5419C47.9423 56.0388 44.6611 55.4591 41.3871 54.8575C39.1959 54.4565 37.0194 53.9497 34.8319 53.5013C34.5475 53.4429 34.347 53.308 34.1465 53.1039C33.3699 52.3091 33.1439 51.3028 33.0163 50.2601C32.9069 49.345 32.8449 48.4263 32.7611 47.5075C32.7538 47.4164 32.7611 47.3179 32.7611 47.245C38.6163 45.9106 44.5152 45.1851 50.4652 44.8315C56.397 44.4815 62.3251 44.4049 68.3079 45.1341C68.0819 46.1804 67.8668 47.1648 67.648 48.182C67.4913 48.1929 67.3564 48.2257 67.2288 48.2039C65.96 47.9669 64.7241 48.1929 63.5137 48.532C62.1939 48.9002 60.8996 49.3523 59.6053 49.7935C58.1069 50.3075 56.6157 50.8617 55.0371 51.0841C54.5522 51.1534 54.06 51.1679 53.5715 51.1424C52.897 51.1096 52.372 50.7961 52.0767 50.1653C52.0183 50.0414 51.9454 49.9211 51.8907 49.7971C51.2199 48.3679 50.0277 47.7372 48.5147 47.6278C46.8814 47.5039 45.3137 47.8685 43.7897 48.3898C42.9038 48.6924 42.0433 49.0898 41.2012 49.5054C39.6298 50.2856 38.3319 51.4013 37.3256 52.8669C36.1991 52.6992 35.098 52.3674 33.9277 52.2252C33.9532 52.5497 34.1574 52.5461 34.3142 52.5862C35.6413 52.9252 36.9611 53.3153 38.2991 53.5888C41.1392 54.1685 43.9793 54.7445 46.8413 55.2039C49.4517 55.6195 52.084 55.9148 54.7126 56.1992C56.8564 56.4325 59.0074 56.582 61.1584 56.7461C61.997 56.808 62.8428 56.819 63.685 56.8372C63.809 56.8445 63.9256 56.7789 64.0751 56.7351ZM64.0168 24.2544C62.4782 24.433 60.9433 24.6044 59.4084 24.8195C57.8736 25.0383 56.4553 24.8049 55.1465 23.9299C54.4246 23.4487 53.6043 23.1789 52.7512 23.0002C50.9538 22.632 49.16 22.7414 47.3736 23.044C43.1808 23.7513 39.36 25.4284 35.6887 27.4992C35.4371 27.6414 35.2767 27.8273 35.1928 28.1153C34.9704 28.8846 34.7152 29.6466 34.4782 30.4122C34.4454 30.5179 34.4308 30.6273 34.3944 30.8023C34.6022 30.7513 34.748 30.7185 34.8902 30.6784C38.1168 29.7633 41.3871 29.0705 44.6975 28.5638C47.0782 28.1955 49.4626 27.8747 51.8543 27.5903C53.7793 27.3606 55.7116 27.1856 57.6475 27.0471C59.5251 26.9086 61.4027 26.8356 63.284 26.7518C65.5699 26.6497 67.8558 26.595 70.2038 26.8539C70.1673 25.9388 70.1272 25.0419 70.0907 24.083C67.998 24.0211 66.0038 24.0211 64.0168 24.2544ZM41.3944 23.0987C44.034 21.9794 46.7793 21.3159 49.6522 21.2284C51.9527 21.1591 54.1402 21.52 56.0506 22.9383C56.634 23.3721 57.3121 23.5544 58.0413 23.5179C58.435 23.4961 58.8288 23.5106 59.2189 23.4705C61.1074 23.2737 62.9959 23.0403 64.8845 22.869C66.4048 22.7341 67.9324 22.57 69.46 22.7851C69.584 22.8034 69.7079 22.7705 69.8975 22.7596C69.7189 22.2127 69.3762 21.8737 69.0079 21.5565C68.9423 21.4981 68.8256 21.5018 68.7308 21.4836C66.5433 21.1518 64.3595 20.8018 62.1683 20.4919C60.1923 20.2112 58.209 19.9596 56.2256 19.7153C54.6725 19.5258 53.1157 19.358 51.5553 19.2049C49.9366 19.0481 48.3178 18.8877 46.6954 18.782C44.8178 18.6617 42.9366 18.6179 41.059 18.5013C40.4683 18.4612 40.0163 18.6544 39.6517 19.0664C39.3527 19.4054 39.0902 19.7737 38.8459 20.1528C37.7267 21.8883 36.848 23.744 36.1079 25.669C36.0824 25.7383 36.0715 25.8112 36.0241 26.0153C37.7668 24.7685 39.5532 23.8752 41.3944 23.0987Z" fill="#AFDFE0"/>
<path d="M53.2412 58.6833C52.7308 59.026 52.3006 59.3214 51.823 59.6422C51.5897 59.2667 51.3709 58.9094 51.1303 58.5266C50.7256 58.7635 50.3756 58.9714 49.9782 59.2083C49.8397 58.9714 49.7157 58.7562 49.5808 58.5484C49.4022 58.2714 49.2928 58.2385 49.0011 58.4026C48.6657 58.5958 48.3376 58.8073 47.9511 59.0406C47.7433 58.6286 47.5501 58.2531 47.3459 57.8557C46.7772 57.9323 46.4527 58.4062 45.9678 58.6323C45.7891 58.2349 45.6141 57.8484 45.41 57.3964C44.9397 57.688 44.5313 57.9396 44.0537 58.2349C43.9334 57.9323 43.824 57.6479 43.7037 57.3708C43.5397 56.988 43.4558 56.9552 43.0876 57.1557C42.7121 57.3599 42.3475 57.5786 41.9173 57.8193C41.7058 57.4146 41.5235 57.0609 41.3121 56.6453C40.8527 56.937 40.4334 57.2104 40.0032 57.4875C39.5985 57.2031 39.6933 56.5906 39.2084 56.3281C38.8475 56.5542 38.4902 56.7802 38.1074 57.0172C37.8412 56.7036 37.5824 56.401 37.298 56.0693C36.9261 56.3245 36.6089 56.5396 36.2662 56.7766C36.1277 56.5469 36.0183 56.3464 35.8907 56.1495C35.6829 55.8214 35.5845 55.7922 35.2089 55.9234C35.0813 55.9672 34.9574 56.0328 34.8298 56.0839C34.7277 56.1276 34.622 56.1714 34.4542 56.2406C34.4032 55.4568 34.4834 54.7313 34.5016 53.9437C44.3454 56.0984 54.1928 57.8776 64.2954 58.2714C64.1824 58.9458 64.073 59.6094 63.9563 60.3021C63.2928 59.7807 63.2928 59.7807 62.6511 60.3276C62.5199 60.4406 62.3777 60.55 62.2027 60.6922C62.1042 60.4953 62.0131 60.324 61.9365 60.1526C61.6886 59.6094 61.6412 59.5948 61.1235 59.9339C60.8647 60.1089 60.6058 60.2839 60.3287 60.4698C60.0298 60.313 59.8912 60.0323 59.7381 59.7625C59.5339 59.3979 59.3808 59.3615 59.06 59.6203C58.8339 59.8063 58.6261 60.0104 58.36 60.251C58.1522 59.9885 57.9626 59.7516 57.7766 59.5109C57.5178 59.1719 57.485 59.1536 57.1022 59.3651C56.7266 59.5729 56.3657 59.8099 55.9501 60.0615C55.8334 59.8464 55.7095 59.6312 55.6037 59.4089C55.4032 58.975 55.3121 58.9385 54.9074 59.2047C54.5792 59.4161 54.2657 59.6458 53.8865 59.9083C53.6751 59.5 53.4782 59.1318 53.2412 58.6833ZM51.4001 16.9385C51.1048 17.2083 50.9042 17.1755 50.6855 16.8401C50.5761 16.6687 50.4886 16.4865 50.3756 16.2786C50.1277 16.5156 49.9381 16.7161 49.7266 16.8875C49.4569 17.1063 49.2782 17.0698 49.0996 16.7818C48.9683 16.574 48.8626 16.3479 48.7313 16.1C48.498 16.3042 48.3157 16.4828 48.1152 16.6396C47.8381 16.8547 47.6996 16.8365 47.4626 16.5667C47.324 16.4062 47.2074 16.2276 47.0615 16.0344C46.9376 16.1328 46.8319 16.213 46.7298 16.2969C46.6204 16.3844 46.522 16.4792 46.4089 16.5557C46.0699 16.7745 45.8621 16.749 45.585 16.4536C45.4319 16.2896 45.2897 16.1146 45.122 15.925C45.0162 16.0417 44.9542 16.1109 44.8886 16.1839C44.8157 16.275 44.7464 16.3734 44.6699 16.4573C44.3819 16.7745 44.1886 16.7781 43.8897 16.4646C43.7475 16.3151 43.6308 16.1474 43.4996 15.9833C43.3136 16.1255 43.1678 16.2568 43.0037 16.3589C42.672 16.5703 42.4933 16.5411 42.2454 16.2422C42.1397 16.1146 42.0412 15.9797 41.9027 15.8047C41.5016 16.5703 41.1589 17.2776 40.8709 18.0323C50.3246 18.2583 59.5959 19.4724 68.8381 20.9927C68.9511 20.1943 68.9074 19.0823 68.736 18.6667C68.5355 18.787 68.335 18.9073 68.1308 19.024C67.7006 19.2609 67.5183 19.2099 67.285 18.7724C67.1865 18.5901 67.1027 18.3969 67.0225 18.2255C66.9569 18.2328 66.935 18.2255 66.9204 18.2365C66.7053 18.3714 66.4902 18.5099 66.2751 18.6411C65.8339 18.9146 65.6808 18.8635 65.4876 18.3714C65.422 18.2109 65.3746 18.0396 65.3053 17.8391C65.0027 18.0214 64.7256 18.2073 64.4376 18.3641C63.9709 18.6193 63.8397 18.5755 63.61 18.1161C63.5407 17.9776 63.4714 17.8427 63.3803 17.6568C63.0485 17.8354 62.7423 18.0068 62.4324 18.1635C62.0496 18.3604 61.9511 18.3276 61.736 17.9375C61.6339 17.7516 61.5501 17.5583 61.4407 17.3359C61.1855 17.5182 60.974 17.6896 60.748 17.8318C60.3287 18.1016 60.1246 18.0323 59.9313 17.5839C59.8548 17.4089 59.7818 17.2339 59.698 17.0187C59.3225 17.2521 58.998 17.4635 58.6626 17.6604C58.2397 17.901 58.0829 17.8536 57.8605 17.4417C57.7912 17.3141 57.7256 17.1828 57.6454 17.0187C57.5105 17.1719 57.4121 17.2922 57.3027 17.4052C56.9345 17.7771 56.7157 17.7625 56.4058 17.3286C56.2527 17.1099 56.1287 16.8656 55.9902 16.625C55.6438 16.8583 55.3303 17.0953 54.9949 17.2885C54.6704 17.4745 54.499 17.4089 54.324 17.088C54.222 16.9094 54.1454 16.7198 54.047 16.5083C53.7225 16.749 53.4636 16.9604 53.1829 17.1391C52.8183 17.3688 52.5777 17.3031 52.3516 16.9349C52.2386 16.7526 52.1548 16.5594 52.0235 16.3042C51.7865 16.5484 51.6042 16.7526 51.4001 16.9385Z" fill="#38BEB9"/>
<path d="M70.0391 23.6075C69.8021 23.6075 69.6271 23.6148 69.4557 23.6075C66.6229 23.4981 63.8156 23.7351 61.0193 24.1653C60.188 24.2929 59.3458 24.3621 58.5073 24.4351C57.501 24.5226 56.5714 24.2783 55.7109 23.7387C54.9417 23.2575 54.1286 22.8783 53.2427 22.6632C51.562 22.2585 49.8667 22.2658 48.1641 22.4991C43.8036 23.0934 39.826 24.734 36.0271 26.8778C35.9104 26.9434 35.7901 27.0054 35.626 27.0965C35.6078 26.8085 35.7719 26.6736 35.9359 26.5569C36.4755 26.1705 37.0005 25.7476 37.5729 25.4158C40.3219 23.8226 43.2094 22.5939 46.3484 22.0179C48.5068 21.6241 50.6615 21.4674 52.8307 21.9413C53.6219 22.1127 54.3656 22.397 55.0474 22.8382C55.3464 23.0314 55.6453 23.2174 55.9406 23.4033C56.5385 23.7788 57.1839 24.0085 57.8911 23.9648C59.1599 23.8809 60.4286 23.7898 61.6974 23.6585C64.2714 23.3924 66.838 23.0569 69.4339 23.2538C69.6417 23.2684 69.9188 23.1918 70.0391 23.6075ZM65.8208 48.6215C64.5229 48.7017 63.276 49.0335 62.0438 49.4418C60.2974 50.0215 58.5583 50.6231 56.8047 51.1773C55.7948 51.4981 54.7521 51.6804 53.6802 51.6148C52.7724 51.5601 52.0578 51.2028 51.6531 50.3424C51.562 50.1491 51.4563 49.9595 51.3542 49.77C50.9604 49.0226 50.3479 48.5413 49.5422 48.2861C48.7 48.0127 47.8359 48.0017 46.9792 48.1148C44.3505 48.4575 41.9224 49.3616 39.7786 50.9257C39.075 51.4398 38.5063 52.1398 37.8792 52.7595C37.8318 52.8069 37.8245 52.8908 37.7917 52.9637C38.2292 53.0476 38.2401 53.0549 38.5062 52.7413C39.2318 51.8736 40.1141 51.2028 41.1057 50.6595C42.1375 50.0908 43.213 49.6314 44.3323 49.2595C45.7943 48.7674 47.2854 48.4793 48.8349 48.5668C49.8776 48.6288 50.6833 49.0444 51.0406 50.1017C51.1026 50.2877 51.1938 50.4663 51.2448 50.6523C51.5 51.6038 52.1781 52.0194 53.0969 52.0924C54.0813 52.1726 55.0693 52.1726 56.0172 51.9064C57.224 51.571 58.4198 51.1918 59.5901 50.7616C61.5807 50.0252 63.5823 49.3689 65.7188 49.2267C66.1891 49.1939 66.6557 49.1611 67.126 49.1246C67.3776 49.1028 67.5344 49.0007 67.4286 48.6361C66.9073 48.6288 66.3604 48.5887 65.8208 48.6215ZM42.4073 36.9111C42.4839 35.7554 42.575 34.6033 42.6698 33.4512C42.6844 33.2762 42.7536 33.1049 42.8156 32.8496C43.1839 33.2361 43.2167 33.6371 43.3297 33.9944C44.0698 36.3351 44.9813 38.5991 46.1406 40.7648C46.4141 41.2715 46.7568 41.421 47.2708 41.3517C47.3656 41.3371 47.4641 41.3153 47.5589 41.297C48.0474 41.2059 48.0583 41.2059 48.0839 40.6991C48.1385 39.6819 48.2042 38.6611 48.2188 37.6439C48.2516 35.5075 48.2661 33.3746 48.2661 31.2382C48.2661 30.9392 48.1422 30.6439 48.062 30.2939C47.6318 30.3814 47.2781 30.458 46.9318 30.5309C46.9172 30.6986 46.9026 30.7934 46.899 30.8882C46.8151 33.2981 46.7312 35.708 46.6438 38.1142C46.6401 38.2345 46.651 38.3585 46.6146 38.4642C46.5891 38.5408 46.5052 38.6174 46.4323 38.6465C46.3885 38.6611 46.2938 38.5955 46.2536 38.5408C46.1953 38.4642 46.1661 38.3658 46.1297 38.2783C45.5536 36.8637 44.9594 35.4564 44.4089 34.0345C44.0297 33.0502 43.7089 32.0439 43.3406 30.9939C43.0307 31.0924 42.7208 31.2017 42.4073 31.2892C42.0208 31.3986 41.8604 31.6356 41.7911 32.0366C41.226 35.2049 40.9818 38.4095 40.7703 41.6142C40.7594 41.7637 40.7849 41.9132 40.7995 42.1502C41.2661 42.0554 41.6781 41.9715 42.1083 41.8877C42.2141 40.1559 42.3052 38.5299 42.4073 36.9111ZM64.4099 36.6851C64.4573 36.4299 64.4099 36.0689 64.7818 36.047C65.1427 36.0215 65.1755 36.3788 65.2557 36.6267C65.6786 37.9283 66.0906 39.2335 66.5062 40.5424C66.5464 40.6663 66.5974 40.7866 66.6667 40.9799C67.0568 40.8267 67.4104 40.6882 67.7859 40.5387C67.7349 40.3674 67.7021 40.2361 67.6547 40.1158C67.1078 38.5663 66.5609 37.0132 65.9958 35.471C65.85 35.07 65.8536 34.7418 66.1125 34.3736C67.075 32.9918 68.012 31.5918 68.9599 30.1991C69.0547 30.0569 69.1458 29.9111 69.2589 29.7325C68.9526 29.5137 68.6719 29.3095 68.3911 29.109C68.3182 29.1965 68.2745 29.2366 68.2453 29.284C67.2755 30.7314 66.3094 32.1861 65.3359 33.6299C65.2302 33.7903 65.0953 33.9434 64.9458 34.0637C64.8401 34.1512 64.687 34.1767 64.4719 34.2642C64.4464 33.9434 64.4099 33.7137 64.4172 33.4877C64.4682 32.4523 64.5339 31.4168 64.5885 30.3778C64.6141 29.8929 64.687 29.408 64.5339 28.8976C64.2349 28.8976 63.9505 28.8976 63.6443 28.8976C63.5932 32.8679 63.2505 36.7871 62.9151 40.7575C63.1594 40.7757 63.3854 40.7903 63.6771 40.8085C63.9323 39.383 64.1656 38.0304 64.4099 36.6851ZM39.1807 32.4887C39.0057 32.2882 38.7833 32.095 38.5427 31.9892C37.6969 31.6319 36.8839 31.7887 36.151 32.2955C35.0755 33.0356 34.4521 34.0819 34.2953 35.3689C34.1495 36.5903 34.6526 37.0168 35.3964 37.3304C35.8849 37.5345 36.3807 37.7351 36.8255 38.0121C37.7661 38.5991 37.9958 39.6564 37.438 40.6226C36.8474 41.6434 35.8229 42.0153 34.7292 41.5413C34.3682 41.3845 34.1385 41.4538 33.9052 41.7017C33.8177 41.7929 33.7521 41.9059 33.6719 42.008C34.4156 42.5439 35.2177 42.7554 35.9651 42.6278C37.4708 42.3653 38.7177 41.195 39.0641 39.6965C39.1953 39.1351 39.1151 38.6101 38.7906 38.1252C38.4734 37.6476 38.0542 37.3194 37.5146 37.1408C37.0698 36.9913 36.6177 36.8601 36.1911 36.6668C35.5167 36.3606 35.2104 35.7481 35.3672 35.0882C35.6589 33.8595 37.2484 32.5507 38.7214 33.1085C38.8635 33.1632 39.0167 33.196 39.1771 33.2398C39.4359 32.9335 39.3521 32.6819 39.1807 32.4887ZM61.2708 28.9012C60.1734 28.7736 59.2656 29.1236 58.5766 29.9986C58.1208 30.5783 57.8036 31.2309 57.5922 31.9273C57.0234 33.783 56.7974 35.6861 57.0161 37.6148C57.0891 38.2309 57.2604 38.8543 57.5047 39.4194C57.8547 40.2325 58.5328 40.5642 59.4151 40.4585C60.2318 40.3601 60.8698 39.9444 61.4057 39.3028C61.2891 39.1132 61.1906 38.9491 61.0958 38.7924C60.6875 39.0002 60.3193 39.2335 59.9219 39.383C58.8755 39.7804 58.1719 39.445 57.7891 38.4023C57.5047 37.633 57.45 36.8345 57.5047 36.0252C57.6068 34.5486 57.9312 33.1158 58.5146 31.7559C58.7443 31.2236 59.0396 30.7023 59.3896 30.2392C59.8927 29.5684 60.5745 29.2986 61.413 29.6377C61.4422 29.6486 61.4859 29.634 61.5552 29.6304C61.6208 29.4663 61.6865 29.2877 61.7849 29.0398C61.5661 28.9778 61.4203 28.9158 61.2708 28.9012ZM55.8568 40.1595C55.6161 38.734 55.4047 37.2976 55.1094 35.8793C54.7193 33.9835 54.2708 32.1023 53.826 30.2174C53.6802 29.6158 53.5745 29.5648 52.962 29.5939C52.8635 29.6012 52.7688 29.6121 52.6703 29.6121C52.3276 29.6158 52.1635 29.7908 52.0651 30.1226C51.1573 33.1194 50.4391 36.1674 49.8594 39.2444C49.7464 39.846 49.6078 40.4585 49.6661 41.1439C49.9688 41.1184 50.2313 41.0929 50.501 41.0674C50.5557 40.8523 50.5958 40.6809 50.6432 40.5168C50.913 39.5762 51.1828 38.6356 51.4526 37.6986C51.5146 37.4762 51.6167 37.283 51.8682 37.2684C52.55 37.2319 53.2354 37.1809 53.9172 37.2028C54.3729 37.2137 54.4313 37.3194 54.5151 37.7715C54.5625 38.0231 54.6063 38.271 54.6427 38.5226C54.7375 39.197 54.8286 39.8679 54.9271 40.5825C55.237 40.5679 55.525 40.5496 55.8568 40.5278C55.8604 40.3528 55.875 40.2543 55.8568 40.1595ZM53.3229 31.92C53.5453 32.8278 53.7422 33.7429 53.9354 34.658C53.9682 34.8257 53.9646 35.008 53.95 35.183C53.9245 35.4856 53.775 35.7153 53.4432 35.7226C53.0203 35.7335 52.5938 35.7189 52.1708 35.6788C51.8901 35.6533 51.7771 35.4564 51.8135 35.1793C51.963 34.0345 52.1964 32.908 52.6047 31.8288C52.6448 31.7194 52.7141 31.621 52.7833 31.5299C52.8161 31.4898 52.8854 31.4752 53.0057 31.4132C53.1151 31.5809 53.2755 31.734 53.3229 31.92Z" fill="#00B6B9"/>
<path d="M32.7328 46.8429C32.7037 46.2997 32.6672 45.7747 32.6453 45.246C32.5323 42.0851 32.7657 38.9387 33.236 35.8106C33.4401 34.458 33.8084 33.1309 34.0818 31.7892C34.1584 31.4064 34.3552 31.2278 34.7235 31.1476C36.8271 30.6773 38.9089 30.1267 41.0235 29.733C43.8526 29.2043 46.6927 28.7486 49.5438 28.3512C51.6183 28.0632 53.711 27.8918 55.8 27.7168C57.7506 27.5528 59.7084 27.4288 61.6625 27.3231C64.2693 27.1809 66.8761 27.1481 69.4828 27.2721C69.6943 27.283 69.9058 27.3158 70.1719 27.3486C70.2521 33.1965 69.4464 38.9241 68.4183 44.6226C67.2917 44.5132 66.2271 44.3965 65.1589 44.3163C64.0433 44.2325 62.9276 44.1413 61.812 44.134C59.2636 44.1158 56.7151 44.1194 54.1703 44.1778C52.2891 44.2215 50.4078 44.32 48.5339 44.4731C46.4047 44.6444 44.2865 44.9033 42.1646 45.1293C39.5141 45.4174 36.8964 45.9168 34.2896 46.4528C33.7938 46.5549 33.3052 46.6971 32.7328 46.8429ZM42.9922 34.6694C43.0797 34.746 43.1198 34.7679 43.1308 34.7971C43.2037 35.0012 43.2729 35.2054 43.3459 35.4059C44.0021 37.3418 44.8078 39.2085 45.7959 40.995C46.0802 41.5127 46.412 41.7642 47.0391 41.746C48.2459 41.7095 48.4391 41.5892 48.5412 40.3898C48.7927 37.4731 48.7782 34.5528 48.7308 31.6325C48.7308 31.4757 48.7271 31.3189 48.7016 31.1622C48.4828 29.8096 48.0709 29.846 47.0828 30.0903C46.7584 30.1705 46.5797 30.3564 46.5542 30.6991C46.5141 31.2241 46.4448 31.7528 46.4229 32.2778C46.3646 33.809 46.3245 35.3366 46.2698 36.8642C46.2662 36.9846 46.237 37.1012 46.2224 37.2179C45.8542 36.5398 45.5735 35.8507 45.3146 35.158C44.8151 33.82 44.3266 32.4783 43.8344 31.1366C43.6594 30.6481 43.6157 30.5934 43.1162 30.6882C42.6969 30.7684 42.2776 30.8851 41.8802 31.0491C41.7125 31.1184 41.5667 31.3262 41.4756 31.5049C41.3881 31.6726 41.3771 31.884 41.3516 32.0773C41.0891 34.2356 40.8047 36.3903 40.5714 38.5523C40.4584 39.6241 40.4256 40.7033 40.3854 41.7788C40.3636 42.3731 40.586 42.5736 41.1657 42.5153C41.4938 42.4825 41.8183 42.3767 42.1354 42.2819C42.4052 42.2017 42.5256 42.0122 42.5401 41.7096C42.6021 40.5392 42.686 39.3653 42.7625 38.1913C42.8354 37.0392 42.912 35.8835 42.9922 34.6694ZM64.8052 36.8096C64.8308 36.8132 64.8526 36.8132 64.8782 36.8132C64.9292 36.959 64.9839 37.1012 65.0276 37.2471C65.3703 38.3299 65.6985 39.4163 66.0521 40.4955C66.3802 41.4981 66.4823 41.5345 67.4849 41.1517C68.3854 40.8054 68.4037 40.7981 68.0756 39.8866C67.525 38.3408 66.9563 36.795 66.3802 35.2601C66.2854 35.0122 66.2818 34.8517 66.4422 34.6221C67.3537 33.346 68.2506 32.0627 69.1183 30.7575C69.8729 29.62 69.9131 29.7111 68.7719 28.8215C68.4037 28.5335 68.2979 28.5554 68.0245 28.9491C67.1313 30.2361 66.2453 31.5304 65.3558 32.8174C65.2427 32.9851 65.1151 33.1418 64.9948 33.3023C64.9219 33.0908 64.9328 32.9377 64.9401 32.7846C64.9802 31.6689 65.0677 30.5533 65.0422 29.4377C65.0203 28.4132 64.9693 28.4132 63.9412 28.4205C63.3287 28.4241 63.2412 28.5335 63.212 29.1387C63.0917 31.4866 62.9604 33.8346 62.8183 36.1788C62.7344 37.5679 62.6068 38.9533 62.5229 40.3424C62.4792 41.0387 62.5302 41.0752 63.2047 41.1408C63.2412 41.1444 63.2813 41.1481 63.3214 41.1517C63.9886 41.2137 64.0542 41.1809 64.1745 40.5137C64.3969 39.2814 64.5974 38.0455 64.8052 36.8096ZM35.5438 43.1424C35.6823 43.1314 35.861 43.1314 36.0323 43.1023C37.7203 42.8179 39.2151 41.3814 39.5469 39.7043C39.6782 39.0262 39.5688 38.3882 39.1787 37.7939C38.7667 37.1741 38.187 36.8096 37.4943 36.5872C37.1224 36.4668 36.7396 36.3648 36.3896 36.1971C35.8646 35.9455 35.7261 35.5153 35.9375 34.9757C36.3714 33.8637 37.5417 33.2877 38.7047 33.6122C38.7995 33.6377 38.8907 33.6778 38.9891 33.696C39.3245 33.758 39.5506 33.6377 39.7073 33.3241C39.8677 32.9997 39.8313 32.6788 39.6672 32.3653C39.4448 31.946 39.0875 31.6762 38.6537 31.5122C37.6073 31.1184 36.6375 31.3408 35.7625 31.9752C34.6797 32.7627 34.0381 33.8491 33.8448 35.1653C33.6844 36.259 33.9104 37.2106 35.274 37.7356C35.4381 37.7976 35.5985 37.8705 35.7589 37.9507C36.087 38.1184 36.4334 38.2642 36.7396 38.4684C37.1261 38.7236 37.2974 39.1174 37.2901 39.5804C37.2792 40.5283 36.1891 41.746 34.9203 41.1372C34.8328 41.0934 34.7381 41.0606 34.6542 41.0096C34.4209 40.8747 34.1912 40.9148 33.9907 41.0606C33.8157 41.1809 33.6479 41.3231 33.5021 41.4799C33.0792 41.9283 33.1266 42.2929 33.6625 42.6174C34.2276 42.9564 34.8438 43.1314 35.5438 43.1424ZM61.112 38.2387C60.8459 38.3955 60.5907 38.5741 60.3136 38.709C60.0328 38.8439 59.7412 38.9752 59.4422 39.0444C58.9354 39.1611 58.5927 39.0116 58.3813 38.545C58.2209 38.195 58.0933 37.8085 58.0568 37.4257C57.8235 35.1944 58.3667 33.1163 59.3474 31.133C59.4495 30.9252 59.5917 30.7283 59.7448 30.5533C60.2552 29.9554 60.5797 29.8752 61.3308 30.1559C61.5276 30.2288 61.7282 30.2799 61.8703 30.1012C62.1401 29.7658 62.2532 29.3538 62.1547 28.9418C62.0709 28.5918 61.7063 28.5444 61.411 28.4569C61.3709 28.446 61.3308 28.446 61.2943 28.4424C60.0292 28.3111 58.9828 28.7231 58.1917 29.7293C57.7104 30.3382 57.3677 31.02 57.1453 31.7528C56.5256 33.7799 56.2521 35.847 56.5584 37.958C56.6386 38.5122 56.8026 39.07 57.025 39.5877C57.3969 40.4372 58.0823 40.9731 59.0266 40.9877C60.0729 41.0059 60.9771 40.6194 61.6297 39.7554C61.7099 39.646 61.7683 39.5148 61.7974 39.3835C61.8266 39.2778 61.8375 39.1319 61.7865 39.0444C61.6151 38.7455 61.4875 38.4028 61.112 38.2387ZM54.0683 37.6007C54.1157 37.8924 54.1485 38.1038 54.1776 38.3153C54.2797 39.0335 54.3636 39.7517 54.4912 40.4663C54.5714 40.9184 54.6698 40.984 55.1073 41.0241C55.2641 41.0387 55.4209 41.0314 55.5776 41.0168C56.2667 40.9694 56.3688 40.8564 56.2521 40.1783C55.8766 37.9799 55.5229 35.7778 55.0964 33.5866C54.8594 32.3616 54.5167 31.1512 54.1849 29.9481C54.0282 29.3793 53.6818 29.1497 53.0912 29.1606C52.5516 29.1679 51.9683 29.1241 51.7641 29.8351C51.6438 30.2507 51.4506 30.6408 51.3339 31.0528C51.0313 32.1283 50.725 33.2002 50.4735 34.2866C49.9922 36.3648 49.4782 38.4356 49.274 40.5684C49.1938 41.4033 49.3578 41.5747 50.2 41.52C50.2766 41.5163 50.3568 41.5054 50.4334 41.4981C50.6995 41.4799 50.8636 41.3413 50.9292 41.0788C50.9875 40.8528 51.0422 40.6231 51.1042 40.4007C51.3375 39.5148 51.5745 38.6288 51.8115 37.7356C52.5698 37.6882 53.2881 37.6444 54.0683 37.6007ZM52.9016 32.1392C52.65 33.1819 52.4094 34.1809 52.1724 35.1689C52.6427 35.4387 53.0802 35.384 53.5578 35.3184C53.6308 34.5965 53.2188 32.5622 52.9016 32.1392Z" fill="#99673C"/>
</g>
<defs>
<clipPath id="clip0_40003178_12148">
<rect width="56" height="56" fill="white" transform="translate(23 9)"/>
</clipPath>
</defs>
</svg>
