<svg width="20" height="20" viewBox="0 0 20 20" fill="none" xmlns="http://www.w3.org/2000/svg">
<g clip-path="url(#clip0_3480_12476)">
<path d="M10 20C15.5228 20 20 15.5228 20 10C20 4.47715 15.5228 0 10 0C4.47715 0 0 4.47715 0 10C0 15.5228 4.47715 20 10 20Z" fill="#5C5560"/>
<path d="M10 20C15.5228 20 20 15.5228 20 10C20 4.47715 15.5228 0 10 0C4.47715 0 0 4.47715 0 10C0 15.5228 4.47715 20 10 20Z" fill="#EEEEEE"/>
<path d="M18.6327 8.35926H14.9601H10.1936V11.8349H14.8916C14.4687 12.9635 13.6659 13.9063 12.6387 14.5088C11.8649 14.963 10.9631 15.2232 10.0005 15.2232C7.76117 15.2232 5.85098 13.8136 5.10902 11.8334C4.89469 11.2633 4.77789 10.6454 4.77789 10.0005C4.77789 9.40625 4.87731 8.8352 5.05981 8.30324C5.76457 6.25211 7.71051 4.77785 10.0005 4.77785C11.0148 4.77785 11.9614 5.06699 12.7623 5.56762L15.6085 3.23746C14.0869 1.97418 12.1323 1.21484 10.0005 1.21484C6.60504 1.21484 3.65941 3.14094 2.19719 5.96012C1.56914 7.16981 1.21484 8.54363 1.21484 10.0005C1.21484 11.5071 1.59379 12.9249 2.26191 14.1641C3.74582 16.9161 6.65477 18.7863 10.0005 18.7863C12.0825 18.7863 13.9952 18.0622 15.5008 16.852C17.0489 15.6075 18.1664 13.8489 18.5941 11.8349C18.7202 11.2431 18.7863 10.6295 18.7863 10.0005C18.7863 9.43961 18.7336 8.89074 18.6327 8.35926Z" fill="#FBBB00"/>
<path d="M15.5001 16.85L15.5006 16.8505C13.995 18.0607 12.0824 18.7848 10.0004 18.7848C6.65457 18.7848 3.74563 16.9147 2.26172 14.1627L5.10887 11.832C5.85082 13.8122 7.76098 15.2218 10.0004 15.2218C10.963 15.2218 11.8647 14.9616 12.6385 14.5073L15.5001 16.85Z" fill="#28B446"/>
<path d="M18.6325 8.35938C18.7334 8.89086 18.786 9.43973 18.786 10.0007C18.786 10.6296 18.7199 11.2432 18.5939 11.835C18.1662 13.849 17.0487 15.6076 15.5005 16.8521L15.5 16.8516L12.6384 14.5089C13.6657 13.9064 14.4684 12.9636 14.8913 11.835H10.1934V8.35938H14.9599H18.6325Z" fill="#518EF8"/>
<path d="M15.6085 3.2375L12.7623 5.56766C11.9615 5.06703 11.0149 4.77789 10.0006 4.77789C7.71055 4.77789 5.76465 6.25215 5.05988 8.30328L2.19777 5.96012H2.19727C3.65949 3.14094 6.60508 1.21484 10.0006 1.21484C12.1324 1.21484 14.087 1.97418 15.6085 3.2375Z" fill="#FC3F1D"/>
</g>
<defs>
<clipPath id="clip0_3480_12476">
<rect width="20" height="20" fill="white"/>
</clipPath>
</defs>
</svg>
