<svg width="68" height="65" viewBox="0 0 68 65" fill="none" xmlns="http://www.w3.org/2000/svg">
<g clip-path="url(#clip0_1_7)">
<path d="M49.3498 3.96094C48.8521 3.96094 48.3573 3.98117 47.8697 4.02283L34.0078 63.7388C34.7617 63.3282 66.9097 45.6492 66.9097 21.4456C66.9097 11.7892 59.0478 3.96094 49.3498 3.96094Z" fill="#0091B6"/>
<path d="M47.868 4.02283C55.2886 4.77053 61.1208 12.2847 61.1208 21.4454C61.1208 45.6244 34.6789 63.2921 34.0062 63.7387C33.9976 63.743 33.9932 63.7458 33.9932 63.7458C33.9932 63.7458 1.07812 45.9357 1.07812 21.4456C1.07812 11.7892 8.94009 3.96094 18.6381 3.96094C25.25 3.96094 30.9996 7.60568 33.993 12.9835C36.7607 8.01048 41.8854 4.51993 47.868 4.02283Z" fill="#0091B6"/>
<path d="M49.355 2.88281C43.1913 2.88281 37.459 5.92757 34 10.9351C30.541 5.92757 24.8087 2.88281 18.6451 2.88281C8.36413 2.88281 0 11.2111 0 21.4479C0 27.2327 1.78248 33.1199 5.29789 38.9456C8.08164 43.5589 11.9547 48.1454 16.8091 52.5781C25.0414 60.0952 33.141 64.513 33.4819 64.6975C33.6435 64.7849 33.8218 64.8285 34 64.8285C34.1782 64.8285 34.3565 64.7849 34.5181 64.6975C35.1047 64.38 48.9986 56.7823 58.7691 44.557C59.1422 44.0901 61.6306 40.5 61 40C60.2688 39.4203 57.4442 42.7446 57.0709 43.2113C48.6205 53.7851 36.622 61.0013 33.9995 62.507C32.0807 61.4077 25.1469 57.2595 18.2758 50.9855C10.9286 44.2767 2.17016 33.7061 2.17016 21.4479C2.17016 12.4026 9.56077 5.04366 18.6451 5.04366C24.6238 5.04366 30.1438 8.28744 33.0511 13.5092C33.2423 13.8526 33.6057 14.0658 34.0001 14.0658C34.3947 14.0658 34.758 13.8528 34.9492 13.5092C37.8563 8.28744 43.3763 5.04366 49.355 5.04366C58.4392 5.04366 65.8298 12.4026 65.8298 21.4479C65.8298 27.4615 63.7434 33.6139 59.6286 39.7341C59.2952 40.23 56.8267 44.051 57.5 44.5C58.1229 44.9154 61.0985 41.4321 61.432 40.9363C65.7901 34.4541 68 27.8971 68 21.4479C68 11.2111 59.6359 2.88281 49.355 2.88281Z" fill="#006988"/>
</g>
<defs>
<clipPath id="clip0_1_7">
<rect width="68" height="65" fill="white"/>
</clipPath>
</defs>
</svg>
