<svg width="31" height="30" viewBox="0 0 31 30" fill="none" xmlns="http://www.w3.org/2000/svg">
<g clip-path="url(#clip0_4786_10370)">
<path d="M15.0968 29.7705C7.03344 29.7705 0.5 23.2743 0.5 15.2705C0.5 7.26668 7.03344 0.770508 15.0968 0.770508C23.1601 0.770508 29.6935 7.26668 29.6935 15.2705C29.6935 23.2743 23.1601 29.7705 15.0968 29.7705Z" stroke="white"/>
<path d="M14.9929 12.8234C14.5072 12.8234 14.0325 12.9678 13.6287 13.2382C13.2249 13.5087 12.9101 13.8931 12.7243 14.3429C12.5384 14.7926 12.4898 15.2875 12.5846 15.765C12.6793 16.2424 12.9132 16.681 13.2566 17.0252C13.6 17.3695 14.0375 17.6039 14.5138 17.6989C14.9902 17.7938 15.4839 17.7451 15.9326 17.5588C16.3813 17.3725 16.7648 17.057 17.0346 16.6522C17.3044 16.2475 17.4484 15.7716 17.4484 15.2847C17.4484 14.632 17.1897 14.0059 16.7292 13.5443C16.2687 13.0828 15.6441 12.8234 14.9929 12.8234ZM18.9146 12.2313C18.7421 12.2299 18.5738 12.1773 18.4309 12.0804C18.288 11.9834 18.177 11.8463 18.1116 11.6863C18.0462 11.5262 18.0295 11.3504 18.0635 11.1808C18.0975 11.0113 18.1807 10.8556 18.3027 10.7333C18.4247 10.611 18.5801 10.5275 18.7492 10.4934C18.9184 10.4593 19.0938 10.4761 19.2535 10.5417C19.4132 10.6072 19.5499 10.7186 19.6467 10.8618C19.7434 11.005 19.7957 11.1737 19.7971 11.3466C19.7981 11.4631 19.7759 11.5785 19.7319 11.6863C19.6879 11.7941 19.6229 11.892 19.5408 11.9743C19.4587 12.0566 19.361 12.1218 19.2535 12.1659C19.146 12.21 19.0308 12.2322 18.9146 12.2313ZM14.9929 19.066C14.2451 19.066 13.5141 18.8436 12.8924 18.427C12.2708 18.0104 11.7864 17.4184 11.5005 16.7257C11.2147 16.0331 11.1403 15.271 11.2867 14.536C11.4331 13.8009 11.7937 13.1259 12.323 12.5964C12.8523 12.0668 13.5263 11.7066 14.2599 11.5612C14.9935 11.4159 15.7537 11.4919 16.4441 11.7797C17.1346 12.0676 17.7243 12.5542 18.1388 13.1781C18.5532 13.8021 18.7736 14.5352 18.7722 15.2847C18.7732 15.7822 18.676 16.2749 18.4863 16.7345C18.2967 17.1942 18.0182 17.6118 17.667 17.9632C17.3157 18.3146 16.8987 18.5929 16.4398 18.7822C15.9809 18.9715 15.4891 19.0679 14.9929 19.066ZM20.9787 12.3026C20.9729 11.8399 20.8886 11.3815 20.7295 10.9471C20.6025 10.6241 20.4106 10.3309 20.1657 10.0854C19.9208 9.83995 19.6282 9.64755 19.306 9.52019C18.8694 9.36352 18.4103 9.2792 17.9466 9.27051C17.1637 9.27051 16.936 9.27051 14.9715 9.27051C13.0071 9.27051 12.7793 9.27051 12.0107 9.27051C11.547 9.2792 11.0879 9.36352 10.6513 9.52019C10.3296 9.64058 10.0398 9.83344 9.80427 10.0838C9.55948 10.3227 9.36999 10.6125 9.24914 10.9328C9.09002 11.3672 9.00576 11.8256 9 12.2883C9 13.0803 9 13.3015 9 15.2706C9 17.2396 9 17.4679 9 18.2455C9.00605 18.7106 9.0903 19.1713 9.24914 19.6082C9.3646 19.9292 9.55492 20.2179 9.80427 20.4501C10.0363 20.703 10.3273 20.8942 10.6513 21.0065C11.0856 21.1734 11.5456 21.2627 12.0107 21.2705C12.7793 21.2705 13.0214 21.2705 14.9715 21.2705C16.9217 21.2705 17.1637 21.2705 17.9466 21.2705C18.4117 21.2627 18.8717 21.1734 19.306 21.0065C19.6288 20.8918 19.9193 20.701 20.153 20.4501C20.4024 20.2179 20.5927 19.9292 20.7082 19.6082C20.867 19.1713 20.9512 18.7106 20.9573 18.2455C21 17.4679 21 17.2325 21 15.2706C21 13.3086 21 13.0803 20.9573 12.2883L20.9787 12.3026Z" fill="white"/>
</g>
<defs>
<clipPath id="clip0_4786_10370">
<rect width="30.1935" height="30" fill="white"/>
</clipPath>
</defs>
</svg>
