<svg width="31" height="31" viewBox="0 0 31 31" fill="none" xmlns="http://www.w3.org/2000/svg">
<g clip-path="url(#clip0_4377_3993)">
<path d="M15.7999 30.2705C7.73657 30.2705 1.20312 23.7743 1.20312 15.7705C1.20312 7.76668 7.73657 1.27051 15.7999 1.27051C23.8632 1.27051 30.3967 7.76668 30.3967 15.7705C30.3967 23.7743 23.8632 30.2705 15.7999 30.2705Z" stroke="#0A2A3C"/>
<path d="M15.696 13.3234C15.2103 13.3234 14.7356 13.4678 14.3318 13.7382C13.928 14.0087 13.6133 14.3931 13.4274 14.8429C13.2415 15.2926 13.1929 15.7875 13.2877 16.265C13.3824 16.7424 13.6163 17.181 13.9597 17.5252C14.3031 17.8695 14.7406 18.1039 15.217 18.1989C15.6933 18.2938 16.187 18.2451 16.6357 18.0588C17.0844 17.8725 17.4679 17.557 17.7377 17.1522C18.0075 16.7475 18.1515 16.2716 18.1515 15.7847C18.1515 15.132 17.8929 14.5059 17.4324 14.0443C16.9719 13.5828 16.3472 13.3234 15.696 13.3234ZM19.6177 12.7313C19.4452 12.7299 19.2769 12.6773 19.134 12.5804C18.9912 12.4834 18.8801 12.3463 18.8147 12.1863C18.7493 12.0262 18.7326 11.8504 18.7666 11.6808C18.8006 11.5113 18.8838 11.3556 19.0058 11.2333C19.1278 11.111 19.2832 11.0275 19.4523 10.9934C19.6215 10.9593 19.7969 10.9761 19.9566 11.0417C20.1163 11.1072 20.2531 11.2186 20.3498 11.3618C20.4465 11.505 20.4989 11.6737 20.5003 11.8466C20.5012 11.9631 20.479 12.0785 20.435 12.1863C20.391 12.2941 20.3261 12.392 20.2439 12.4743C20.1618 12.5566 20.0641 12.6218 19.9566 12.6659C19.8491 12.71 19.7339 12.7322 19.6177 12.7313ZM15.696 19.566C14.9482 19.566 14.2172 19.3436 13.5956 18.927C12.9739 18.5104 12.4895 17.9184 12.2037 17.2257C11.9178 16.5331 11.8434 15.771 11.9898 15.036C12.1362 14.3009 12.4969 13.6259 13.0261 13.0964C13.5554 12.5668 14.2295 12.2066 14.9631 12.0612C15.6966 11.9159 16.4568 11.9919 17.1472 12.2797C17.8377 12.5676 18.4275 13.0542 18.8419 13.6781C19.2563 14.3021 19.4768 15.0352 19.4754 15.7847C19.4763 16.2822 19.3792 16.7749 19.1895 17.2345C18.9998 17.6942 18.7213 18.1118 18.3701 18.4632C18.0189 18.8146 17.6018 19.0929 17.1429 19.2822C16.684 19.4715 16.1922 19.5679 15.696 19.566ZM21.6818 12.8026C21.676 12.3399 21.5918 11.8815 21.4327 11.4471C21.3056 11.1241 21.1137 10.8309 20.8688 10.5854C20.624 10.3399 20.3313 10.1476 20.0092 10.0202C19.5726 9.86352 19.1134 9.7792 18.6498 9.77051C17.8668 9.77051 17.6391 9.77051 15.6747 9.77051C13.7103 9.77051 13.4825 9.77051 12.7138 9.77051C12.2501 9.7792 11.791 9.86352 11.3544 10.0202C11.0327 10.1406 10.7429 10.3334 10.5074 10.5838C10.2626 10.8227 10.0731 11.1125 9.95226 11.4328C9.79315 11.8672 9.70889 12.3256 9.70312 12.7883C9.70312 13.5803 9.70312 13.8015 9.70312 15.7706C9.70312 17.7396 9.70312 17.9679 9.70312 18.7455C9.70918 19.2106 9.79342 19.6713 9.95226 20.1082C10.0677 20.4292 10.258 20.7179 10.5074 20.9501C10.7394 21.203 11.0305 21.3942 11.3544 21.5065C11.7887 21.6734 12.2488 21.7627 12.7138 21.7705C13.4825 21.7705 13.7245 21.7705 15.6747 21.7705C17.6249 21.7705 17.8668 21.7705 18.6498 21.7705C19.1148 21.7627 19.5749 21.6734 20.0092 21.5065C20.3319 21.3918 20.6224 21.201 20.8561 20.9501C21.1055 20.7179 21.2959 20.4292 21.4113 20.1082C21.5702 19.6713 21.6544 19.2106 21.6604 18.7455C21.7031 17.9679 21.7031 17.7325 21.7031 15.7706C21.7031 13.8086 21.7031 13.5803 21.6604 12.7883L21.6818 12.8026Z" fill="#0A2A3C"/>
</g>
<defs>
<clipPath id="clip0_4377_3993">
<rect width="30.1935" height="30" fill="white" transform="translate(0.703125 0.5)"/>
</clipPath>
</defs>
</svg>
