<svg width="31" height="30" viewBox="0 0 31 30" fill="none" xmlns="http://www.w3.org/2000/svg">
<g clip-path="url(#clip0_4786_10374)">
<path d="M15.2921 29.5C7.22875 29.5 0.695312 23.0038 0.695312 15C0.695312 6.99617 7.22875 0.5 15.2921 0.5C23.3554 0.5 29.8889 6.99617 29.8889 15C29.8889 23.0038 23.3554 29.5 15.2921 29.5Z" stroke="white"/>
<path d="M8.86246 12.6887H11.5457V21.2686H8.86246V12.6887ZM10.2051 8.42383C11.0632 8.42383 11.7597 9.11592 11.7597 9.9705C11.7597 10.8251 11.0632 11.5172 10.2051 11.5172C9.345 11.5172 8.64844 10.8251 8.64844 9.9705C8.64642 9.11792 9.34298 8.42383 10.2051 8.42383Z" fill="white"/>
<path d="M13.2305 12.6888H15.8047V13.8603H15.841C16.1984 13.1863 17.0726 12.4741 18.3809 12.4741C21.0985 12.4741 21.6012 14.2515 21.6012 16.5605V21.2687H18.918V17.0981C18.918 16.1011 18.8998 14.8232 17.5229 14.8232C16.1257 14.8232 15.9117 15.9065 15.9117 17.0259V21.2707H13.2305V12.6888Z" fill="white"/>
</g>
<defs>
<clipPath id="clip0_4786_10374">
<rect width="30.1935" height="30" fill="white" transform="translate(0.195312)"/>
</clipPath>
</defs>
</svg>
