<svg width="32" height="31" viewBox="0 0 32 31" fill="none" xmlns="http://www.w3.org/2000/svg">
<g clip-path="url(#clip0_4377_3994)">
<path d="M15.9952 30C7.93188 30 1.39844 23.5038 1.39844 15.5C1.39844 7.49617 7.93188 1 15.9952 1C24.0585 1 30.592 7.49617 30.592 15.5C30.592 23.5038 24.0585 30 15.9952 30Z" stroke="#0A2A3C"/>
<path d="M9.56558 13.1887H12.2488V21.7686H9.56558V13.1887ZM10.9082 8.92383C11.7663 8.92383 12.4628 9.61592 12.4628 10.4705C12.4628 11.3251 11.7663 12.0172 10.9082 12.0172C10.0481 12.0172 9.35157 11.3251 9.35157 10.4705C9.34955 9.61792 10.0461 8.92383 10.9082 8.92383Z" fill="#0A2A3C"/>
<path d="M13.9336 13.1888H16.5078V14.3603H16.5442C16.9015 13.6863 17.7758 12.9741 19.0841 12.9741C21.8016 12.9741 22.3044 14.7515 22.3044 17.0605V21.7687H19.6211V17.5981C19.6211 16.6011 19.6029 15.3232 18.226 15.3232C16.8288 15.3232 16.6148 16.4065 16.6148 17.5259V21.7707H13.9336V13.1888Z" fill="#0A2A3C"/>
</g>
<defs>
<clipPath id="clip0_4377_3994">
<rect width="30.1935" height="30" fill="white" transform="translate(0.898438 0.5)"/>
</clipPath>
</defs>
</svg>
