<svg width="20" height="20" viewBox="0 0 20 20" fill="none" xmlns="http://www.w3.org/2000/svg">
<path d="M17.0582 1.66809H2.94155C2.78287 1.66588 2.6253 1.69496 2.47786 1.75366C2.33041 1.81235 2.19597 1.89952 2.08222 2.01018C1.96846 2.12084 1.87762 2.25282 1.81488 2.39859C1.75214 2.54436 1.71873 2.70107 1.71655 2.85975V17.1431C1.71873 17.3018 1.75214 17.4585 1.81488 17.6042C1.87762 17.75 1.96846 17.882 2.08222 17.9927C2.19597 18.1033 2.33041 18.1905 2.47786 18.2492C2.6253 18.3079 2.78287 18.337 2.94155 18.3348H17.0582C17.2169 18.337 17.3745 18.3079 17.5219 18.2492C17.6694 18.1905 17.8038 18.1033 17.9176 17.9927C18.0313 17.882 18.1222 17.75 18.1849 17.6042C18.2476 17.4585 18.281 17.3018 18.2832 17.1431V2.85975C18.281 2.70107 18.2476 2.54436 18.1849 2.39859C18.1222 2.25282 18.0313 2.12084 17.9176 2.01018C17.8038 1.89952 17.6694 1.81235 17.5219 1.75366C17.3745 1.69496 17.2169 1.66588 17.0582 1.66809ZM6.74155 15.6181H4.24155V8.11809H6.74155V15.6181ZM5.49155 7.06809C5.14677 7.06809 4.81611 6.93112 4.57231 6.68732C4.32852 6.44353 4.19155 6.11287 4.19155 5.76809C4.19155 5.4233 4.32852 5.09264 4.57231 4.84885C4.81611 4.60505 5.14677 4.46809 5.49155 4.46809C5.67463 4.44732 5.86003 4.46546 6.03562 4.52132C6.2112 4.57718 6.373 4.66949 6.51043 4.79222C6.64786 4.91495 6.75782 5.06532 6.83311 5.23349C6.9084 5.40166 6.94732 5.58383 6.94732 5.76809C6.94732 5.95234 6.9084 6.13451 6.83311 6.30268C6.75782 6.47085 6.64786 6.62122 6.51043 6.74395C6.373 6.86668 6.2112 6.95899 6.03562 7.01485C5.86003 7.07071 5.67463 7.08885 5.49155 7.06809ZM15.7582 15.6181H13.2582V11.5931C13.2582 10.5848 12.8999 9.92642 11.9916 9.92642C11.7104 9.92848 11.4367 10.0167 11.2072 10.1791C10.9778 10.3415 10.8036 10.5703 10.7082 10.8348C10.643 11.0306 10.6147 11.2369 10.6249 11.4431V15.6098H8.12489C8.12489 15.6098 8.12489 8.79309 8.12489 8.10975H10.6249V9.16809C10.852 8.77401 11.1823 8.44935 11.5803 8.22909C11.9782 8.00882 12.4287 7.9013 12.8832 7.91809C14.5499 7.91809 15.7582 8.99309 15.7582 11.3014V15.6181Z" fill="white"/>
</svg>
