<svg width="30" height="30" viewBox="0 0 30 30" fill="none" xmlns="http://www.w3.org/2000/svg">
<path d="M12.6187 15.0008L6.27917 20.2472C6.25971 20.1678 6.24992 20.0863 6.25 20.0045V9.99664C6.24996 9.91485 6.25975 9.83337 6.27917 9.75391L12.6187 15.0008Z" fill="#006988"/>
<path d="M22.9118 21.0349C22.8772 21.0388 22.8423 21.0406 22.8075 21.0405H7.29129C7.25661 21.0406 7.22196 21.0388 7.1875 21.0349L13.5478 15.7695L14.0297 16.1683C14.3163 16.4058 14.6773 16.5358 15.0499 16.5358C15.4226 16.5358 15.7836 16.4058 16.0702 16.1683L16.5521 15.7695L22.9118 21.0349Z" fill="#006988"/>
<path d="M22.913 8.96596L15.3128 15.2583C15.239 15.3193 15.1461 15.3527 15.0502 15.3527C14.9543 15.3527 14.8615 15.3193 14.7877 15.2583L7.1875 8.96596C7.22172 8.96261 7.25707 8.96094 7.29185 8.96094H22.808C22.844 8.96094 22.8782 8.96261 22.913 8.96596Z" fill="#006988"/>
<path d="M23.8453 9.99664V20.0045C23.8454 20.0863 23.8356 20.1678 23.8161 20.2472L17.4766 15.0008L23.8161 9.75391C23.8355 9.83337 23.8453 9.91485 23.8453 9.99664Z" fill="#006988"/>
</svg>
