<svg width="12" height="12" viewBox="0 0 12 12" fill="none" xmlns="http://www.w3.org/2000/svg">
<path d="M5.91376 5.78045C6.70789 5.78045 7.39545 5.49563 7.9574 4.93368C8.51917 4.37182 8.80408 3.68435 8.80408 2.89013C8.80408 2.09619 8.51926 1.40863 7.95731 0.846587C7.39536 0.28482 6.70779 0 5.91376 0C5.11954 0 4.43207 0.28482 3.87021 0.846678C3.30835 1.40854 3.02344 2.0961 3.02344 2.89013C3.02344 3.68435 3.30835 4.37191 3.87021 4.93377C4.43225 5.49553 5.11981 5.78045 5.91376 5.78045ZM4.36752 1.3439C4.79865 0.912779 5.30438 0.703215 5.91376 0.703215C6.52304 0.703215 7.02887 0.912779 7.46008 1.3439C7.8912 1.77511 8.10086 2.28094 8.10086 2.89013C8.10086 3.49951 7.8912 4.00524 7.46008 4.43645C7.02887 4.86767 6.52304 5.07723 5.91376 5.07723C5.30457 5.07723 4.79883 4.86758 4.36752 4.43645C3.93631 4.00533 3.72665 3.49951 3.72665 2.89013C3.72665 2.28094 3.93631 1.77511 4.36752 1.3439Z" fill="#868686"/>
<path d="M10.9718 9.2274C10.9556 8.99357 10.9228 8.73851 10.8745 8.46916C10.8258 8.1978 10.7631 7.94127 10.688 7.7068C10.6104 7.46446 10.505 7.22514 10.3746 6.99581C10.2393 6.75777 10.0804 6.55049 9.90207 6.37993C9.71558 6.2015 9.48724 6.05803 9.22321 5.95339C8.96008 5.84929 8.66849 5.79656 8.35657 5.79656C8.23407 5.79656 8.1156 5.84682 7.88681 5.99578C7.746 6.0876 7.5813 6.1938 7.39746 6.31127C7.24026 6.41143 7.02731 6.50527 6.76428 6.59023C6.50766 6.67327 6.2471 6.71538 5.98984 6.71538C5.73276 6.71538 5.4722 6.67327 5.21539 6.59023C4.95264 6.50536 4.73959 6.41152 4.58267 6.31136C4.40057 6.195 4.23578 6.08879 4.09286 5.99569C3.86426 5.84673 3.74579 5.79647 3.62329 5.79647C3.31128 5.79647 3.01978 5.84929 2.75674 5.95348C2.49289 6.05794 2.26447 6.2014 2.07779 6.38002C1.89944 6.55068 1.74051 6.75786 1.60538 6.99581C1.4751 7.22514 1.36963 7.46437 1.29199 7.70689C1.21701 7.94136 1.1543 8.1978 1.10559 8.46916C1.05725 8.73814 1.02457 8.9933 1.00836 9.22767C0.992432 9.45683 0.984375 9.69532 0.984375 9.93629C0.984375 10.5627 1.1835 11.0698 1.57617 11.4438C1.96399 11.8128 2.47705 12 3.10117 12H8.87924C9.50317 12 10.0162 11.8128 10.4041 11.4438C10.7969 11.0701 10.996 10.5628 10.996 9.9362C10.9959 9.69441 10.9878 9.45591 10.9718 9.2274ZM9.91928 10.9343C9.66302 11.1782 9.32281 11.2968 8.87915 11.2968H3.10117C2.65741 11.2968 2.3172 11.1782 2.06104 10.9344C1.80972 10.6952 1.68759 10.3686 1.68759 9.93629C1.68759 9.71144 1.69501 9.48942 1.70984 9.27629C1.7243 9.06718 1.75388 8.83748 1.79773 8.5934C1.84103 8.35234 1.89615 8.12611 1.9617 7.92131C2.0246 7.72493 2.11038 7.53047 2.21677 7.34316C2.3183 7.16463 2.43512 7.01146 2.56403 6.88805C2.6846 6.7726 2.83658 6.67812 3.01566 6.60726C3.18127 6.5417 3.3674 6.50582 3.56946 6.50041C3.59409 6.51351 3.63794 6.5385 3.70898 6.58483C3.85355 6.67903 4.02017 6.78652 4.20438 6.90416C4.41202 7.03655 4.67953 7.15611 4.99915 7.25929C5.3259 7.36495 5.65915 7.41859 5.98993 7.41859C6.32071 7.41859 6.65405 7.36495 6.98062 7.25939C7.30051 7.15602 7.56793 7.03655 7.77585 6.90398C7.96436 6.78349 8.12631 6.67912 8.27087 6.58483C8.34192 6.53859 8.38577 6.51351 8.4104 6.50041C8.61255 6.50582 8.79868 6.5417 8.96439 6.60726C9.14337 6.67812 9.29535 6.77269 9.41592 6.88805C9.54483 7.01137 9.66165 7.16454 9.76318 7.34325C9.86966 7.53047 9.95554 7.72502 10.0183 7.92122C10.084 8.1263 10.1392 8.35243 10.1824 8.59331C10.2262 8.83784 10.2558 9.06764 10.2703 9.27638V9.27656C10.2852 9.48887 10.2927 9.7108 10.2928 9.93629C10.2927 10.3687 10.1706 10.6952 9.91928 10.9343Z" fill="#868686"/>
</svg>
