<svg width="30" height="30" viewBox="0 0 30 30" fill="none" xmlns="http://www.w3.org/2000/svg">
<path d="M11.7985 6.53748C12.0653 6.59386 12.3243 6.68212 12.5699 6.80035C12.6914 6.85878 12.8092 6.92453 12.9227 6.99723L12.608 12.8751C12.1677 13.0952 11.6844 13.2168 11.192 13.2314C11.6092 15.4398 12.8809 17.396 14.7326 18.6774C14.947 18.2354 15.2556 17.8454 15.637 17.5347L21.1468 19.6495C21.167 19.7825 21.1789 19.9166 21.1827 20.0511C21.1976 20.5602 21.0971 21.0661 20.8889 21.5311C20.6806 21.9962 20.3698 22.4084 19.9796 22.7372C19.5895 23.066 19.13 23.3028 18.6353 23.4301C18.1407 23.5574 17.6236 23.5719 17.1226 23.4724L17.0794 23.4635L17.0367 23.454C10.5378 22.0462 6.39469 15.6722 7.76022 9.1836C7.76359 9.16906 7.7664 9.15508 7.7692 9.14054C7.77201 9.12599 7.77537 9.11201 7.77874 9.09803C7.97651 8.23006 8.50924 7.47467 9.26158 6.99543C10.0139 6.51619 10.9253 6.35167 11.7985 6.53748Z" fill="#006988"/>
<path d="M14.3398 10.2754C14.4324 10.2754 14.5244 10.2782 14.6153 10.2832C15.3557 10.3266 16.0755 10.5425 16.7171 10.9135C17.3586 11.2846 17.9038 11.8005 18.309 12.4198C18.7143 13.0391 18.9681 13.7445 19.0503 14.4793C19.1324 15.2142 19.0405 15.958 18.782 16.651" stroke="#006988" stroke-miterlimit="10"/>
<path d="M14.6914 7.33984C15.9017 7.3962 17.0815 7.73657 18.1349 8.33327C19.1884 8.92997 20.0857 9.76614 20.7538 10.7738C21.4219 11.7814 21.8421 12.9321 21.98 14.1321C22.118 15.3321 21.9698 16.5477 21.5477 17.6799" stroke="#006988" stroke-miterlimit="10"/>
</svg>
