<svg width="103" height="73" viewBox="0 0 103 73" fill="none" xmlns="http://www.w3.org/2000/svg">
<rect x="0.273438" width="102" height="73" rx="8.5" fill="#E0F7FA"/>
<g clip-path="url(#clip0_40003178_12079)">
<path fill-rule="evenodd" clip-rule="evenodd" d="M61.6044 40.059C60.9036 40.747 59.9112 41.1845 58.8317 41.1845H57.5211V49.5381H62.0703C62.4491 49.5381 62.7673 49.8298 62.7673 50.2262C62.7673 50.6038 62.4491 50.9179 62.0703 50.9179H51.5552C51.1764 50.9179 50.8582 50.6038 50.8582 50.2262C50.8582 49.8298 51.1764 49.5381 51.5552 49.5381H56.1044V41.1845H51.5552C51.1764 41.1845 50.8582 40.8741 50.8582 40.4965V22.8506C50.8582 22.4767 51.1764 22.1626 51.5552 22.1626H58.8317C59.9112 22.1626 60.9036 22.6001 61.6044 23.3106C62.3241 24.0023 62.7673 24.982 62.7673 26.0477V37.3218C62.7673 38.3875 62.3241 39.3485 61.6044 40.059ZM69.3468 20.1172H36.0703V52.9633H69.3468V20.1172ZM46.2029 37.3442L44.343 38.4099C44.0059 38.6193 43.5589 38.4922 43.3696 38.1594C43.1802 37.8229 43.3052 37.4078 43.6233 37.2171L45.5059 36.1551L47.6196 34.9436C47.9605 34.7529 48.3847 34.8576 48.5741 35.1941C48.7635 35.5269 48.6574 35.9457 48.3203 36.1551L46.2029 37.3442ZM47.9605 33.3357H43.3696C42.968 33.3357 42.6499 33.0216 42.6499 32.6439C42.6499 32.2475 42.968 31.9372 43.3696 31.9372H47.9605C48.362 31.9372 48.6802 32.2475 48.6802 32.6439C48.6802 33.0216 48.362 33.3357 47.9605 33.3357Z" fill="#95B79F"/>
<path fill-rule="evenodd" clip-rule="evenodd" d="M52.2734 23.5625V39.8098H58.8303C59.5272 39.8098 60.1636 39.5182 60.6068 39.0769C61.0727 38.6207 61.3492 37.9925 61.3492 37.3232V26.0491C61.3492 25.3574 61.0727 24.7329 60.6068 24.2954C60.1636 23.8355 59.5272 23.5625 58.8303 23.5625H52.2734Z" fill="#95B79F"/>
<path d="M51.5563 22.1641H58.8329C59.9124 22.1641 60.9048 22.6016 61.6056 23.312C62.3253 24.0038 62.7685 24.9835 62.7685 26.0492V37.3233C62.7685 38.389 62.3253 39.35 61.6056 40.0604C60.9048 40.7485 59.9124 41.186 58.8329 41.186H51.5563C51.1776 41.186 50.8594 40.8756 50.8594 40.4979V22.8521C50.8594 22.4782 51.1776 22.1641 51.5563 22.1641ZM58.8329 23.5626H52.276V39.8099H58.8329C59.5298 39.8099 60.1662 39.5182 60.6094 39.077C61.0753 38.6208 61.3518 37.9926 61.3518 37.3233V26.0492C61.3518 25.3574 61.0753 24.733 60.6094 24.2955C60.1662 23.8355 59.5298 23.5626 58.8329 23.5626Z" fill="#95B79F"/>
<path d="M57.5182 40.5005C57.5182 40.1266 57.2 39.8125 56.7985 39.8125C56.4197 39.8125 56.1016 40.1266 56.1016 40.5005V50.2302C56.1016 50.6079 56.4197 50.922 56.7985 50.922C57.2 50.922 57.5182 50.6079 57.5182 50.2302V40.5005Z" fill="#95B79F"/>
<path d="M62.0715 50.9189C62.4503 50.9189 62.7685 50.6048 62.7685 50.2271C62.7685 49.8307 62.4503 49.5391 62.0715 49.5391H51.5563C51.1776 49.5391 50.8594 49.8307 50.8594 50.2271C50.8594 50.6048 51.1776 50.9189 51.5563 50.9189H62.0715Z" fill="#95B79F"/>
<path d="M58.3627 27.9506C58.0256 27.7637 57.6013 27.8871 57.4119 28.2236C57.2226 28.5564 57.3286 28.9752 57.6657 29.1622L58.0483 29.3716C58.1733 29.4538 58.2566 29.5585 58.3021 29.7044C58.3438 29.8315 58.321 29.9773 58.2566 30.1007H58.2377C58.2377 30.1232 58.2377 30.1419 58.215 30.1419L56.0597 33.84L56.6733 34.1953L56.6279 34.1728L56.0597 33.84C56.0597 33.8587 56.0597 33.8587 56.037 33.8812C55.9726 33.9859 55.8476 34.0681 55.7415 34.0906C55.5938 34.1317 55.446 34.1093 55.3173 34.0494C55.2983 34.027 55.2756 34.027 55.2529 34.0046L54.9385 33.8176C54.5976 33.6306 54.1771 33.754 53.9839 34.0906C53.7945 34.4009 53.9006 34.8422 54.2377 35.0291L54.5559 35.2161C54.5976 35.2385 54.6392 35.2572 54.6847 35.2797C55.1279 35.5078 55.6354 35.5526 56.1013 35.4255C56.5673 35.3208 56.9688 35.0291 57.2415 34.5916C57.2642 34.5692 57.287 34.5281 57.3059 34.4869L59.4423 30.8336L59.465 30.8112L58.8513 30.456L59.465 30.7888C59.7377 30.3326 59.7794 29.8091 59.6544 29.3491C59.5256 28.8705 59.2112 28.4517 58.7453 28.1787L58.3627 27.9506ZM54.2832 34.5056C54.3021 34.4234 54.3248 34.3598 54.3665 34.3C54.3665 34.2775 54.3854 34.2364 54.4082 34.214C54.3438 34.3 54.3021 34.4009 54.2832 34.5056ZM54.4498 34.1504C54.4915 34.1317 54.537 34.0906 54.5559 34.0681C54.537 34.1093 54.4915 34.1317 54.4498 34.1504Z" fill="#95B79F"/>
<path d="M43.3681 31.9375C42.9666 31.9375 42.6484 32.2479 42.6484 32.6442C42.6484 33.0219 42.9666 33.336 43.3681 33.336H47.959C48.3606 33.336 48.6787 33.0219 48.6787 32.6442C48.6787 32.2479 48.3606 31.9375 47.959 31.9375H43.3681Z" fill="#95B79F"/>
<path d="M44.3439 26.8641C44.0068 26.6734 43.5599 26.7781 43.3705 27.1147C43.1811 27.4475 43.3061 27.8663 43.6242 28.0532L45.5068 29.1189C45.5068 29.1376 45.5296 29.1376 45.5485 29.1376L47.6205 30.3305C47.9614 30.5174 48.3856 30.4127 48.575 30.0799C48.7644 29.7434 48.6583 29.3283 48.3212 29.1376L46.2492 27.9485C46.2265 27.9261 46.2265 27.9261 46.2038 27.9261L44.3439 26.8641Z" fill="#95B79F"/>
<path d="M43.6242 37.2197C43.3061 37.4104 43.1811 37.8254 43.3705 38.162C43.5599 38.4948 44.0068 38.6219 44.3439 38.4125L46.2038 37.3468L48.3212 36.1577C48.6583 35.9483 48.7644 35.5295 48.575 35.1967C48.3856 34.8602 47.9614 34.7554 47.6205 34.9462L45.5068 36.1577L43.6242 37.2197Z" fill="#95B79F"/>
<path d="M35.3759 18.7227H70.0653C70.4479 18.7227 70.7661 19.033 70.7661 19.4331V53.6778C70.7661 54.0517 70.4479 54.3658 70.0653 54.3658H35.3759C34.9744 54.3658 34.6562 54.0517 34.6562 53.6778V19.4331C34.6562 19.033 34.9744 18.7227 35.3759 18.7227ZM69.3494 20.1212H36.0729V52.9673H69.3494V20.1212Z" fill="#95B79F"/>
<path fill-rule="evenodd" clip-rule="evenodd" d="M60.8975 39.3715C60.1816 40.0595 59.2081 40.497 58.1286 40.497H56.7952V48.8282H61.3445C61.746 48.8282 62.0642 49.1423 62.0642 49.5387C62.0642 49.9163 61.746 50.2267 61.3445 50.2267H50.852C50.4695 50.2267 50.1551 49.9163 50.1551 49.5387C50.1551 49.1423 50.4695 48.8282 50.852 48.8282H55.4013V40.497H50.852C50.4505 40.497 50.1551 40.1829 50.1551 39.809V22.1631C50.1551 21.7892 50.4505 21.4751 50.852 21.4751H58.1286C59.2081 21.4751 60.1816 21.9126 60.8975 22.6006C61.6172 23.3111 62.0642 24.2721 62.0642 25.3565V36.6118C62.0642 37.6776 61.6172 38.661 60.8975 39.3715ZM68.6399 19.4297H35.3672V52.2758H68.6399V19.4297ZM45.4998 36.6567L43.6172 37.7187C43.2801 37.9094 42.8558 37.8047 42.6664 37.4681C42.477 37.1353 42.5793 36.7165 42.9202 36.5296L44.8028 35.4452L46.9164 34.2523C47.2346 34.0654 47.6778 34.1701 47.871 34.5029C48.0604 34.8394 47.9543 35.2545 47.6134 35.4452L45.4998 36.6567ZM47.2573 32.6444H42.6437C42.2649 32.6444 41.9467 32.3341 41.9467 31.9377C41.9467 31.56 42.2649 31.2459 42.6437 31.2459H47.2573C47.6589 31.2459 47.9543 31.56 47.9543 31.9377C47.9543 32.3341 47.6589 32.6444 47.2573 32.6444Z" fill="#5BA4C2"/>
<path fill-rule="evenodd" clip-rule="evenodd" d="M51.5547 22.8516V39.0989H58.1342C58.8312 39.0989 59.4448 38.8259 59.9107 38.3697C60.3539 37.9285 60.6494 37.304 60.6494 36.6122V25.3569C60.6494 24.6689 60.3539 24.0444 59.9107 23.5845C59.4448 23.147 58.8312 22.8516 58.1342 22.8516H51.5547Z" fill="#E2EEF2"/>
<path d="M50.8532 21.4766H58.1297C59.2093 21.4766 60.1828 21.9141 60.8987 22.6021C61.6184 23.3126 62.0653 24.2736 62.0653 25.358V36.6133C62.0653 37.679 61.6184 38.6625 60.8987 39.3729C60.1828 40.061 59.2093 40.4985 58.1297 40.4985H50.8532C50.4517 40.4985 50.1562 40.1844 50.1562 39.8104V22.1646C50.1562 21.7907 50.4517 21.4766 50.8532 21.4766ZM58.1297 22.8526H51.5502V39.1H58.1297C58.8267 39.1 59.4403 38.827 59.9062 38.3708C60.3494 37.9296 60.6449 37.3051 60.6449 36.6133V25.358C60.6449 24.6699 60.3494 24.0455 59.9062 23.5855C59.4403 23.148 58.8267 22.8526 58.1297 22.8526Z" fill="#6A6A6A"/>
<path d="M56.8002 39.8081C56.8002 39.4118 56.482 39.0977 56.1032 39.0977C55.7206 39.0977 55.4062 39.4118 55.4062 39.8081V49.5378C55.4062 49.9155 55.7206 50.2259 56.1032 50.2259C56.482 50.2259 56.8002 49.9155 56.8002 49.5378V39.8081Z" fill="#6A6A6A"/>
<path d="M61.3456 50.2305C61.7472 50.2305 62.0653 49.9202 62.0653 49.5425C62.0653 49.1461 61.7472 48.832 61.3456 48.832H50.8532C50.4706 48.832 50.1562 49.1461 50.1562 49.5425C50.1562 49.9202 50.4706 50.2305 50.8532 50.2305H61.3456Z" fill="#6A6A6A"/>
<path d="M57.6619 27.2587C57.3247 27.0679 56.9005 27.1727 56.7111 27.5092C56.5179 27.842 56.624 28.2795 56.9649 28.4702L57.3437 28.6759C57.4725 28.7394 57.5558 28.8666 57.5975 29.0124C57.6202 29.1358 57.6202 29.2816 57.5369 29.4088C57.5369 29.4275 57.5141 29.4275 57.5141 29.4499L55.3551 33.1443L55.9687 33.4996L55.9081 33.4584L55.3551 33.1443C55.3361 33.1443 55.3361 33.1668 55.3361 33.1668C55.249 33.2939 55.1467 33.3537 55.0179 33.3949C54.8891 33.4173 54.7414 33.4173 54.6164 33.335C54.5937 33.335 54.5747 33.3126 54.552 33.3126L54.2338 33.1256C53.8967 32.9387 53.4725 33.0434 53.2831 33.3762C53.071 33.709 53.1997 34.1278 53.5369 34.3372L53.8551 34.5017C53.8967 34.5241 53.9194 34.5653 53.9611 34.5653C54.427 34.8158 54.9346 34.8569 55.3778 34.7335C55.8437 34.6064 56.2641 34.3147 56.5407 33.8959C56.5634 33.8548 56.5823 33.8361 56.6051 33.795L58.7414 30.1379C58.7414 30.1192 58.7414 30.1192 58.7604 30.0968C59.0141 29.6369 59.0785 29.1171 58.9535 28.6347C58.8248 28.1748 58.5066 27.7373 58.0444 27.4681L57.6619 27.2587ZM53.5596 33.8548V33.8137C53.5596 33.8361 53.5596 33.8361 53.5596 33.8548ZM53.5785 33.8137C53.5785 33.7314 53.6202 33.6678 53.6429 33.5856C53.6657 33.5631 53.6846 33.5444 53.7073 33.522C53.6429 33.6043 53.6013 33.709 53.5785 33.8137ZM53.874 33.3762L53.8967 33.3537C53.874 33.3537 53.874 33.3537 53.874 33.3762Z" fill="#6A6A6A"/>
<path d="M42.6423 31.2461C42.2635 31.2461 41.9453 31.5602 41.9453 31.9379C41.9453 32.3342 42.2635 32.6446 42.6423 32.6446H47.2559C47.6574 32.6446 47.9529 32.3342 47.9529 31.9379C47.9529 31.5602 47.6574 31.2461 47.2559 31.2461H42.6423Z" fill="#6A6A6A"/>
<path d="M43.6152 26.1555C43.2781 25.9648 42.8538 26.092 42.6645 26.4248C42.4751 26.7613 42.5773 27.1764 42.9182 27.3671L44.7781 28.429C44.8008 28.429 44.8198 28.4515 44.8198 28.4515L46.8955 29.6406C47.2326 29.8313 47.6758 29.7266 47.869 29.39C48.0584 29.0572 47.9523 28.6197 47.6114 28.429L45.5395 27.2624C45.5205 27.2399 45.4978 27.2399 45.4978 27.2175L43.6152 26.1555Z" fill="#6A6A6A"/>
<path d="M42.9182 36.5295C42.5773 36.7165 42.4751 37.1353 42.6645 37.4681C42.8538 37.8046 43.2781 37.9093 43.6152 37.7186L45.4978 36.6566L47.6114 35.4451C47.9523 35.2544 48.0584 34.8393 47.869 34.5028C47.6758 34.17 47.2326 34.0653 46.9145 34.2523L44.8008 35.4451L42.9182 36.5295Z" fill="#6A6A6A"/>
<path d="M34.6501 18.0273H69.3433C69.7448 18.0273 70.0592 18.3414 70.0592 18.7191V52.9638C70.0592 53.3601 69.7448 53.6742 69.3433 53.6742H34.6501C34.2713 53.6742 33.9531 53.3601 33.9531 52.9638V18.7191C33.9531 18.3414 34.2713 18.0273 34.6501 18.0273ZM68.6425 19.4296H35.3698V52.2757H68.6425V19.4296Z" fill="#6A6A6A"/>
</g>
<defs>
<clipPath id="clip0_40003178_12079">
<rect width="56" height="56" fill="white" transform="translate(24 8)"/>
</clipPath>
</defs>
</svg>
