<svg width="103" height="73" viewBox="0 0 103 73" fill="none" xmlns="http://www.w3.org/2000/svg">
<rect x="0.273438" width="102" height="73" rx="8.5" fill="#E0F7FA"/>
<g clip-path="url(#clip0_40003178_12116)">
<path d="M49.8516 48.2422H52.5028V52.2176H49.8516V48.2422Z" fill="#BA3F57"/>
<path d="M52.5002 31.6823H49.849V28.3719H52.5002V31.6823ZM68.396 46.9161C68.396 46.1869 67.7981 45.5919 67.0719 45.5919H35.2773C34.551 45.5919 33.9531 46.1869 33.9531 46.9161C33.9531 47.6453 34.551 48.2403 35.2773 48.2403H67.0719C67.7981 48.2403 68.396 47.6453 68.396 46.9161ZM67.0719 52.2157H35.2773V54.864H67.0719V52.2157ZM55.1485 28.3719C55.1485 26.5403 53.6669 25.0586 51.8381 25.0586H50.511C48.6823 25.0586 47.2006 26.5403 47.2006 28.3719H55.1485Z" fill="#006170"/>
<mask id="mask0_40003178_12116" style="mask-type:luminance" maskUnits="userSpaceOnUse" x="42" y="18" width="19" height="7">
<path d="M42.2266 18.4336H60.1466V24.4915H42.2266V18.4336Z" fill="white"/>
</mask>
<g mask="url(#mask0_40003178_12116)">
<path d="M51.1745 23.0711C50.8128 23.0711 50.5124 22.7736 50.5124 22.409V19.0957C50.5124 18.7311 50.8128 18.4336 51.1745 18.4336C51.5391 18.4336 51.8395 18.7311 51.8395 19.0957V22.409C51.8395 22.7736 51.5391 23.0711 51.1745 23.0711ZM56.2845 24.2057L59.5949 20.8923C59.8516 20.6357 59.8516 20.2157 59.5949 19.959C59.3382 19.7023 58.9182 19.7023 58.6616 19.959L55.3482 23.2694C55.0916 23.5261 55.0916 23.949 55.3482 24.2057C55.4824 24.3369 55.6457 24.3953 55.8207 24.3953C55.9957 24.3953 56.1503 24.3282 56.2845 24.2057ZM47.0124 24.2057C47.2691 23.949 47.2691 23.5261 47.0124 23.2694L43.6991 19.959C43.4424 19.7023 43.0195 19.7023 42.7628 19.959C42.5061 20.2157 42.5061 20.6357 42.7628 20.8923L46.0761 24.2057C46.2074 24.3369 46.3736 24.3953 46.5486 24.3953C46.7207 24.3953 46.8782 24.3282 47.0124 24.2057Z" fill="#EF7E4B"/>
</g>
<path d="M36.5955 45.5951C36.5955 37.548 43.1201 31.0234 51.1672 31.0234C59.2172 31.0234 65.7389 37.548 65.7389 45.5951H36.5955ZM70.3764 54.8672H31.9609V57.5155H70.3764V54.8672Z" fill="#7ABCDD"/>
<mask id="mask1_40003178_12116" style="mask-type:luminance" maskUnits="userSpaceOnUse" x="31" y="23" width="41" height="36">
<path d="M31.3047 23.7461H71.0443V58.1773H31.3047V23.7461Z" fill="white"/>
</mask>
<g mask="url(#mask1_40003178_12116)">
<path d="M70.3822 54.1999H67.7339V52.2137C67.7339 51.8491 67.4334 51.5516 67.0718 51.5516H53.1622V48.9004H67.0718C68.1626 48.9004 69.058 48.0079 69.058 46.9141C69.058 45.8204 68.1626 44.9279 67.0718 44.9279H66.3922C66.0772 37.502 60.413 31.4324 53.1622 30.4874V29.032H55.1484C55.513 29.032 55.8105 28.7316 55.8105 28.3699C55.8105 26.1737 54.0314 24.3945 51.838 24.3945H50.5109C48.3176 24.3945 46.5384 26.1737 46.5384 28.3699C46.5384 28.7316 46.8359 29.032 47.2005 29.032H49.1868V30.4874C41.9359 31.4324 36.2718 37.502 35.9568 44.9279H35.2772C34.1864 44.9279 33.2909 45.8204 33.2909 46.9141C33.2909 48.0079 34.1864 48.9004 35.2772 48.9004H49.1868V51.5516H35.2772C34.9126 51.5516 34.6151 51.8491 34.6151 52.2137V54.1999H31.9668C31.6022 54.1999 31.3047 54.4974 31.3047 54.862V57.5104C31.3047 57.875 31.6022 58.1754 31.9668 58.1754H70.3822C70.7468 58.1754 71.0443 57.875 71.0443 57.5104V54.862C71.0443 54.4974 70.7468 54.1999 70.3822 54.1999ZM50.5109 25.7187H51.838C53.0689 25.7187 54.1043 26.5645 54.4047 27.7049H47.9443C48.2447 26.5645 49.2772 25.7187 50.5109 25.7187ZM50.5109 29.032H51.838V30.3708C51.6134 30.3649 51.3976 30.3562 51.173 30.3562C50.9514 30.3562 50.7355 30.3649 50.5109 30.3708V29.032ZM51.173 31.6804C58.6251 31.6804 64.718 37.5662 65.068 44.9279H37.2809C37.628 37.5662 43.7239 31.6804 51.173 31.6804ZM34.6151 46.9141C34.6151 46.5495 34.9126 46.252 35.2772 46.252H67.0718C67.4334 46.252 67.7339 46.5495 67.7339 46.9141C67.7339 47.2787 67.4334 47.5762 67.0718 47.5762H35.2772C34.9126 47.5762 34.6151 47.2787 34.6151 46.9141ZM50.5109 48.9004H51.838V51.5516H50.5109V48.9004ZM35.9393 52.8758H66.4097V54.1999H35.9393V52.8758ZM69.7201 56.8483H32.6289V55.5241H69.7201V56.8483Z" fill="black"/>
</g>
<mask id="mask2_40003178_12116" style="mask-type:luminance" maskUnits="userSpaceOnUse" x="50" y="18" width="2" height="6">
<path d="M50.4375 18.4336H51.9308V23.7448H50.4375V18.4336Z" fill="white"/>
</mask>
<g mask="url(#mask2_40003178_12116)">
<path d="M51.1699 23.0711C51.5345 23.0711 51.8349 22.7736 51.8349 22.409V19.0957C51.8349 18.7311 51.5345 18.4336 51.1699 18.4336C50.8082 18.4336 50.5078 18.7311 50.5078 19.0957V22.409C50.5078 22.7736 50.8082 23.0711 51.1699 23.0711Z" fill="black"/>
</g>
<path d="M55.8047 24.3983C55.9709 24.3983 56.143 24.3312 56.2772 24.2087L59.5876 20.8954C59.8443 20.6387 59.8443 20.2187 59.5876 19.962C59.3309 19.7054 58.9109 19.7054 58.6543 19.962L55.3409 23.2724C55.0843 23.5291 55.0843 23.952 55.3409 24.2087C55.4664 24.3312 55.6384 24.3983 55.8047 24.3983Z" fill="black"/>
<path d="M46.0674 24.2087C46.1986 24.3399 46.3649 24.3983 46.5399 24.3983C46.712 24.3983 46.8782 24.3312 47.0124 24.2087C47.2691 23.952 47.2691 23.5291 47.0124 23.2724L43.6991 19.962C43.4424 19.7054 43.0195 19.7054 42.7628 19.962C42.5061 20.2187 42.5061 20.6387 42.7628 20.8954L46.0674 24.2087Z" fill="black"/>
</g>
<defs>
<clipPath id="clip0_40003178_12116">
<rect width="56" height="56" fill="white" transform="translate(23 9)"/>
</clipPath>
</defs>
</svg>
