<svg width="16" height="16" viewBox="0 0 16 16" fill="none" xmlns="http://www.w3.org/2000/svg">
<path fill-rule="evenodd" clip-rule="evenodd" d="M11.6074 10.5639C12.533 9.37359 12.97 7.87536 12.8296 6.37423C12.6891 4.87309 11.9816 3.48192 10.8512 2.48399C9.72076 1.48605 8.2524 0.956375 6.74508 1.00281C5.23776 1.04925 3.80482 1.66831 2.73801 2.73395C1.6712 3.79958 1.05075 5.23166 1.00298 6.73859C0.955208 8.24553 1.48372 9.71401 2.48089 10.845C3.47807 11.9761 4.86893 12.6846 6.37028 12.8264C7.87163 12.9681 9.37059 12.5325 10.5619 11.6081L10.594 11.642L13.7348 14.783C13.8738 14.9219 14.0623 15 14.2588 15C14.4554 15 14.6439 14.9219 14.7829 14.783C14.9219 14.644 15 14.4555 15 14.259C15 14.0625 14.9219 13.874 14.7829 13.7351L11.6412 10.595L11.6074 10.5639ZM10.0708 3.79171C10.6919 4.41274 11.1148 5.20395 11.2861 6.06528C11.4574 6.92661 11.3694 7.81939 11.0332 8.63072C10.697 9.44205 10.1278 10.1355 9.39741 10.6234C8.66704 11.1113 7.80837 11.3717 6.92998 11.3717C6.05158 11.3717 5.19291 11.1113 4.46254 10.6234C3.73217 10.1355 3.16291 9.44205 2.82673 8.63072C2.49055 7.81939 2.40255 6.92661 2.57386 6.06528C2.74517 5.20395 3.1681 4.41274 3.78916 3.79171C4.2016 3.37931 4.69125 3.05216 5.23015 2.82896C5.76906 2.60577 6.34666 2.49089 6.92998 2.49089C7.51329 2.49089 8.0909 2.60577 8.6298 2.82896C9.16871 3.05216 9.65835 3.37931 10.0708 3.79171Z" fill="#0A2A3C"/>
</svg>
