<svg width="103" height="73" viewBox="0 0 103 73" fill="none" xmlns="http://www.w3.org/2000/svg">
<rect x="0.804688" width="102" height="73" rx="8.5" fill="#E0F7FA"/>
<g clip-path="url(#clip0_40003178_12032)">
<path d="M70.1014 46.8906L67 47.2503L68.6301 52.1666C68.763 52.5392 69.1227 52.8017 69.5148 52.8017C70.0528 52.8017 70.4773 52.3448 70.4449 51.8068L70.1014 46.8906Z" fill="#B87F59"/>
<mask id="mask0_40003178_12032" style="mask-type:luminance" maskUnits="userSpaceOnUse" x="30" y="22" width="45" height="30">
<path d="M30.4297 22.0664H74.7857V51.9331H30.4297V22.0664Z" fill="white"/>
</mask>
<g mask="url(#mask0_40003178_12032)">
<path d="M33.8516 47.0874C31.9753 38.467 31.2072 33.2105 30.5202 24.0489C30.4553 23.2679 31.0938 22.6133 31.8748 22.6457L48.8563 23.3975L49.5725 29.8142L73.3757 31.2661C74.1762 31.3147 74.7336 32.0665 74.5845 32.8508C73.5248 38.2369 73.3271 41.5846 73.3433 47.0874L52.4632 51.2485L33.8516 47.0874Z" fill="#E0F7FA"/>
<path d="M33.8516 47.0874C31.9753 38.467 31.2072 33.2105 30.5202 24.0489C30.4553 23.2679 31.0938 22.6133 31.8748 22.6457L48.8563 23.3975L49.5725 29.8142L73.3757 31.2661C74.1762 31.3147 74.7336 32.0665 74.5845 32.8508C73.5248 38.2369 73.3271 41.5846 73.3433 47.0874L52.4632 51.2485L33.8516 47.0874Z" fill="black" fill-opacity="0.4"/>
</g>
<path d="M34.3131 46.8906L37.4145 47.2503L36.1571 52.1471C36.0436 52.5554 35.6839 52.8503 35.2432 52.8503C34.7214 52.8503 34.2969 52.4258 34.2969 51.9041V46.8906H34.3131Z" fill="#B87F59"/>
<mask id="mask1_40003178_12032" style="mask-type:luminance" maskUnits="userSpaceOnUse" x="50" y="50" width="5" height="8">
<path d="M50.3438 50.2734H54.4919V57.3966H50.3438V50.2734Z" fill="white"/>
</mask>
<g mask="url(#mask1_40003178_12032)">
<path d="M53.7576 50.6445L50.6562 51.0043L51.4729 56.5232C51.5377 56.9802 51.9299 57.3205 52.403 57.3205C52.8924 57.3205 53.3007 56.9478 53.3331 56.4552L53.7576 50.6445Z" fill="#B87F59"/>
</g>
<path d="M53.3503 34.8944L53.1721 34.875L38.6406 35.2185V43.006L55.2267 44.9019C61.2027 44.6394 65.1207 44.1014 70.9508 42.5005C71.4726 40.6565 71.5536 39.5125 71.2101 37.9796C71.0642 37.325 70.5749 36.8032 69.9397 36.6056C67.1138 35.8083 62.8846 35.5296 53.3503 34.8944Z" fill="#04B0B6"/>
<path fill-rule="evenodd" clip-rule="evenodd" d="M70.6341 36.9961L51.8281 38.5646L52.3175 44.5729L55.2212 44.9003C61.1971 44.6378 65.1152 44.0998 70.9453 42.4989C71.467 40.6549 71.548 39.5109 71.2045 37.978C71.1397 37.6021 70.9291 37.2586 70.6341 36.9961Z" fill="black" fill-opacity="0.2"/>
<path d="M36.758 19.7241C42.5686 19.5134 46.5677 19.9542 53.1658 21.7981C53.6714 21.9472 54.0473 22.3685 54.0959 22.8935L54.864 29.1611L56.8052 35.8241C48.5446 37.2435 43.9881 36.9486 35.8603 36.7542C34.5024 32.0681 34.0941 28.8014 33.5723 23.4477C33.3779 21.5032 34.8135 19.7921 36.758 19.7241Z" fill="#04B0B6"/>
<path fill-rule="evenodd" clip-rule="evenodd" d="M43.5468 25.5703C43.6472 25.5703 43.712 25.6351 43.7282 25.7161L43.9065 28.1986C43.9065 28.2958 43.8417 28.3606 43.7606 28.3768C43.6634 28.3768 43.5954 28.312 43.5792 28.231L43.4009 25.7486C43.3847 25.6513 43.4495 25.5703 43.5468 25.5703Z" fill="black" fill-opacity="0.05"/>
<path fill-rule="evenodd" clip-rule="evenodd" d="M45.4146 26.9081C45.4146 27.0054 45.3498 27.0702 45.2493 27.0702L41.7558 27.0864C41.6586 27.0864 41.5938 27.0216 41.5938 26.9243C41.5938 26.8271 41.6586 26.7623 41.7558 26.7623L45.2655 26.7461C45.3498 26.7461 45.4146 26.8109 45.4146 26.9081Z" fill="black" fill-opacity="0.05"/>
<path d="M44.176 26.9082C44.1598 27.2193 43.8973 27.4624 43.57 27.4462C43.2621 27.43 43.0158 27.1707 43.032 26.8434C43.0482 26.5323 43.3107 26.2892 43.638 26.3055C43.9459 26.3379 44.1922 26.5971 44.176 26.9082Z" fill="#E0F7FA"/>
<path fill-rule="evenodd" clip-rule="evenodd" d="M49.8276 25.7305C49.9248 25.7305 49.9896 25.7953 50.0058 25.8795L50.1873 28.3587C50.1873 28.4592 50.1225 28.524 50.0383 28.5402C49.941 28.5402 49.8762 28.4754 49.86 28.3911L49.6818 25.912C49.6656 25.8309 49.7466 25.7467 49.8276 25.7305Z" fill="black" fill-opacity="0.05"/>
<path fill-rule="evenodd" clip-rule="evenodd" d="M51.6808 27.0722C51.6808 27.1727 51.616 27.2375 51.5188 27.2375L48.009 27.2537C47.9086 27.2537 47.8438 27.1889 47.8438 27.0884C47.8438 26.9912 47.9086 26.9264 48.009 26.9264L51.5188 26.9102C51.616 26.9102 51.6808 26.9912 51.6808 27.0722Z" fill="black" fill-opacity="0.05"/>
<path d="M50.4618 27.0879C50.4456 27.399 50.1864 27.6453 49.859 27.6291C49.5479 27.6129 49.3049 27.3504 49.3211 27.0231C49.3373 26.7152 49.5965 26.4689 49.9239 26.4851C50.235 26.5013 50.478 26.78 50.4618 27.0879Z" fill="#E0F7FA"/>
<path fill-rule="evenodd" clip-rule="evenodd" d="M38.3938 19.6758L37.3178 19.9707C36.7313 20.1327 36.3716 20.7063 36.5012 21.3091L39.6836 36.8517C39.1942 36.8355 38.6887 36.8193 38.1669 36.8193C37.4313 36.8031 36.6632 36.7869 35.8498 36.7545C34.4919 32.0684 34.0836 28.8017 33.5618 23.448C33.3836 21.5036 34.8192 19.7924 36.7637 19.7244C37.3178 19.7082 37.872 19.692 38.3938 19.6758Z" fill="black" fill-opacity="0.2"/>
<mask id="mask2_40003178_12032" style="mask-type:luminance" maskUnits="userSpaceOnUse" x="51" y="31" width="24" height="21">
<path d="M51.1719 31.1953H74.7872V51.9361H51.1719V31.1953Z" fill="white"/>
</mask>
<g mask="url(#mask2_40003178_12032)">
<path fill-rule="evenodd" clip-rule="evenodd" d="M73.0567 31.2539L73.3645 31.2701C74.165 31.3187 74.7224 32.0706 74.5733 32.8548C73.5136 38.2409 73.3159 41.5886 73.3321 47.0914L53.2687 51.0905L52.4358 51.2039L51.9141 46.9099L54.7854 46.3882L71.2289 43.9382L73.0567 31.2539Z" fill="#E0F7FA"/>
</g>
<mask id="mask3_40003178_12032" style="mask-type:luminance" maskUnits="userSpaceOnUse" x="28" y="22" width="28" height="30">
<path d="M28.1406 22.0664H55.3175V51.9331H28.1406V22.0664Z" fill="white"/>
</mask>
<g mask="url(#mask3_40003178_12032)">
<path d="M29.5061 22.6602H32.3612C32.5103 25.4213 32.8862 27.0352 34.2408 30.0555L50.8756 31.5106C51.6274 31.5754 52.2496 32.1458 52.3469 32.8977L54.9589 50.644L54.3853 50.806C52.9172 51.2143 51.3649 51.2629 49.8644 50.9713L32.5427 47.5102C31.7746 47.3611 31.1719 46.7583 31.0066 45.9902C29.6357 39.1977 29.0816 33.6819 28.2001 24.0796C28.1353 23.3148 28.7381 22.6602 29.5061 22.6602Z" fill="#E0F7FA"/>
<path d="M29.5061 22.6602H32.3612C32.5103 25.4213 32.8862 27.0352 34.2408 30.0555L50.8756 31.5106C51.6274 31.5754 52.2496 32.1458 52.3469 32.8977L54.9589 50.644L54.3853 50.806C52.9172 51.2143 51.3649 51.2629 49.8644 50.9713L32.5427 47.5102C31.7746 47.3611 31.1719 46.7583 31.0066 45.9902C29.6357 39.1977 29.0816 33.6819 28.2001 24.0796C28.1353 23.3148 28.7381 22.6602 29.5061 22.6602Z" fill="black" fill-opacity="0.2"/>
</g>
<path fill-rule="evenodd" clip-rule="evenodd" d="M29.8906 22.6646C30.2147 26.1095 30.7721 27.9049 32.2564 30.1248C37.5615 30.9901 41.4471 31.4308 48.7777 32.0693C49.5619 32.1341 50.1841 32.7401 50.2652 33.5211L52.2226 51.154C52.9582 51.1216 53.6939 51.0082 54.4133 50.8105L54.9837 50.6484L52.3554 32.8697C52.2388 32.1341 51.6522 31.5637 50.9166 31.4827L34.217 29.6031C32.8786 26.5665 32.5189 25.4258 32.3698 22.6484H29.8906V22.6646Z" fill="#E0F7FA"/>
</g>
<defs>
<clipPath id="clip0_40003178_12032">
<rect width="56" height="56" fill="white" transform="translate(24 9)"/>
</clipPath>
</defs>
</svg>
