<svg width="11" height="17" viewBox="0 0 11 17" fill="none" xmlns="http://www.w3.org/2000/svg">
<mask id="mask0_3638_4484" style="mask-type:luminance" maskUnits="userSpaceOnUse" x="0" y="12" width="10" height="5">
<path d="M0.902344 12.7993H9.2411V16.6774H0.902344V12.7993Z" fill="white"/>
</mask>
<g mask="url(#mask0_3638_4484)">
<path d="M2.57629 13.7475C2.63194 13.719 2.68949 13.6918 2.74839 13.666C2.96093 13.5729 3.05784 13.3251 2.965 13.1123C2.87163 12.8997 2.62353 12.8034 2.41126 12.8959C2.33742 12.9282 2.26576 12.9622 2.19437 12.9985C1.40556 13.4027 0.970703 13.9424 0.970703 14.5178C0.970703 15.0965 1.40556 15.6367 2.19519 16.0393C2.97016 16.4339 4.0011 16.6514 5.09828 16.6514C6.196 16.6514 7.22667 16.4339 8.00137 16.0393C8.79073 15.6367 9.22559 15.0963 9.22559 14.5178C9.22559 13.9426 8.79101 13.403 8.00137 12.998C7.92021 12.9567 7.83579 12.9174 7.74947 12.8802C7.53585 12.7884 7.28883 12.8867 7.19709 13.0995C7.10534 13.3129 7.2036 13.5604 7.41696 13.6519C7.48672 13.682 7.55403 13.7138 7.61837 13.7464C8.18433 14.0363 8.38492 14.343 8.38492 14.5178C8.38492 14.694 8.1846 15.0021 7.61945 15.2901C6.96093 15.6259 6.06571 15.8107 5.09828 15.8107C4.13113 15.8107 3.23563 15.6259 2.57711 15.2901C2.01169 15.0023 1.81164 14.6943 1.81164 14.5178C1.81137 14.3433 2.01196 14.0365 2.57629 13.7475Z" fill="#006988"/>
</g>
<mask id="mask1_3638_4484" style="mask-type:luminance" maskUnits="userSpaceOnUse" x="0" y="0" width="11" height="15">
<path d="M0 0.67749H10.215V14.4671H0V0.67749Z" fill="white"/>
</mask>
<g mask="url(#mask1_3638_4484)">
<path d="M5.15445 0.678847C5.14305 0.678033 5.13165 0.67749 5.12025 0.67749H5.07763C5.06623 0.67749 5.05483 0.678033 5.0437 0.678847C2.27389 0.719564 0.0260597 2.99834 0.0260597 5.76489C-0.0176428 8.51761 2.08876 11.0366 3.62649 12.8759C4.07763 13.4153 4.46715 13.8813 4.73073 14.2671C4.8089 14.3819 4.93892 14.4506 5.0779 14.4506H5.12025C5.25923 14.4506 5.38925 14.3819 5.4677 14.2671C5.731 13.8811 6.12052 13.4153 6.57166 12.8756C8.10939 11.0366 10.2155 8.51734 10.1721 5.77168C10.1718 2.99834 7.92372 0.720107 5.15445 0.678847ZM5.92644 12.3366C5.61753 12.706 5.33659 13.042 5.09881 13.3488C4.86102 13.042 4.58035 12.706 4.27144 12.3366C2.81813 10.5985 0.827905 8.21793 0.866722 5.77168C0.866722 3.44758 2.75733 1.54014 5.08143 1.51924C5.0874 1.51924 5.0931 1.51897 5.09881 1.5187C5.10478 1.51897 5.11048 1.51924 5.11645 1.51924C7.44028 1.54014 9.33116 3.44758 9.33116 5.77819C9.36971 8.21793 7.37975 10.5982 5.92644 12.3366Z" fill="#006988"/>
</g>
<path d="M5.098 3.91443C4.07085 3.92556 3.24023 4.75265 3.24023 5.77246C3.24023 6.79201 4.06977 7.6191 5.098 7.63023C6.1265 7.6191 6.95576 6.79201 6.95576 5.77246C6.95576 4.75265 6.12541 3.92556 5.098 3.91443Z" fill="#006988"/>
</svg>
