<svg width="25" height="24" viewBox="0 0 25 24" fill="none" xmlns="http://www.w3.org/2000/svg">
<path d="M14.6428 1.40967L17.1715 6.52387L22.8259 7.34421C23.2415 7.40416 23.632 7.57924 23.9532 7.84963C24.2744 8.12002 24.5135 8.47494 24.6434 8.87419C24.7734 9.27345 24.789 9.70111 24.6885 10.1088C24.5879 10.5164 24.3753 10.8878 24.0746 11.1809L19.9825 15.1617L20.9485 20.7832C21.0195 21.1977 20.973 21.6238 20.8144 22.0133C20.6558 22.4027 20.3913 22.74 20.0509 22.987C19.7105 23.234 19.3078 23.3808 18.8883 23.4108C18.4688 23.4407 18.0493 23.3527 17.6773 23.1567L12.6197 20.5025L7.56218 23.1567C7.19026 23.3525 6.771 23.4403 6.35178 23.4103C5.93255 23.3803 5.53008 23.2336 5.18984 22.9869C4.84959 22.7401 4.58515 22.4031 4.4264 22.014C4.26764 21.6248 4.2209 21.199 4.29145 20.7847L5.25745 15.1632L1.16487 11.1809C0.863726 10.8878 0.65071 10.5162 0.549967 10.1083C0.449225 9.70032 0.464785 9.2723 0.594884 8.87274C0.724983 8.47318 0.964417 8.11805 1.28604 7.84762C1.60767 7.57719 1.99863 7.40227 2.41459 7.34269L8.06793 6.52387L10.5967 1.40967C10.7831 1.03224 11.0713 0.714474 11.4288 0.492284C11.7863 0.270094 12.1988 0.152344 12.6197 0.152344C13.0407 0.152344 13.4532 0.270094 13.8107 0.492284C14.1682 0.714474 14.4564 1.03224 14.6428 1.40967Z" fill="#071A2B"/>
</svg>
