<svg width="25" height="24" viewBox="0 0 25 24" fill="none" xmlns="http://www.w3.org/2000/svg">
<path d="M14.2443 1.40967L16.7731 6.52387L22.4275 7.34421C22.843 7.40416 23.2335 7.57924 23.5547 7.84963C23.876 8.12002 24.1151 8.47494 24.245 8.87419C24.375 9.27345 24.3905 9.70111 24.29 10.1088C24.1895 10.5164 23.9768 10.8878 23.6762 11.1809L19.5841 15.1617L20.5501 20.7832C20.6211 21.1977 20.5746 21.6238 20.416 22.0133C20.2573 22.4027 19.9928 22.74 19.6525 22.987C19.3121 23.234 18.9094 23.3808 18.4899 23.4108C18.0704 23.4407 17.6509 23.3527 17.2789 23.1567L12.2213 20.5025L7.16374 23.1567C6.79183 23.3525 6.37257 23.4403 5.95334 23.4103C5.53412 23.3803 5.13164 23.2336 4.7914 22.9869C4.45116 22.7401 4.18672 22.4031 4.02796 22.014C3.8692 21.6248 3.82246 21.199 3.89301 20.7847L4.85901 15.1632L0.76643 11.1809C0.465289 10.8878 0.252273 10.5162 0.15153 10.1083C0.0507871 9.70032 0.0663472 9.2723 0.196446 8.87274C0.326545 8.47318 0.565979 8.11805 0.887606 7.84762C1.20923 7.57719 1.60019 7.40227 2.01615 7.34269L7.6695 6.52387L10.1983 1.40967C10.3846 1.03224 10.6728 0.714474 11.0303 0.492284C11.3878 0.270094 11.8004 0.152344 12.2213 0.152344C12.6422 0.152344 13.0548 0.270094 13.4123 0.492284C13.7698 0.714474 14.058 1.03224 14.2443 1.40967Z" fill="white"/>
</svg>
