<svg width="19" height="18" viewBox="0 0 19 18" fill="none" xmlns="http://www.w3.org/2000/svg">
<path d="M11.0217 1.30244L12.9247 5.09074L17.1798 5.6984C17.4925 5.74281 17.7863 5.8725 18.0281 6.07279C18.2698 6.27308 18.4497 6.53598 18.5475 6.83172C18.6453 7.12747 18.657 7.44426 18.5814 7.74623C18.5057 8.0482 18.3457 8.32329 18.1195 8.54038L15.0401 11.4891L15.767 15.6532C15.8204 15.9602 15.7854 16.2759 15.6661 16.5644C15.5467 16.8529 15.3477 17.1027 15.0915 17.2857C14.8354 17.4686 14.5323 17.5773 14.2166 17.5996C13.901 17.6218 13.5853 17.5566 13.3053 17.4113L9.49937 15.4453L5.69342 17.4113C5.41354 17.5564 5.09804 17.6214 4.78256 17.5992C4.46708 17.577 4.16421 17.4683 3.90817 17.2856C3.65213 17.1028 3.45313 16.8532 3.33366 16.5649C3.21419 16.2766 3.17902 15.9612 3.23211 15.6543L3.95905 11.4902L0.879276 8.54038C0.652659 8.32329 0.492359 8.04805 0.416547 7.74586C0.340736 7.44367 0.352445 7.12662 0.450348 6.83065C0.548251 6.53467 0.728431 6.27162 0.970464 6.0713C1.2125 5.87098 1.5067 5.74141 1.81973 5.69728L6.07401 5.09074L7.97699 1.30244C8.11722 1.02287 8.33411 0.787486 8.60314 0.622901C8.87217 0.458316 9.18261 0.371094 9.49937 0.371094C9.81612 0.371094 10.1266 0.458316 10.3956 0.622901C10.6646 0.787486 10.8815 1.02287 11.0217 1.30244Z" fill="#006988"/>
</svg>
