<svg width="30" height="27" viewBox="0 0 30 27" fill="none" xmlns="http://www.w3.org/2000/svg">
<path d="M15.4897 26.3413C15.0712 26.3413 14.6661 26.2873 14.3286 26.1657C9.17141 24.3972 0.976562 18.1194 0.976562 8.84452C0.976562 4.11932 4.79722 0.285156 9.49542 0.285156C11.777 0.285156 13.9101 1.17619 15.4897 2.76926C17.0692 1.17619 19.2023 0.285156 21.4839 0.285156C26.1821 0.285156 30.0028 4.13282 30.0028 8.84452C30.0028 18.1329 21.8079 24.3972 16.6507 26.1657C16.3132 26.2873 15.9082 26.3413 15.4897 26.3413ZM9.49542 2.31024C5.91777 2.31024 3.00165 5.23986 3.00165 8.84452C3.00165 18.0654 11.8715 23.1956 14.9902 24.2622C15.2332 24.3432 15.7597 24.3432 16.0027 24.2622C19.1078 23.1956 27.9912 18.0789 27.9912 8.84452C27.9912 5.23986 25.0751 2.31024 21.4974 2.31024C19.4453 2.31024 17.5418 3.26878 16.3132 4.92935C15.9352 5.44237 15.0712 5.44237 14.6931 4.92935C13.4376 3.25528 11.5475 2.31024 9.49542 2.31024Z" fill="white"/>
</svg>
