<svg width="23" height="22" viewBox="0 0 23 22" fill="none" xmlns="http://www.w3.org/2000/svg">
<mask id="mask0_40002687_9400" style="mask-type:luminance" maskUnits="userSpaceOnUse" x="1" y="1" width="22" height="21">
<path d="M1 1H22.0764V21.16H1V1Z" fill="white"/>
</mask>
<g mask="url(#mask0_40002687_9400)">
<path fill-rule="evenodd" clip-rule="evenodd" d="M13.4901 14.8764C12.2448 14.4288 12.1241 12.7967 13.2678 12.174C13.5264 12.8499 13.8599 14.1946 13.4901 14.8764ZM14.0259 18.4425C14.1439 18.3296 14.3353 18.3296 14.4533 18.4425C14.5713 18.556 14.5713 18.7391 14.4533 18.852L13.7618 19.5135C14.9864 19.5666 16.1761 19.2739 17.2004 18.7089C18.3983 18.0467 19.3712 17.0118 19.909 15.7177C19.9708 15.5701 20.1457 15.4979 20.3001 15.5563C20.4552 15.6147 20.5306 15.7827 20.4696 15.9303C19.8788 17.3492 18.8141 18.4838 17.5023 19.2083C16.4238 19.8042 15.1778 20.1231 13.8914 20.0956L14.4533 20.633C14.5713 20.7459 14.5713 20.929 14.4533 21.0425C14.3353 21.1554 14.1439 21.1554 14.0259 21.0425L12.8808 19.9472C12.7628 19.8337 12.7628 19.6506 12.8808 19.5377L14.0259 18.4425ZM9.42025 8.54425C9.79485 8.21481 10.1413 7.9825 10.5797 7.74034C11.6589 7.14447 12.9049 6.82553 14.1913 6.85309L13.6287 6.31497C13.5107 6.20209 13.5107 6.019 13.6287 5.90612C13.7474 5.79325 13.9388 5.79325 14.0568 5.90612L15.2018 7.00141C15.3199 7.11428 15.3199 7.29737 15.2018 7.41025L14.0568 8.50553C13.9388 8.61841 13.7474 8.61841 13.6287 8.50553C13.5107 8.39266 13.5107 8.20956 13.6287 8.09669L14.3209 7.43519C13.0956 7.38203 11.9066 7.67406 10.8823 8.23975C10.5907 8.40119 10.046 8.791 10.046 8.791C9.84356 8.69847 9.63431 8.61578 9.42025 8.54425ZM8.02408 16.7474C8.25117 16.7382 8.47689 16.7251 8.70056 16.7073C8.68546 16.6785 8.59078 16.5321 8.56883 16.4954C7.97743 15.5162 7.67212 14.3783 7.7277 13.2069L8.41926 13.8684C8.53727 13.9813 8.72869 13.9813 8.84669 13.8684C8.9647 13.7555 8.9647 13.5724 8.84669 13.4596L7.70162 12.3643C7.58362 12.2514 7.3922 12.2514 7.2742 12.3643L6.12913 13.4596C6.01112 13.5724 6.01112 13.7555 6.12913 13.8684C6.24714 13.9813 6.43855 13.9813 6.55724 13.8684L7.11914 13.3309C7.09033 14.5463 7.41553 15.7236 8.02408 16.7474ZM8.70604 16.7119C9.22541 16.6732 9.66656 16.6109 10.1468 16.5249C10.0453 16.456 9.95814 16.3661 9.89228 16.2565C9.74408 16.0111 9.59589 15.7656 9.4477 15.5202C9.20071 15.1107 9.34822 14.585 9.77633 14.3488C10.0665 14.188 10.0089 13.7687 9.68439 13.6853C9.20894 13.5639 8.92285 13.0907 9.05046 12.6353C9.1273 12.3617 9.20414 12.088 9.28029 11.8143C9.4079 11.3589 9.90257 11.0859 10.3787 11.208C10.7053 11.2913 10.9735 10.9566 10.8048 10.6771C10.5571 10.2676 10.7046 9.74191 11.1327 9.50566L11.1972 9.46956C10.8418 9.20641 10.4562 8.97869 10.046 8.791C9.23433 9.42428 8.57981 10.2538 8.17296 11.2303C8.1119 11.3786 7.93695 11.4508 7.7819 11.3924C7.62753 11.3333 7.55206 11.166 7.61312 11.0183C8.01791 10.0464 8.6443 9.20837 9.42025 8.54425C8.76436 8.32441 8.05976 8.20431 7.32634 8.20431C3.83282 8.20431 1 10.9133 1 14.2549C1 16.1115 4.55389 16.9528 8.02408 16.7467C8.78151 18.0015 9.9897 19.058 11.4737 19.6224C11.6281 19.6815 11.803 19.6093 11.8648 19.461C11.9258 19.3133 11.8503 19.146 11.6953 19.0869C9.76535 18.3519 8.76779 16.8104 8.70604 16.7119ZM19.2353 13.4891C19.1173 13.3762 19.1173 13.1925 19.2353 13.0796C19.354 12.9667 19.5454 12.9667 19.6634 13.0796L20.355 13.7417C20.4106 12.5697 20.1053 11.4324 19.5139 10.4526C18.8216 9.30616 17.7397 8.37625 16.3867 7.86109C16.2323 7.80269 16.1569 7.63534 16.2179 7.48703C16.2797 7.33937 16.4546 7.26719 16.609 7.32559C18.0923 7.89063 19.2785 8.90912 20.036 10.1632C20.6589 11.1955 20.9924 12.3872 20.9635 13.6171L21.5254 13.0796C21.6434 12.9667 21.8349 12.9667 21.9536 13.0796C22.0716 13.1925 22.0716 13.3762 21.9536 13.4891L20.8085 14.5844C20.6905 14.6972 20.4984 14.6972 20.3804 14.5844L19.2353 13.4891ZM17.8604 15.1822C18.0161 15.2222 18.176 15.1337 18.2179 14.9847L18.4477 14.1637C18.4895 14.0147 18.3969 13.8618 18.2412 13.8218C17.3959 13.6052 17.2464 12.5172 18.0045 12.0992C18.1438 12.0217 18.1918 11.8511 18.1108 11.7179L17.6669 10.9816C17.586 10.8483 17.4076 10.8024 17.2683 10.8792C16.5102 11.2979 15.6005 10.6298 15.8269 9.82131C15.868 9.67234 15.7761 9.51944 15.6204 9.47941L14.7621 9.25956C14.6063 9.21953 14.4465 9.30813 14.4046 9.45709C14.1782 10.2656 13.0407 10.4087 12.6037 9.6835C12.5227 9.55028 12.3443 9.50434 12.2044 9.58178L11.4353 10.0064C11.2953 10.0838 11.248 10.2544 11.3282 10.3877C11.766 11.1128 11.0675 11.983 10.2223 11.7664C10.0665 11.7271 9.90668 11.815 9.86483 11.964L9.635 12.7849C9.59315 12.9339 9.68577 13.0868 9.84151 13.1268C10.6861 13.3434 10.8363 14.4315 10.0782 14.8495C9.93893 14.9269 9.8909 15.0976 9.97186 15.2314L10.4158 15.9671C10.4967 16.101 10.6751 16.1462 10.8144 16.0695C11.5732 15.6501 12.4829 16.3182 12.2558 17.1273C12.214 17.2763 12.3066 17.4292 12.4623 17.4692L13.3206 17.6891C13.4764 17.7291 13.6362 17.6405 13.6781 17.4916C13.9045 16.6831 15.042 16.54 15.479 17.2652C15.56 17.3984 15.7384 17.4443 15.8776 17.3669L16.6474 16.9423C16.7874 16.8648 16.8347 16.6942 16.7544 16.561C16.3167 15.8358 17.0152 14.9657 17.8604 15.1822ZM14.6029 11.4685C13.4448 11.1712 12.2544 11.8288 11.9443 12.9365C11.6335 14.0449 12.321 15.1835 13.4791 15.4802C14.6379 15.7768 15.8282 15.1199 16.1383 14.0115C16.4485 12.9037 15.7617 11.7651 14.6029 11.4685ZM3.30385 2.15041H3.79783V4.12047H3.30385C3.09529 4.12047 2.92445 3.95706 2.92445 3.75756V2.51331C2.92445 2.31381 3.09529 2.15041 3.30385 2.15041ZM5.16519 1C4.74531 1 4.40227 1.32747 4.40227 1.72975V5.86281C4.40227 6.26509 4.74531 6.59256 5.16519 6.59256H9.4868C9.90668 6.59256 10.2497 6.26509 10.2497 5.86281V1.72975C10.2497 1.32747 9.90668 1 9.4868 1H5.16519ZM8.74927 2.56778C9.07721 2.56778 9.34273 2.82175 9.34273 3.13544C9.34273 3.44913 9.07721 3.70309 8.74927 3.70309C8.42132 3.70309 8.15581 3.44913 8.15581 3.13544C8.15581 2.82175 8.42132 2.56778 8.74927 2.56778ZM8.08514 4.73603C8.25186 4.73603 8.3877 4.86531 8.3877 5.02544C8.3877 5.18491 8.25186 5.31484 8.08514 5.31484H6.56685C6.40013 5.31484 6.26429 5.18491 6.26429 5.02544C6.26429 4.86531 6.40013 4.73603 6.56685 4.73603H8.08514ZM5.90272 2.56778C6.23067 2.56778 6.49687 2.82175 6.49687 3.13544C6.49687 3.44913 6.23067 3.70309 5.90272 3.70309C5.57478 3.70309 5.30927 3.44913 5.30927 3.13544C5.30927 2.82175 5.57478 2.56778 5.90272 2.56778ZM10.8542 2.15041H11.3481C11.5567 2.15041 11.7275 2.31381 11.7275 2.51331V3.75756C11.7275 3.95706 11.5567 4.12047 11.3481 4.12047H10.8548V2.15041H10.8542Z" fill="white"/>
</g>
</svg>
