<svg width="23" height="22" viewBox="0 0 23 22" fill="none" xmlns="http://www.w3.org/2000/svg">
<path d="M11.9993 11.8307C11.9993 13.2112 9.65972 14.3301 6.7731 14.3301C3.88648 14.3301 1.54688 13.2112 1.54688 11.8307C1.54688 10.4502 3.88648 9.33132 6.7731 9.33132C9.65972 9.33132 11.9993 10.4502 11.9993 11.8307ZM11.9993 16.4129V18.0792C11.9993 19.7413 9.75292 20.9952 6.7731 20.9952C3.79328 20.9952 1.54688 19.7413 1.54688 18.0792V16.4129C1.54688 18.055 3.72447 19.3289 6.7731 19.3289C9.82173 19.3289 11.9993 18.055 11.9993 16.4129ZM11.9993 13.0804V14.7467C11.9993 16.4088 9.75292 17.6626 6.7731 17.6626C3.79328 17.6626 1.54688 16.4088 1.54688 14.7467V13.0804C1.54688 14.7225 3.72447 15.9964 6.7731 15.9964C9.82173 15.9964 11.9993 14.7225 11.9993 13.0804ZM17.2256 5.99879H10.2573V7.66505H17.2256V5.99879ZM18.0966 1H9.38622C6.98476 1 5.03103 2.86871 5.03103 5.16566V7.78086C5.58239 7.70505 6.16512 7.66505 6.7731 7.66505C7.38109 7.66505 7.96381 7.70505 8.51518 7.78086V5.99879C8.51518 5.07985 9.2965 4.33253 10.2573 4.33253H17.2256C18.1863 4.33253 18.9676 5.07985 18.9676 5.99879V7.66505C18.9676 8.584 18.1863 9.33132 17.2256 9.33132H12.4619C13.0324 9.80954 13.4304 10.3727 13.6186 10.9976H14.6116C15.0933 10.9976 15.4826 11.3708 15.4826 11.8307V12.6638C15.4826 13.1237 15.0933 13.497 14.6116 13.497H13.7405V15.1632H18.0957C18.5774 15.1632 18.9668 15.5365 18.9668 15.9964C18.9668 16.4563 18.5774 16.8295 18.0957 16.8295H13.7405V18.0792C13.7405 19.2164 13.2031 20.2195 12.2711 20.9952H18.0957C20.4972 20.9952 22.4509 19.1265 22.4509 16.8295V5.16566C22.4509 2.86871 20.498 1 18.0966 1ZM18.9676 12.6638C18.9676 13.1237 18.5783 13.497 18.0966 13.497C17.6149 13.497 17.2256 13.1237 17.2256 12.6638V11.8307C17.2256 11.3708 17.6149 10.9976 18.0966 10.9976C18.5783 10.9976 18.9676 11.3708 18.9676 11.8307V12.6638Z" fill="white"/>
</svg>
