<svg width="23" height="22" viewBox="0 0 23 22" fill="none" xmlns="http://www.w3.org/2000/svg">
<path fill-rule="evenodd" clip-rule="evenodd" d="M3.60779 2.2448V4.51355C3.60779 4.96301 3.99098 5.32867 4.46086 5.32867C4.93029 5.32867 5.31393 4.96301 5.31393 4.51355V2.2448C5.31393 1.79535 4.93074 1.42969 4.46086 1.42969C3.99098 1.43012 3.60779 1.79535 3.60779 2.2448ZM4.09205 12.5616H6.79186V9.87305H4.09205V12.5616ZM6.79186 17.888V15.199H4.09205V17.888H6.79186ZM12.7054 17.888V15.199H10.0056V17.888H12.7054ZM18.6189 15.199H15.9191V17.888H18.6189V15.199ZM15.9191 9.87305V12.562H18.6189V9.87305H15.9191ZM21.7778 7.84578V18.2713C21.7778 19.3782 20.8367 20.2784 19.6795 20.2784H3.30143C2.14424 20.2784 1.20312 19.3782 1.20312 18.2713V7.84578H21.7778ZM9.9265 10.8523C9.82004 10.7518 9.64934 10.7513 9.54512 10.8523C9.43865 10.9529 9.43865 11.1161 9.54512 11.2167L10.7445 12.3652C10.7957 12.4155 10.8654 12.4409 10.9354 12.4409C11.0033 12.4409 11.0711 12.4164 11.1223 12.3674L13.2629 10.3676C13.3693 10.2679 13.3729 10.1051 13.2682 10.0032C13.1636 9.90141 12.9933 9.89969 12.8869 9.99894L10.9372 11.8208L9.9265 10.8523ZM15.3796 12.8198V9.61523C15.3796 9.47301 15.5004 9.35742 15.6491 9.35742H18.8884C19.0371 9.35742 19.1579 9.47301 19.1579 9.61523V12.8198C19.1579 12.9621 19.0371 13.0777 18.8884 13.0777H15.6491C15.5009 13.0772 15.3796 12.9621 15.3796 12.8198ZM15.6496 14.6838H18.8889C19.0376 14.6838 19.1584 14.799 19.1584 14.9416V18.1462C19.1584 18.2885 19.0376 18.4041 18.8889 18.4041H15.6496C15.5009 18.4041 15.38 18.2885 15.38 18.1462V14.9416C15.3796 14.799 15.5009 14.6838 15.6496 14.6838ZM9.73604 14.6838H12.9754C13.124 14.6838 13.2449 14.799 13.2449 14.9416V18.1462C13.2449 18.2885 13.124 18.4041 12.9754 18.4041H9.73604C9.58734 18.4041 9.4665 18.2885 9.4665 18.1462V14.9416C9.46605 14.799 9.58734 14.6838 9.73604 14.6838ZM3.82207 14.6838H7.06139C7.21008 14.6838 7.33092 14.799 7.33092 14.9416V18.1462C7.33092 18.2885 7.21008 18.4041 7.06139 18.4041H3.82207C3.67338 18.4041 3.55254 18.2885 3.55254 18.1462V14.9416C3.55254 14.799 3.67383 14.6838 3.82207 14.6838ZM7.33137 9.6148V12.8194C7.33137 12.9616 7.21053 13.0772 7.06184 13.0772H3.82207C3.67338 13.0772 3.55254 12.9616 3.55254 12.8194V9.6148C3.55254 9.47258 3.67338 9.35699 3.82207 9.35699H7.06139C7.21008 9.35699 7.33137 9.47258 7.33137 9.6148ZM17.1297 4.51398C17.1297 5.24789 17.7532 5.84473 18.5201 5.84473C19.2887 5.84473 19.9122 5.24789 19.9122 4.51398V3.49004H20.0187C20.989 3.49004 21.7778 4.24586 21.7778 5.17484V7.33059H1.20312V5.17484C1.20312 4.24586 1.99195 3.49004 2.96227 3.49004H3.06873V4.51398C3.06873 5.24789 3.69404 5.84473 4.46086 5.84473C5.22768 5.84473 5.85299 5.24789 5.85299 4.51398V3.49004H7.75678V4.51398C7.75678 5.24789 8.38029 5.84473 9.14711 5.84473C9.91393 5.84473 10.5392 5.24789 10.5392 4.51398V3.49004H12.443V4.51398C12.443 5.24789 13.0665 5.84473 13.8334 5.84473C14.6002 5.84473 15.2255 5.24789 15.2255 4.51398V3.49004H17.1293V4.51398H17.1297ZM17.6688 2.2448V4.51355C17.6688 4.96301 18.0502 5.32867 18.5201 5.32867C18.9913 5.32867 19.3731 4.96301 19.3731 4.51355V2.2448C19.3731 1.79535 18.9917 1.42969 18.5201 1.42969C18.0506 1.43012 17.6688 1.79535 17.6688 2.2448ZM12.9825 2.2448V4.51355C12.9825 4.96301 13.3639 5.32867 13.8338 5.32867C14.305 5.32867 14.6869 4.96301 14.6869 4.51355V2.2448C14.6869 1.79535 14.3055 1.42969 13.8338 1.42969C13.3639 1.43012 12.9825 1.79535 12.9825 2.2448ZM8.29404 2.2448V4.51355C8.29404 4.96301 8.67723 5.32867 9.14711 5.32867C9.61654 5.32867 10.0002 4.96301 10.0002 4.51355V2.2448C10.0002 1.79535 9.61699 1.42969 9.14711 1.42969C8.67768 1.43012 8.29404 1.79535 8.29404 2.2448Z" fill="white"/>
</svg>
