<svg width="23" height="22" viewBox="0 0 23 22" fill="none" xmlns="http://www.w3.org/2000/svg">
<path d="M21.9991 14.5941C21.9991 12.1015 20.5041 9.877 18.2652 8.79492C18.1956 13.5741 14.1448 17.4488 9.14844 17.5153C10.2797 19.6569 12.6053 21.0868 15.2112 21.0868C16.433 21.0868 17.6211 20.7756 18.665 20.1842L21.9694 21.0585L21.0554 17.8978C21.6737 16.8992 21.9991 15.7627 21.9991 14.5941Z" fill="white"/>
<path d="M17.0366 8.66968C17.0366 4.44054 13.4397 1 9.01831 1C4.59693 1 1 4.44054 1 8.66968C1 10.048 1.38355 11.39 2.11187 12.5681L1.02948 16.311L4.94266 15.2758C6.17438 15.9725 7.57736 16.3394 9.01831 16.3394C13.4397 16.3394 17.0366 12.8988 17.0366 8.66968ZM7.78788 6.88467H6.55744C6.55744 5.58667 7.66131 4.5308 9.01831 4.5308C10.3753 4.5308 11.4792 5.58667 11.4792 6.88467C11.4792 7.54347 11.1876 8.17669 10.6789 8.62172L9.63352 9.5369V10.4547H8.40309V9.01863L9.84821 7.75342C10.1065 7.52738 10.2487 7.2189 10.2487 6.88467C10.2487 6.23567 9.6968 5.70773 9.01831 5.70773C8.33981 5.70773 7.78788 6.23567 7.78788 6.88467ZM8.40309 11.6316H9.63352V12.8086H8.40309V11.6316Z" fill="white"/>
</svg>
