<svg width="23" height="22" viewBox="0 0 23 22" fill="none" xmlns="http://www.w3.org/2000/svg">
<path d="M14.1233 11.879C13.6395 11.879 13.2484 12.2539 13.2484 12.7158V16.0632C13.2484 16.5243 12.8564 16.9 12.3735 16.9H9.7488V4.34734C9.7488 3.63267 9.27286 2.99415 8.55726 2.75649L8.29822 2.67359H12.3735C12.8564 2.67359 13.2484 3.04931 13.2484 3.51054V6.02108C13.2484 6.48292 13.6395 6.85788 14.1233 6.85788C14.6071 6.85788 14.9981 6.48292 14.9981 6.02108V3.51054C14.9981 2.1264 13.8205 1 12.3735 1H2.96849C2.93517 1 2.9073 1.01425 2.87494 1.01839C2.83281 1.01502 2.7926 1 2.74982 1C1.7848 1 1 1.75053 1 2.67359V17.7368C1 18.4515 1.47594 19.09 2.19154 19.3277L7.45671 21.0065C7.63517 21.0592 7.81267 21.0843 7.99914 21.0843C8.96416 21.0843 9.7488 20.3336 9.7488 19.4106V18.5738H12.3735C13.8205 18.5738 14.9981 17.4474 14.9981 16.0632V12.7158C14.9981 12.2539 14.6071 11.879 14.1233 11.879Z" fill="#071A2B"/>
<path d="M21.7425 8.78026L18.2428 5.43292C17.9928 5.19358 17.6165 5.12156 17.2893 5.25119C16.963 5.38098 16.7495 5.68637 16.7495 6.02455V8.53509H13.25C12.767 8.53509 12.375 8.90989 12.375 9.37189C12.375 9.83388 12.767 10.2087 13.25 10.2087H16.7495V12.7192C16.7495 13.0574 16.963 13.3628 17.2893 13.4926C17.6165 13.6222 17.9928 13.5502 18.2428 13.311L21.7425 9.96351C22.0845 9.63636 22.0845 9.10741 21.7425 8.78026Z" fill="#071A2B"/>
</svg>
