<svg width="23" height="22" viewBox="0 0 23 22" fill="none" xmlns="http://www.w3.org/2000/svg">
<path d="M16.7536 10.3366C16.6189 11.9831 15.3137 14.0138 11.5 16.561C7.68626 14.0138 6.3816 11.9831 6.2464 10.3366V9.76432C6.39136 8.04445 7.58191 7.14707 8.61103 7.05111C8.78016 7.03545 8.93849 7.02761 9.08705 7.02761C10.2766 7.02761 10.8466 7.51718 11.5 8.25889C12.1534 7.51718 12.724 7.02761 13.913 7.02761C14.0615 7.02761 14.2198 7.03545 14.389 7.05111C15.4181 7.14707 16.6086 8.04445 16.7536 9.76432V10.3366ZM11.5 1C5.70099 1 1 5.47714 1 11C1 16.5229 5.70099 21 11.5 21C17.299 21 22 16.5229 22 11C22 5.47714 17.299 1 11.5 1Z" fill="white"/>
</svg>
