<svg width="23" height="22" viewBox="0 0 23 22" fill="none" xmlns="http://www.w3.org/2000/svg">
<g clip-path="url(#clip0_40002687_3637)">
<path d="M7.76853 6.48829C6.71876 6.48829 5.82964 5.70905 5.74503 4.71459C5.72454 4.4798 5.57183 4.27398 5.34574 4.17833L2.52306 2.623C2.27188 2.5166 1.97701 2.56507 1.77804 2.747C1.57971 2.92889 1.51626 3.20711 1.61874 3.4507L4.27841 9.06642H18.0386L20.6876 3.4507C20.7901 3.20711 20.7266 2.92889 20.5283 2.747C20.3293 2.56512 20.0358 2.51725 19.7833 2.623L16.9605 4.17829C16.7344 4.27398 16.5817 4.4798 16.5612 4.71454C16.4766 5.70905 15.5875 6.48829 14.5377 6.48829C13.4179 6.48829 12.507 5.62092 12.507 4.5547C12.507 4.08075 12.6888 3.62567 13.0186 3.2738C13.2335 3.04469 13.2487 2.70356 13.055 2.45808L11.6945 0.243601C11.4394 -0.0812002 10.8669 -0.0812002 10.6117 0.243601L9.2513 2.45808C9.05761 2.70356 9.07282 3.04469 9.28767 3.2738C9.61752 3.62567 9.79929 4.08075 9.79929 4.5547C9.79929 5.62092 8.88834 6.48829 7.76853 6.48829Z" fill="#071A2B"/>
<path d="M6.41634 17.4453C5.67001 17.4453 5.0625 18.0238 5.0625 18.7344H7.77019C7.77019 18.0238 7.16267 17.4453 6.41634 17.4453Z" fill="#071A2B"/>
<path d="M6.4152 14.8672C6.78906 14.8672 7.09212 14.5786 7.09212 14.2227C7.09212 13.8667 6.78906 13.5781 6.4152 13.5781C6.04135 13.5781 5.73828 13.8667 5.73828 14.2227C5.73828 14.5786 6.04135 14.8672 6.4152 14.8672Z" fill="#071A2B"/>
<path d="M20.6307 10.3555H1.67692C1.30276 10.3555 1 10.6437 1 11V21.3555C1 21.7117 1.30276 22 1.67692 22H20.6307C21.0049 22 21.3076 21.7117 21.3076 21.3555V11C21.3076 10.6437 21.0049 10.3555 20.6307 10.3555ZM17.2461 12.2891C17.62 12.2891 17.923 12.5776 17.923 12.9336C17.923 13.2895 17.62 13.5781 17.2461 13.5781C16.8723 13.5781 16.5692 13.2895 16.5692 12.9336C16.5692 12.5776 16.8723 12.2891 17.2461 12.2891ZM14.5384 12.2891C14.9123 12.2891 15.2153 12.5776 15.2153 12.9336C15.2153 13.2895 14.9123 13.5781 14.5384 13.5781C14.1646 13.5781 13.8615 13.2895 13.8615 12.9336C13.8615 12.5776 14.1646 12.2891 14.5384 12.2891ZM11.8307 12.2891C12.2046 12.2891 12.5077 12.5776 12.5077 12.9336C12.5077 13.2895 12.2046 13.5781 11.8307 13.5781C11.4569 13.5781 11.1538 13.2895 11.1538 12.9336C11.1538 12.5776 11.4569 12.2891 11.8307 12.2891ZM9.12306 19.3789C9.12306 19.7352 8.82029 20.0234 8.44614 20.0234H4.38461C4.01045 20.0234 3.70769 19.7352 3.70769 19.3789V18.7344C3.70769 17.3125 4.92204 16.1562 6.41537 16.1562C5.29556 16.1562 4.38461 15.2889 4.38461 14.2227C4.38461 13.1564 5.29556 12.2891 6.41537 12.2891C7.53518 12.2891 8.44614 13.1564 8.44614 14.2227C8.44614 15.2889 7.53518 16.1562 6.41537 16.1562C7.9087 16.1562 9.12306 17.3125 9.12306 18.7344V19.3789ZM17.923 18.7344H11.1538C10.7797 18.7344 10.4769 18.4461 10.4769 18.0898C10.4769 17.7336 10.7797 17.4453 11.1538 17.4453H17.923C18.2972 17.4453 18.6 17.7336 18.6 18.0898C18.6 18.4461 18.2972 18.7344 17.923 18.7344ZM17.923 16.1562H11.1538C10.7797 16.1562 10.4769 15.868 10.4769 15.5117C10.4769 15.1555 10.7797 14.8672 11.1538 14.8672H17.923C18.2972 14.8672 18.6 15.1555 18.6 15.5117C18.6 15.868 18.2972 16.1562 17.923 16.1562Z" fill="#071A2B"/>
</g>
<defs>
<clipPath id="clip0_40002687_3637">
<rect width="23" height="22" fill="white"/>
</clipPath>
</defs>
</svg>
