<svg width="23" height="22" viewBox="0 0 23 22" fill="none" xmlns="http://www.w3.org/2000/svg">
<path fill-rule="evenodd" clip-rule="evenodd" d="M6.05218 13.1591V15.3225C6.05336 15.8229 6.2617 16.3024 6.6316 16.6562C7.00151 17.01 7.50286 17.2093 8.02598 17.2104H16.6799C17.3241 17.2041 17.9477 17.4269 18.4299 17.8357L22 20.7945V7.8249C21.9988 7.32454 21.7905 6.845 21.4206 6.4912C21.0507 6.1374 20.5494 5.93815 20.0263 5.93704H17.64V10.5878C17.6388 11.2655 17.3569 11.9151 16.8559 12.3943C16.3549 12.8735 15.6758 13.1432 14.9673 13.1443H6.31751C6.22884 13.1442 6.14024 13.1491 6.05218 13.1591ZM5.38207 12.6316C5.08359 12.7395 4.80793 12.8981 4.56836 13.0997L1 16.0567V3.09383C1.00116 2.59376 1.20935 2.11449 1.57903 1.76089C1.94871 1.40728 2.44976 1.20814 2.97256 1.20703H14.9671C15.4899 1.20813 15.991 1.40727 16.3607 1.76087C16.7304 2.11448 16.9386 2.59376 16.9397 3.09383V10.5878C16.9386 11.0879 16.7304 11.5672 16.3607 11.9208C15.991 12.2744 15.4899 12.4735 14.9671 12.4746H6.31751C5.99836 12.4727 5.68146 12.5258 5.38207 12.6316V12.6316ZM4.52008 8.93321C4.42724 8.93321 4.3382 8.89793 4.27255 8.83514C4.2069 8.77234 4.17002 8.68717 4.17002 8.59836C4.17002 8.50956 4.2069 8.42439 4.27255 8.36159C4.3382 8.29879 4.42724 8.26352 4.52008 8.26352H13.4195C13.5124 8.26352 13.6014 8.29879 13.6671 8.36159C13.7327 8.42439 13.7696 8.50956 13.7696 8.59836C13.7696 8.68717 13.7327 8.77234 13.6671 8.83514C13.6014 8.89793 13.5124 8.93321 13.4195 8.93321H4.52008ZM4.52008 5.41839H13.4195C13.5124 5.41839 13.6014 5.38311 13.6671 5.32031C13.7327 5.25752 13.7696 5.17235 13.7696 5.08354C13.7696 4.99473 13.7327 4.90956 13.6671 4.84677C13.6014 4.78397 13.5124 4.74869 13.4195 4.74869H4.52008C4.42724 4.74869 4.3382 4.78397 4.27255 4.84677C4.2069 4.90956 4.17002 4.99473 4.17002 5.08354C4.17002 5.17235 4.2069 5.25752 4.27255 5.32031C4.3382 5.38311 4.42724 5.41839 4.52008 5.41839Z" fill="#071A2B"/>
</svg>
