<svg width="16" height="16" viewBox="0 0 16 16" fill="none" xmlns="http://www.w3.org/2000/svg">
<g clip-path="url(#clip0_5431_6945)">
<path fill-rule="evenodd" clip-rule="evenodd" d="M3.84928 9.7195V11.4427C3.85018 11.8413 4.00891 12.2233 4.29074 12.5051C4.57258 12.7869 4.95456 12.9456 5.35313 12.9465H11.9466C12.4374 12.9415 12.9126 13.119 13.2799 13.4445L16 15.8013V5.47059C15.9991 5.07204 15.8404 4.69007 15.5586 4.40826C15.2767 4.12644 14.8948 3.96773 14.4962 3.96684H12.6781V7.67138C12.6772 8.21117 12.4624 8.72859 12.0807 9.11028C11.699 9.49198 11.1816 9.70681 10.6418 9.70772H4.05144C3.98388 9.7076 3.91637 9.71153 3.84928 9.7195ZM3.33872 9.29931C3.11131 9.38527 2.90128 9.51158 2.71875 9.67216L0 12.0276V1.70212C0.000883269 1.3038 0.159508 0.922044 0.441167 0.640385C0.722825 0.358727 1.10458 0.200102 1.50291 0.199219H10.6416C11.04 0.200094 11.4217 0.358715 11.7034 0.640374C11.985 0.922034 12.1437 1.3038 12.1446 1.70212V7.67138C12.1437 8.06971 11.985 8.45147 11.7034 8.73313C11.4217 9.01478 11.04 9.17341 10.6416 9.17428H4.05144C3.80828 9.1727 3.56683 9.21505 3.33872 9.29928V9.29931ZM2.68197 6.35341C2.61123 6.35341 2.54339 6.32531 2.49337 6.27529C2.44335 6.22527 2.41525 6.15743 2.41525 6.08669C2.41525 6.01595 2.44335 5.94811 2.49337 5.89809C2.54339 5.84807 2.61123 5.81997 2.68197 5.81997H9.4625C9.53324 5.81997 9.60108 5.84807 9.6511 5.89809C9.70112 5.94811 9.72922 6.01595 9.72922 6.08669C9.72922 6.15743 9.70112 6.22527 9.6511 6.27529C9.60108 6.32531 9.53324 6.35341 9.4625 6.35341H2.68197ZM2.68197 3.55372H9.4625C9.53324 3.55372 9.60108 3.52562 9.6511 3.4756C9.70112 3.42558 9.72922 3.35774 9.72922 3.287C9.72922 3.21626 9.70112 3.14842 9.6511 3.0984C9.60108 3.04838 9.53324 3.02028 9.4625 3.02028H2.68197C2.61123 3.02028 2.54339 3.04838 2.49337 3.0984C2.44335 3.14842 2.41525 3.21626 2.41525 3.287C2.41525 3.35774 2.44335 3.42558 2.49337 3.4756C2.54339 3.52562 2.61123 3.55372 2.68197 3.55372Z" fill="white"/>
</g>
<defs>
<clipPath id="clip0_5431_6945">
<rect width="16" height="16" fill="white"/>
</clipPath>
</defs>
</svg>
