<svg width="17" height="16" viewBox="0 0 17 16" fill="none" xmlns="http://www.w3.org/2000/svg">
<g clip-path="url(#clip0_5423_6891)">
<path d="M4.2264 1.30256L1.5731 3.94254C1.01561 3.90523 0.581435 3.44654 0.581435 2.88655V1.71321C0.865544 1.45722 1.2354 1.30256 1.64279 1.30256H4.2264ZM12.3794 1.30256H11.2484L13.8749 3.91588V2.79589C13.8749 1.97454 13.2048 1.30256 12.3794 1.30256ZM6.61172 0.998559C6.24723 0.635897 5.65761 0.635897 5.29312 0.998559L2.32888 3.94788H5.14302L7.36217 1.74521L6.61172 0.998559ZM10.187 0.998559C9.82251 0.635897 9.22753 0.635897 8.86304 0.998559L5.89883 3.94788H13.1512L10.187 0.998559ZM11.9613 7.63323H15.3865C15.4454 7.63323 15.5044 7.63856 15.5634 7.64921V5.96923C15.5634 5.14787 14.8933 4.48121 14.0679 4.48121H1.64812C0.763698 4.48121 0.0454102 3.76656 0.0454102 2.88655V12.5932C0.0454102 14.0759 1.25147 15.2759 2.74163 15.2759H14.0679C14.8933 15.2759 15.5634 14.6092 15.5634 13.7879V11.5639C15.5044 11.5692 15.4454 11.5745 15.3865 11.5745H11.9613C10.8678 11.5745 9.97798 10.6892 9.97798 9.60653C9.97798 8.51855 10.8678 7.63323 11.9613 7.63323ZM11.9345 9.34521C11.7898 9.34521 11.6772 9.46256 11.6772 9.60653C11.6772 9.74521 11.7898 9.86256 11.9345 9.86256C12.0738 9.86256 12.1918 9.74521 12.1918 9.60653C12.1918 9.46256 12.0738 9.34521 11.9345 9.34521ZM16.1262 8.89722V10.3105C16.1262 10.7159 15.7938 11.0412 15.3865 11.0412H11.9613C11.5593 11.0412 11.2001 10.8812 10.9375 10.6199C10.6748 10.3586 10.514 10.0012 10.514 9.60123C10.514 8.80653 11.1626 8.16656 11.9613 8.16656H15.3865C15.7938 8.16656 16.1262 8.49189 16.1262 8.89722ZM12.7278 9.60653C12.7278 9.16923 12.3686 8.81187 11.9345 8.81187C11.4949 8.81187 11.1411 9.16923 11.1411 9.60653C11.1411 10.0386 11.4949 10.3959 11.9345 10.3959C12.3686 10.3959 12.7278 10.0386 12.7278 9.60653Z" fill="white"/>
</g>
<defs>
<clipPath id="clip0_5423_6891">
<rect width="16.0808" height="16" fill="white" transform="translate(0.0454102)"/>
</clipPath>
</defs>
</svg>
