<svg width="23" height="22" viewBox="0 0 23 22" fill="none" xmlns="http://www.w3.org/2000/svg">
<path d="M6.45999 2.59208L2.99502 5.90552C2.267 5.8587 1.7 5.283 1.7 4.58015V3.10748C2.07102 2.78619 2.55402 2.59208 3.08603 2.59208H6.45999ZM17.107 2.59208H15.63L19.06 5.87206V4.46636C19.06 3.43548 18.185 2.59208 17.107 2.59208ZM9.575 2.21052C9.099 1.75535 8.32902 1.75535 7.85303 2.21052L3.98201 5.91222H7.65701L10.555 3.14764L9.575 2.21052ZM14.244 2.21052C13.768 1.75535 12.991 1.75535 12.515 2.21052L8.64403 5.91222H18.115L14.244 2.21052ZM16.561 10.5377H21.034C21.111 10.5377 21.188 10.5444 21.265 10.5578V8.44922C21.265 7.41834 20.39 6.58161 19.312 6.58161H3.09299C1.93802 6.58161 1 5.68465 1 4.58014V16.763C1 18.6239 2.575 20.13 4.52102 20.13H19.312C20.39 20.13 21.265 19.2933 21.265 18.2624V15.4711C21.188 15.4778 21.111 15.4845 21.034 15.4845H16.561C15.133 15.4845 13.971 14.3733 13.971 13.0144C13.971 11.6489 15.133 10.5377 16.561 10.5377ZM16.526 12.6864C16.337 12.6864 16.19 12.8337 16.19 13.0144C16.19 13.1885 16.337 13.3357 16.526 13.3357C16.708 13.3357 16.862 13.1885 16.862 13.0144C16.862 12.8337 16.708 12.6864 16.526 12.6864ZM22 12.1242V13.898C22 14.4068 21.566 14.8151 21.034 14.8151H16.561C16.036 14.8151 15.567 14.6143 15.224 14.2863C14.881 13.9583 14.671 13.5098 14.671 13.0078C14.671 12.0103 15.518 11.2071 16.561 11.2071H21.034C21.566 11.2071 22 11.6154 22 12.1242ZM17.562 13.0144C17.562 12.4656 17.093 12.017 16.526 12.017C15.952 12.017 15.49 12.4656 15.49 13.0144C15.49 13.5567 15.952 14.0051 16.526 14.0051C17.093 14.0051 17.562 13.5567 17.562 13.0144Z" fill="white"/>
</svg>
