<svg width="22" height="22" viewBox="0 0 22 22" fill="none" xmlns="http://www.w3.org/2000/svg">
<path d="M8.78125 8.83193V9.05415H13.2257V8.83193C13.1911 5.82946 8.81582 5.82946 8.78125 8.83193Z" fill="#071A2B"/>
<path d="M20.0157 3.49489C16.3879 3.53143 12.8977 1.28986 11.5631 0.322743C11.3992 0.20435 11.2022 0.140625 11 0.140625C10.7978 0.140625 10.6008 0.20435 10.4369 0.322743C9.1023 1.28986 5.60348 3.52283 1.98431 3.49489C1.85578 3.49361 1.72826 3.51777 1.60911 3.56598C1.48995 3.61419 1.38151 3.68549 1.29002 3.77578C1.19853 3.86607 1.12581 3.97356 1.07603 4.09207C1.02626 4.21058 1.00042 4.33777 1 4.46631C1.00215 9.4287 1.99506 16.5273 10.5637 20.8643C10.6988 20.9332 10.8483 20.9691 11 20.9691C11.1517 20.9691 11.3012 20.9332 11.4363 20.8643C20.0049 16.5273 20.9979 9.4287 21 4.46631C20.9981 4.20703 20.8933 3.95912 20.7088 3.77699C20.5242 3.59486 20.275 3.4934 20.0157 3.49489ZM14.5461 13.3079C14.5461 13.7354 14.3763 14.1454 14.074 14.4477C13.7717 14.75 13.3617 14.9198 12.9342 14.9198H9.06576C8.63827 14.9198 8.22829 14.75 7.926 14.4477C7.62372 14.1454 7.4539 13.7354 7.4539 13.3079V9.86927C7.45406 9.55578 7.54564 9.24914 7.71741 8.9869C7.88918 8.72466 8.1337 8.5182 8.42102 8.3928V8.05969C8.4597 4.6103 13.5403 4.6103 13.579 8.05969V8.3928C13.8663 8.5182 14.1108 8.72466 14.2826 8.9869C14.4544 9.24914 14.5459 9.55578 14.5461 9.86927V13.3079Z" fill="#071A2B"/>
<path d="M11.7085 11.1773C11.7021 11.1387 11.704 11.0991 11.7139 11.0612C11.7238 11.0233 11.7416 10.988 11.7661 10.9574C11.8625 10.818 11.9189 10.6549 11.9293 10.4857C11.9396 10.3165 11.9035 10.1478 11.8248 9.99764C11.7461 9.84753 11.6278 9.7218 11.4828 9.63409C11.3378 9.54637 11.1715 9.5 11.002 9.5C10.8325 9.5 10.6662 9.54637 10.5212 9.63409C10.3762 9.7218 10.2579 9.84753 10.1792 9.99764C10.1005 10.1478 10.0644 10.3165 10.0747 10.4857C10.0851 10.6549 10.1415 10.818 10.2379 10.9574C10.2623 10.9876 10.28 11.0227 10.2899 11.0602C10.2999 11.0978 10.3017 11.137 10.2954 11.1753C10.2278 11.5123 10.0364 12.4759 9.90145 13.1447C9.88504 13.2281 9.88731 13.3142 9.90811 13.3966C9.92891 13.479 9.96771 13.5558 10.0217 13.6215C10.0757 13.6872 10.1436 13.74 10.2205 13.7763C10.2974 13.8126 10.3814 13.8314 10.4664 13.8314H11.537C11.6222 13.8314 11.7063 13.8126 11.7833 13.7762C11.8603 13.7397 11.9283 13.6867 11.9823 13.6208C12.0363 13.555 12.075 13.478 12.0957 13.3953C12.1163 13.3127 12.1184 13.2265 12.1017 13.143L11.7085 11.1773Z" fill="#071A2B"/>
</svg>
