<svg width="17" height="16" viewBox="0 0 17 16" fill="none" xmlns="http://www.w3.org/2000/svg">
<g clip-path="url(#clip0_5423_6843)">
<path fill-rule="evenodd" clip-rule="evenodd" d="M7.55322 6.50781H8.61898V12.6672H7.55322V6.50781Z" fill="#F3F3F3"/>
<path fill-rule="evenodd" clip-rule="evenodd" d="M5.81249 0.507812H10.2509C10.4891 0.507812 10.6551 0.703437 10.684 0.938656L11.4056 6.82684C11.4345 7.06206 11.2108 7.25769 10.9726 7.25769H5.19906C4.9609 7.25769 4.74148 7.06253 4.76604 6.82684L5.3795 0.938656C5.40403 0.702937 5.57432 0.507812 5.81249 0.507812Z" fill="white"/>
<path fill-rule="evenodd" clip-rule="evenodd" d="M14.5738 7.61328C14.5384 9.12891 13.2816 10.3579 11.7502 10.3579H4.4218C2.89042 10.3579 1.63357 9.12891 1.59814 7.61328H2.74732C2.78234 8.50025 3.52215 9.21506 4.4218 9.21506H11.7502C12.6498 9.21506 13.3897 8.50025 13.4247 7.61328H14.5738Z" fill="#F3F3F3"/>
<path fill-rule="evenodd" clip-rule="evenodd" d="M12.8623 6.57422H15.1365C15.3132 6.57422 15.4577 6.71803 15.4577 6.89384V7.29541C15.4577 7.47119 15.3132 7.61503 15.1365 7.61503H12.8623C12.6856 7.61503 12.541 7.47122 12.541 7.29541V6.89384C12.541 6.71806 12.6856 6.57422 12.8623 6.57422Z" fill="white"/>
<path fill-rule="evenodd" clip-rule="evenodd" d="M5.4005 8.51562H10.7712C11.4035 8.51562 11.9207 9.03031 11.9207 9.65937V10.9531H4.25098V9.65937C4.25098 9.03031 4.76826 8.51562 5.4005 8.51562Z" fill="white"/>
<path fill-rule="evenodd" clip-rule="evenodd" d="M1.03559 6.57422H3.30983C3.4865 6.57422 3.63107 6.71803 3.63107 6.89384V7.29541C3.63107 7.47119 3.48653 7.61503 3.30983 7.61503H1.03559C0.858925 7.61503 0.714355 7.47122 0.714355 7.29541V6.89384C0.714387 6.71806 0.858925 6.57422 1.03559 6.57422Z" fill="white"/>
<path fill-rule="evenodd" clip-rule="evenodd" d="M12.508 13.8539C12.508 13.9747 12.4096 14.0727 12.2881 14.0727C12.1667 14.0727 12.0683 13.9747 12.0683 13.8539V13.343C12.0683 13.2177 12.0166 13.1037 11.9334 13.0209C11.8502 12.9381 11.7356 12.8867 11.6097 12.8867H8.30564V13.8539C8.30564 13.9747 8.20721 14.0727 8.08579 14.0727C7.96436 14.0727 7.86593 13.9747 7.86593 13.8539V12.8867H4.56184C4.43599 12.8867 4.32138 12.9381 4.23815 13.0209C4.15495 13.1037 4.10328 13.2177 4.10328 13.343V13.8539C4.10328 13.9747 4.00485 14.0727 3.88343 14.0727C3.76201 14.0727 3.66357 13.9747 3.66357 13.8539V13.343C3.66357 13.097 3.76458 12.8735 3.92727 12.7116C4.08997 12.5497 4.31459 12.4492 4.56184 12.4492H8.08579H11.6097C11.857 12.4492 12.0816 12.5497 12.2443 12.7116C12.407 12.8735 12.508 13.097 12.508 13.343V13.8539Z" fill="#F3F3F3"/>
<path fill-rule="evenodd" clip-rule="evenodd" d="M7.35039 2.60156C7.22897 2.60156 7.13054 2.50363 7.13054 2.38281C7.13054 2.262 7.22897 2.16406 7.35039 2.16406H8.82134C8.94277 2.16406 9.0412 2.262 9.0412 2.38281C9.0412 2.50363 8.94277 2.60156 8.82134 2.60156H7.35039ZM6.86097 3.65156C6.73955 3.65156 6.64111 3.55362 6.64111 3.43281C6.64111 3.312 6.73955 3.21406 6.86097 3.21406H9.31077C9.43219 3.21406 9.53063 3.312 9.53063 3.43281C9.53063 3.55362 9.43219 3.65156 9.31077 3.65156H6.86097Z" fill="#0A2A3C"/>
<path d="M8.27156 15.4743C8.71505 15.3714 8.99079 14.9303 8.88742 14.4891C8.78406 14.0478 8.34075 13.7734 7.89726 13.8763C7.45376 13.9791 7.17803 14.4202 7.28139 14.8615C7.38475 15.3028 7.82806 15.5771 8.27156 15.4743Z" fill="white"/>
<path d="M4.46449 15.2518C4.78641 14.9315 4.78641 14.4122 4.46449 14.0919C4.14257 13.7716 3.62063 13.7716 3.29871 14.0919C2.97679 14.4122 2.97679 14.9315 3.29871 15.2518C3.62063 15.5721 4.14257 15.5721 4.46449 15.2518Z" fill="white"/>
<path d="M12.4747 15.4743C12.9182 15.3714 13.1939 14.9303 13.0905 14.4891C12.9872 14.0478 12.5439 13.7734 12.1004 13.8763C11.6569 13.9791 11.3812 14.4202 11.4845 14.8615C11.5879 15.3028 12.0312 15.5771 12.4747 15.4743Z" fill="white"/>
</g>
<defs>
<clipPath id="clip0_5423_6843">
<rect width="16.0808" height="16" fill="white" transform="translate(0.0454102)"/>
</clipPath>
</defs>
</svg>
