<svg width="23" height="22" viewBox="0 0 23 22" fill="none" xmlns="http://www.w3.org/2000/svg">
<g clip-path="url(#clip0_40002687_9410)">
<path fill-rule="evenodd" clip-rule="evenodd" d="M10.7383 8.94922H12.2626V17.4183H10.7383V8.94922Z" fill="white"/>
<path fill-rule="evenodd" clip-rule="evenodd" d="M8.2494 0.699219H14.5976C14.9383 0.699219 15.1757 0.968203 15.217 1.29163L16.2492 9.38789C16.2904 9.71131 15.9705 9.9803 15.6298 9.9803H7.37203C7.03139 9.9803 6.71757 9.71196 6.75269 9.38789L7.63011 1.29163C7.66519 0.967516 7.90876 0.699219 8.2494 0.699219Z" fill="white"/>
<path fill-rule="evenodd" clip-rule="evenodd" d="M20.7776 10.4688C20.7269 12.5527 18.9293 14.2426 16.739 14.2426H6.25736C4.06706 14.2426 2.26942 12.5527 2.21875 10.4688H3.8624C3.91248 11.6883 4.97062 12.6712 6.25736 12.6712H16.739C18.0257 12.6712 19.0839 11.6883 19.134 10.4688H20.7776Z" fill="white"/>
<path fill-rule="evenodd" clip-rule="evenodd" d="M18.3306 9.04102H21.5833C21.836 9.04102 22.0428 9.23876 22.0428 9.4805V10.0326C22.0428 10.2743 21.8361 10.4721 21.5833 10.4721H18.3306C18.0779 10.4721 17.8711 10.2744 17.8711 10.0326V9.4805C17.8711 9.2388 18.0778 9.04102 18.3306 9.04102Z" fill="white"/>
<path fill-rule="evenodd" clip-rule="evenodd" d="M7.65977 11.7109H15.3414C16.2457 11.7109 16.9855 12.4186 16.9855 13.2836V15.0625H6.01562V13.2836C6.01562 12.4186 6.75549 11.7109 7.65977 11.7109Z" fill="white"/>
<path fill-rule="evenodd" clip-rule="evenodd" d="M1.41649 9.04102H4.66929C4.92197 9.04102 5.12875 9.23876 5.12875 9.4805V10.0326C5.12875 10.2743 4.92202 10.4721 4.66929 10.4721H1.41649C1.16381 10.4721 0.957031 10.2744 0.957031 10.0326V9.4805C0.957076 9.2388 1.16381 9.04102 1.41649 9.04102Z" fill="white"/>
<path fill-rule="evenodd" clip-rule="evenodd" d="M17.8258 19.0506C17.8258 19.2167 17.685 19.3514 17.5113 19.3514C17.3377 19.3514 17.1969 19.2167 17.1969 19.0506V18.348C17.1969 18.1758 17.123 18.019 17.004 17.9052C16.8849 17.7913 16.7211 17.7207 16.541 17.7207H11.8152V19.0506C11.8152 19.2167 11.6744 19.3514 11.5008 19.3514C11.3271 19.3514 11.1863 19.2167 11.1863 19.0506V17.7207H6.46055C6.28055 17.7207 6.11663 17.7914 5.99758 17.9052C5.87858 18.0191 5.80469 18.1758 5.80469 18.348V19.0506C5.80469 19.2167 5.6639 19.3514 5.49023 19.3514C5.31657 19.3514 5.17578 19.2167 5.17578 19.0506V18.348C5.17578 18.0098 5.32025 17.7025 5.55295 17.4799C5.78564 17.2573 6.10692 17.1191 6.46055 17.1191H11.5008H16.541C16.8946 17.1191 17.2159 17.2573 17.4486 17.4799C17.6813 17.7025 17.8258 18.0098 17.8258 18.348V19.0506Z" fill="white"/>
<path fill-rule="evenodd" clip-rule="evenodd" d="M10.4481 3.57812C10.2744 3.57812 10.1336 3.44346 10.1336 3.27734C10.1336 3.11123 10.2744 2.97656 10.4481 2.97656H12.5519C12.7256 2.97656 12.8664 3.11123 12.8664 3.27734C12.8664 3.44346 12.7256 3.57812 12.5519 3.57812H10.4481ZM9.74805 5.02187C9.57438 5.02187 9.43359 4.88721 9.43359 4.72109C9.43359 4.55498 9.57438 4.42031 9.74805 4.42031H13.252C13.4256 4.42031 13.5664 4.55498 13.5664 4.72109C13.5664 4.88721 13.4256 5.02187 13.252 5.02187H9.74805Z" fill="white"/>
<path d="M11.7659 21.2771C12.4002 21.1357 12.7946 20.5292 12.6468 19.9225C12.499 19.3157 11.8649 18.9385 11.2306 19.0799C10.5963 19.2213 10.2019 19.8278 10.3497 20.4345C10.4975 21.0413 11.1316 21.4185 11.7659 21.2771Z" fill="white"/>
<path d="M6.32139 20.9732C6.78183 20.5328 6.78183 19.8188 6.32139 19.3783C5.86096 18.9379 5.11444 18.9379 4.65401 19.3783C4.19357 19.8188 4.19357 20.5328 4.65401 20.9732C5.11444 21.4136 5.86096 21.4136 6.32139 20.9732Z" fill="white"/>
<path d="M17.7776 21.2771C18.412 21.1357 18.8063 20.5292 18.6585 19.9225C18.5107 19.3157 17.8766 18.9385 17.2423 19.0799C16.608 19.2213 16.2136 19.8278 16.3614 20.4345C16.5093 21.0413 17.1433 21.4185 17.7776 21.2771Z" fill="white"/>
</g>
<defs>
<clipPath id="clip0_40002687_9410">
<rect width="23" height="22" fill="white"/>
</clipPath>
</defs>
</svg>
