<svg width="30" height="30" viewBox="0 0 30 30" fill="none" xmlns="http://www.w3.org/2000/svg">
<path d="M14.9911 11.9411C14.384 11.9411 13.7906 12.1216 13.2859 12.4596C12.7811 12.7977 12.3877 13.2783 12.1553 13.8405C11.923 14.4026 11.8623 15.0212 11.9807 15.6181C12.0991 16.2149 12.3914 16.7631 12.8207 17.1934C13.25 17.6237 13.7969 17.9167 14.3923 18.0355C14.9877 18.1542 15.6049 18.0933 16.1658 17.8604C16.7266 17.6275 17.206 17.2331 17.5432 16.7272C17.8805 16.2212 18.0605 15.6263 18.0605 15.0178C18.0605 14.2018 17.7372 13.4193 17.1615 12.8423C16.5859 12.2653 15.8051 11.9411 14.9911 11.9411ZM19.8932 11.201C19.6776 11.1992 19.4672 11.1335 19.2886 11.0123C19.1101 10.8911 18.9712 10.7198 18.8895 10.5197C18.8078 10.3197 18.7869 10.0998 18.8294 9.88789C18.8719 9.67594 18.9759 9.48131 19.1284 9.32845C19.2809 9.17558 19.4751 9.07125 19.6865 9.02864C19.898 8.98603 20.1173 9.00704 20.3169 9.08895C20.5164 9.17087 20.6874 9.31011 20.8083 9.48913C20.9293 9.66814 20.9947 9.87898 20.9964 10.0952C20.9976 10.2407 20.9699 10.385 20.9149 10.5197C20.8599 10.6544 20.7787 10.7768 20.676 10.8797C20.5733 10.9827 20.4512 11.0641 20.3169 11.1192C20.1825 11.1744 20.0384 11.2022 19.8932 11.201ZM14.9911 19.7444C14.0564 19.7444 13.1426 19.4664 12.3655 18.9457C11.5885 18.4249 10.983 17.6848 10.6257 16.819C10.2684 15.9532 10.1753 15.0006 10.3583 14.0818C10.5413 13.163 10.9922 12.3192 11.6538 11.6573C12.3153 10.9954 13.1579 10.5451 14.0749 10.3634C14.9919 10.1817 15.9421 10.2768 16.8052 10.6365C17.6682 10.9963 18.4054 11.6046 18.9235 12.3845C19.4415 13.1644 19.7171 14.0808 19.7153 15.0178C19.7165 15.6396 19.595 16.2555 19.3579 16.83C19.1208 17.4046 18.7727 17.9266 18.3337 18.3659C17.8947 18.8051 17.3734 19.153 16.7997 19.3896C16.2261 19.6262 15.6114 19.7467 14.9911 19.7444ZM22.4733 11.2901C22.4661 10.7117 22.3608 10.1387 22.1619 9.5957C22.0031 9.19205 21.7632 8.82545 21.4571 8.51862C21.151 8.2118 20.7853 7.9713 20.3826 7.81211C19.8368 7.61627 19.2629 7.51087 18.6833 7.5C17.7046 7.5 17.42 7.5 14.9644 7.5C12.5089 7.5 12.2242 7.5 11.2633 7.5C10.6838 7.51087 10.1098 7.61627 9.56407 7.81211C9.162 7.96259 8.79978 8.20366 8.50534 8.51666C8.19935 8.81525 7.96248 9.17747 7.81142 9.57785C7.61253 10.1209 7.5072 10.6939 7.5 11.2723C7.5 12.2622 7.5 12.5387 7.5 15.0001C7.5 17.4614 7.5 17.7467 7.5 18.7188C7.50757 19.3001 7.61287 19.8759 7.81142 20.4221C7.95575 20.8234 8.19366 21.1842 8.50534 21.4745C8.79539 21.7906 9.15917 22.0296 9.56407 22.17C10.107 22.3786 10.682 22.4902 11.2633 22.5C12.2242 22.5 12.5267 22.5 14.9644 22.5C17.4022 22.5 17.7046 22.5 18.6833 22.5C19.2646 22.4902 19.8397 22.3786 20.3826 22.17C20.786 22.0266 21.1491 21.7881 21.4413 21.4745C21.753 21.1842 21.9909 20.8234 22.1353 20.4221C22.3338 19.8759 22.4391 19.3001 22.4466 18.7188C22.5 17.7467 22.5 17.4525 22.5 15.0001C22.5 12.5476 22.5 12.2622 22.4466 11.2723L22.4733 11.2901Z" fill="#006988"/>
</svg>
