<svg width="30" height="30" viewBox="0 0 30 30" fill="none" xmlns="http://www.w3.org/2000/svg">
<path d="M7.74989 12.4797H10.8829V22.4976H7.74989V12.4797ZM9.31756 7.5C10.3195 7.5 11.1328 8.30809 11.1328 9.3059C11.1328 10.3037 10.3195 11.1118 9.31756 11.1118C8.31331 11.1118 7.50001 10.3037 7.50001 9.3059C7.49765 8.31043 8.31095 7.5 9.31756 7.5Z" fill="#006988"/>
<path d="M12.8496 12.4796H15.8553V13.8475H15.8977C16.315 13.0605 17.3357 12.229 18.8633 12.229C22.0364 12.229 22.6234 14.3043 22.6234 17.0002V22.4976H19.4904V17.628C19.4904 16.4639 19.4692 14.9718 17.8614 14.9718C16.2301 14.9718 15.9802 16.2367 15.9802 17.5436V22.4999H12.8496V12.4796Z" fill="#006988"/>
</svg>
