<svg width="30" height="30" viewBox="0 0 30 30" fill="none" xmlns="http://www.w3.org/2000/svg">
<path d="M20.2137 12.4638C20.2133 11.6656 20.0446 10.8763 19.7185 10.1473C19.3924 9.41828 18.9162 8.76573 18.3208 8.23201C17.7254 7.69829 17.0241 7.29531 16.2624 7.04923C15.5007 6.80314 14.6957 6.71944 13.8995 6.80356C13.1033 6.88767 12.3337 7.13772 11.6406 7.53748C10.9476 7.93725 10.3466 8.4778 9.87663 9.12406C9.40666 9.77033 9.07821 10.5079 8.91259 11.2889C8.74698 12.0698 8.7479 12.8768 8.91529 13.6574C8.9209 13.6831 8.92652 13.7094 8.93269 13.7351C8.93269 13.7407 8.93269 13.7469 8.93662 13.7525C9.97731 18.3517 14.5014 23.9796 14.5014 23.9796C14.5014 23.9796 19.026 18.3517 20.0667 13.7525C20.0667 13.7469 20.0695 13.7407 20.0707 13.7351C20.0768 13.7094 20.0825 13.6831 20.0881 13.6574C20.1719 13.265 20.214 12.865 20.2137 12.4638ZM14.5014 15.3113C13.9365 15.3113 13.3843 15.1443 12.9146 14.8314C12.4449 14.5185 12.0788 14.0738 11.8626 13.5535C11.6465 13.0332 11.5899 12.4607 11.7001 11.9083C11.8103 11.356 12.0823 10.8486 12.4818 10.4504C12.8812 10.0521 13.3901 9.78093 13.9442 9.67106C14.4982 9.56119 15.0725 9.61759 15.5944 9.83311C16.1163 10.0486 16.5624 10.4136 16.8762 10.8818C17.19 11.3501 17.3576 11.9006 17.3576 12.4638C17.3576 12.8378 17.2838 13.2081 17.1403 13.5536C16.9968 13.8991 16.7864 14.213 16.5212 14.4775C16.2559 14.7419 15.941 14.9516 15.5945 15.0947C15.2479 15.2378 14.8765 15.3114 14.5014 15.3113Z" fill="#006988"/>
</svg>
