<svg width="30" height="30" viewBox="0 0 30 30" fill="none" xmlns="http://www.w3.org/2000/svg">
<path d="M12.6187 15.0004L6.27917 20.2467C6.25971 20.1673 6.24992 20.0858 6.25 20.004V9.99615C6.24996 9.91437 6.25975 9.83288 6.27917 9.75342L12.6187 15.0004Z" fill="#006988"/>
<path d="M22.9118 21.0344C22.8772 21.0383 22.8423 21.0401 22.8075 21.04H7.29129C7.25661 21.0401 7.22196 21.0383 7.1875 21.0344L13.5478 15.769L14.0297 16.1678C14.3163 16.4053 14.6773 16.5353 15.0499 16.5353C15.4226 16.5353 15.7836 16.4053 16.0702 16.1678L16.5521 15.769L22.9118 21.0344Z" fill="#006988"/>
<path d="M22.913 8.9656L15.3128 15.2579C15.239 15.3189 15.1461 15.3523 15.0502 15.3523C14.9543 15.3523 14.8615 15.3189 14.7877 15.2579L7.1875 8.9656C7.22172 8.96224 7.25707 8.96057 7.29185 8.96057H22.808C22.844 8.96057 22.8782 8.96224 22.913 8.9656Z" fill="#006988"/>
<path d="M23.8453 9.99615V20.004C23.8454 20.0858 23.8356 20.1673 23.8161 20.2467L17.4766 15.0004L23.8161 9.75342C23.8355 9.83288 23.8453 9.91437 23.8453 9.99615Z" fill="#006988"/>
</svg>
