<svg width="30" height="30" viewBox="0 0 30 30" fill="none" xmlns="http://www.w3.org/2000/svg">
<path d="M11.7985 6.53699C12.0653 6.59337 12.3243 6.68164 12.5699 6.79987C12.6914 6.85829 12.8092 6.92404 12.9227 6.99675L12.608 12.8746C12.1677 13.0948 11.6844 13.2163 11.192 13.2309C11.6092 15.4393 12.8809 17.3955 14.7326 18.6769C14.947 18.2349 15.2556 17.8449 15.637 17.5342L21.1468 19.649C21.167 19.782 21.1789 19.9161 21.1827 20.0506C21.1976 20.5597 21.0971 21.0656 20.8889 21.5306C20.6806 21.9957 20.3698 22.4079 19.9796 22.7367C19.5895 23.0655 19.13 23.3023 18.6353 23.4296C18.1407 23.5569 17.6236 23.5714 17.1226 23.4719L17.0794 23.463L17.0367 23.4535C10.5378 22.0457 6.39469 15.6717 7.76022 9.18312C7.76359 9.16857 7.7664 9.15459 7.7692 9.14005C7.77201 9.1255 7.77537 9.11152 7.77874 9.09754C7.97651 8.22957 8.50924 7.47418 9.26158 6.99494C10.0139 6.51571 10.9253 6.35118 11.7985 6.53699Z" fill="#006988"/>
<path d="M14.3398 10.2753C14.4324 10.2753 14.5244 10.2781 14.6153 10.2831C15.3557 10.3265 16.0755 10.5423 16.7171 10.9134C17.3586 11.2845 17.9038 11.8004 18.309 12.4197C18.7143 13.0389 18.9681 13.7443 19.0503 14.4792C19.1324 15.2141 19.0405 15.9579 18.782 16.6509" stroke="#006988" stroke-miterlimit="10"/>
<path d="M14.6914 7.33948C15.9017 7.39583 17.0815 7.73621 18.1349 8.3329C19.1884 8.9296 20.0857 9.76577 20.7538 10.7734C21.4219 11.781 21.8421 12.9317 21.98 14.1317C22.118 15.3318 21.9698 16.5473 21.5477 17.6795" stroke="#006988" stroke-miterlimit="10"/>
</svg>
